<?xml version="1.0" encoding="UTF-8" standalone="no"?>
<svg
   xmlns:dc="http://purl.org/dc/elements/1.1/"
   xmlns:cc="http://creativecommons.org/ns#"
   xmlns:rdf="http://www.w3.org/1999/02/22-rdf-syntax-ns#"
   xmlns:svg="http://www.w3.org/2000/svg"
   xmlns="http://www.w3.org/2000/svg"
   xmlns:sodipodi="http://sodipodi.sourceforge.net/DTD/sodipodi-0.dtd"
   xmlns:inkscape="http://www.inkscape.org/namespaces/inkscape"
   viewBox="0 0 1280 720"
   height="720"
   width="1280"
   xml:space="preserve"
   id="svg2"
   version="1.1"
   sodipodi:docname="home_logo.svg"
   inkscape:version="0.92.4 (5da689c313, 2019-01-14)"><sodipodi:namedview
     pagecolor="#ffffff"
     bordercolor="#666666"
     borderopacity="1"
     objecttolerance="10"
     gridtolerance="10"
     guidetolerance="10"
     inkscape:pageopacity="0"
     inkscape:pageshadow="2"
     inkscape:window-width="1661"
     inkscape:window-height="993"
     id="namedview57"
     showgrid="false"
     inkscape:zoom="0.44375"
     inkscape:cx="1293.1108"
     inkscape:cy="376.95563"
     inkscape:window-x="199"
     inkscape:window-y="45"
     inkscape:window-maximized="0"
     inkscape:current-layer="g10" /><metadata
     id="metadata8"><rdf:RDF><cc:Work
         rdf:about=""><dc:format>image/svg+xml</dc:format><dc:type
           rdf:resource="http://purl.org/dc/dcmitype/StillImage" /><dc:title></dc:title></cc:Work></rdf:RDF></metadata><defs
     id="defs6"><clipPath
       id="clipPath18"
       clipPathUnits="userSpaceOnUse"><path
         style="clip-rule:evenodd"
         id="path16"
         d="M 0,1.2207e-4 H 960 V 540.00012 H 0 Z" /></clipPath><clipPath
       id="clipPath40"
       clipPathUnits="userSpaceOnUse"><path
         style="clip-rule:evenodd"
         id="path38"
         d="M 1.4305e-5,0 H 960.00001 V 540 H 1.4305e-5 Z" /></clipPath><clipPath
       id="clipPath52"
       clipPathUnits="userSpaceOnUse"><path
         style="clip-rule:evenodd"
         id="path50"
         d="M 1.4305e-5,0 H 960.00001 V 540 H 1.4305e-5 Z" /></clipPath><clipPath
       id="clipPath64"
       clipPathUnits="userSpaceOnUse"><path
         style="clip-rule:evenodd"
         id="path62"
         d="M 1.4305e-5,0 H 960.00001 V 540 H 1.4305e-5 Z" /></clipPath><clipPath
       id="clipPath80"
       clipPathUnits="userSpaceOnUse"><path
         style="clip-rule:evenodd"
         id="path78"
         d="M 1.4305e-5,0 H 960.00001 V 540 H 1.4305e-5 Z" /></clipPath></defs><g
     transform="matrix(1.3333333,0,0,-1.3333333,603.94367,733.52113)"
     id="g10"><path
       id="path22"
       style="fill:#ffda66;fill-opacity:1;fill-rule:evenodd;stroke:none"
       d="m -336.45804,148.90479 h 157.68 v 232.08 h -157.68 z"
       inkscape:connector-curvature="0" /><path
       id="path24"
       style="fill:none;stroke:#000000;stroke-width:0.95999998;stroke-linecap:butt;stroke-linejoin:miter;stroke-miterlimit:10;stroke-dasharray:none;stroke-opacity:1"
       d="m -336.45804,148.90479 h 157.68 v 232.08 h -157.68 z"
       inkscape:connector-curvature="0" /><path
       id="path26"
       style="fill:#ffda66;fill-opacity:1;fill-rule:evenodd;stroke:none"
       d="M -145.29804,148.90479 H 12.381959 v 232.08 H -145.29804 Z"
       inkscape:connector-curvature="0" /><path
       id="path28"
       style="fill:none;stroke:#000000;stroke-width:0.95999998;stroke-linecap:butt;stroke-linejoin:miter;stroke-miterlimit:10;stroke-dasharray:none;stroke-opacity:1"
       d="M -145.29804,148.90479 H 12.381959 v 232.08 H -145.29804 Z"
       inkscape:connector-curvature="0" /><path
       id="path30"
       style="fill:#ffda66;fill-opacity:1;fill-rule:evenodd;stroke:none"
       d="m 237.02196,148.90479 h 157.8 v 232.08 h -157.8 z"
       inkscape:connector-curvature="0" /><path
       id="path32"
       style="fill:none;stroke:#000000;stroke-width:0.95999998;stroke-linecap:butt;stroke-linejoin:miter;stroke-miterlimit:10;stroke-dasharray:none;stroke-opacity:1"
       d="m 237.02196,148.90479 h 157.8 v 232.08 h -157.8 z"
       inkscape:connector-curvature="0" /><g
       id="g34"
       transform="translate(-456.33804,57.46479)"><g
         clip-path="url(#clipPath40)"
         id="g36"><text
   id="text44"
   style="font-variant:normal;font-weight:bold;font-size:21.71999931px;font-family:Calibri;-inkscape-font-specification:Calibri-Bold;writing-mode:lr-tb;fill:#000000;fill-opacity:1;fill-rule:nonzero;stroke:none"
   transform="matrix(1,0,0,-1,170.16,292.08)"><tspan
     id="tspan42"
     y="0"
     x="0 10.27356 21.198721 31.9284 39.248039 48.327">Search</tspan></text>

</g></g><g
       id="g46"
       transform="translate(-456.33804,57.46479)"><g
         clip-path="url(#clipPath52)"
         id="g48"><text
   id="text56"
   style="font-variant:normal;font-weight:bold;font-size:21.71999931px;font-family:Calibri;-inkscape-font-specification:Calibri-Bold;writing-mode:lr-tb;fill:#000000;fill-opacity:1;fill-rule:nonzero;stroke:none"
   transform="matrix(1,0,0,-1,367.7,292.08)"><tspan
     id="tspan54"
     y="0"
     x="0 9.9694796 15.24744 20.590561 27.845039 38.770199">Filter</tspan></text>

</g></g><g
       id="g58"
       transform="translate(-456.33804,57.46479)"><g
         clip-path="url(#clipPath64)"
         id="g60"><text
   id="text68"
   style="font-variant:normal;font-weight:bold;font-size:21.71999931px;font-family:Calibri;-inkscape-font-specification:Calibri-Bold;writing-mode:lr-tb;fill:#000000;fill-opacity:1;fill-rule:nonzero;stroke:none"
   transform="matrix(1,0,0,-1,727.25,292.08)"><tspan
     id="tspan66"
     y="0"
     x="0 13.6836 25.368959 41.550362 53.214001 58.448521 70.133881 80.77668">Download</tspan></text>

</g></g><path
       id="path70"
       style="fill:#ffda66;fill-opacity:1;fill-rule:evenodd;stroke:none"
       d="M 45.861959,148.90479 H 203.54196 v 232.08 H 45.861959 Z"
       inkscape:connector-curvature="0" /><path
       id="path72"
       style="fill:none;stroke:#000000;stroke-width:0.95999998;stroke-linecap:butt;stroke-linejoin:miter;stroke-miterlimit:10;stroke-dasharray:none;stroke-opacity:1"
       d="M 45.861959,148.90479 H 203.54196 v 232.08 H 45.861959 Z"
       inkscape:connector-curvature="0" /><g
       id="g74"
       transform="translate(-456.33804,57.46479)"><g
         clip-path="url(#clipPath80)"
         id="g76"><text
   id="text84"
   style="font-variant:normal;font-weight:bold;font-size:21.71999931px;font-family:Calibri;-inkscape-font-specification:Calibri-Bold;writing-mode:lr-tb;fill:#000000;fill-opacity:1;fill-rule:nonzero;stroke:none"
   transform="matrix(1,0,0,-1,546.72,292.08)"><tspan
     id="tspan82"
     y="0"
     x="0 13.16232 24.82596 35.555641 40.790161 50.998562 59.27388">Analyze</tspan></text>

</g></g><path
       id="path86"
       style="fill:#729fcf;fill-opacity:1;fill-rule:evenodd;stroke:none"
       d="m 93.981959,186.10479 h 63.240001 v 103.56 H 93.981959 Z"
       inkscape:connector-curvature="0" /><path
       id="path88"
       style="fill:none;stroke:#3465a4;stroke-width:0.72000003;stroke-linecap:butt;stroke-linejoin:round;stroke-miterlimit:10;stroke-dasharray:none;stroke-opacity:1"
       d="m 93.981959,186.10479 h 63.240001 v 103.56 H 93.981959 Z"
       inkscape:connector-curvature="0" /><path
       id="path90"
       style="fill:none;stroke:#3465a4;stroke-width:2.27999997;stroke-linecap:butt;stroke-linejoin:round;stroke-miterlimit:10;stroke-dasharray:none;stroke-opacity:1"
       d="m 126.68196,210.04479 v -40.8"
       inkscape:connector-curvature="0" /><path
       id="path92"
       style="fill:none;stroke:#3465a4;stroke-width:2.27999997;stroke-linecap:butt;stroke-linejoin:round;stroke-miterlimit:10;stroke-dasharray:none;stroke-opacity:1"
       d="m 109.28196,210.04479 h 34.8"
       inkscape:connector-curvature="0" /><path
       id="path94"
       style="fill:none;stroke:#3465a4;stroke-width:2.27999997;stroke-linecap:butt;stroke-linejoin:round;stroke-miterlimit:10;stroke-dasharray:none;stroke-opacity:1"
       d="m 109.28196,169.24479 h 34.8"
       inkscape:connector-curvature="0" /><path
       id="path96"
       style="fill:none;stroke:#3465a4;stroke-width:2.27999997;stroke-linecap:butt;stroke-linejoin:round;stroke-miterlimit:10;stroke-dasharray:none;stroke-opacity:1"
       d="m 126.68196,307.84479 v -40.8"
       inkscape:connector-curvature="0" /><path
       id="path98"
       style="fill:none;stroke:#3465a4;stroke-width:2.27999997;stroke-linecap:butt;stroke-linejoin:round;stroke-miterlimit:10;stroke-dasharray:none;stroke-opacity:1"
       d="m 109.28196,307.84479 h 34.8"
       inkscape:connector-curvature="0" /><path
       id="path100"
       style="fill:none;stroke:#3465a4;stroke-width:2.27999997;stroke-linecap:butt;stroke-linejoin:round;stroke-miterlimit:10;stroke-dasharray:none;stroke-opacity:1"
       d="m 109.28196,267.04479 h 34.8"
       inkscape:connector-curvature="0" /><path
       id="path102"
       style="fill:#729fcf;fill-opacity:1;fill-rule:evenodd;stroke:none"
       d="m -190.94804,193.33479 -25.68,25.68 c -1.16,1.16 -2.73,1.8 -4.38,1.8 h -4.2 c 7.11,9.1 11.34,20.53 11.34,32.97 0,29.6 -23.99,53.58 -53.59,53.58 -29.6,0 -53.58,-23.98 -53.58,-53.58 0,-29.59 23.98,-53.57 53.58,-53.57 12.45,0 23.88,4.22 32.98,11.33 v -4.2 c 0,-1.65 0.64,-3.22 1.8,-4.38 l 25.69,-25.68 c 2.42,-2.42 6.33,-2.42 8.73,0 l 7.29,7.29 c 2.42,2.42 2.42,6.34 0.02,8.76 z m -76.51,27.48 c -18.21,0 -32.97,14.74 -32.97,32.97 0,18.21 14.73,32.97 32.97,32.97 18.22,0 32.98,-14.73 32.98,-32.97 0,-18.21 -14.74,-32.97 -32.98,-32.97 z"
       inkscape:connector-curvature="0" /><path
       id="path104"
       style="fill:none;stroke:#44546a;stroke-width:2.27999997;stroke-linecap:butt;stroke-linejoin:miter;stroke-miterlimit:8;stroke-dasharray:none;stroke-opacity:1"
       d="m -190.94804,193.33479 -25.68,25.68 c -1.16,1.16 -2.73,1.8 -4.38,1.8 h -4.2 c 7.11,9.1 11.34,20.53 11.34,32.97 0,29.6 -23.99,53.58 -53.59,53.58 -29.6,0 -53.58,-23.98 -53.58,-53.58 0,-29.59 23.98,-53.57 53.58,-53.57 12.45,0 23.88,4.22 32.98,11.33 v -4.2 c 0,-1.65 0.64,-3.22 1.8,-4.38 l 25.69,-25.68 c 2.42,-2.42 6.33,-2.42 8.73,0 l 7.29,7.29 c 2.42,2.42 2.42,6.34 0.02,8.76 z m -76.51,27.48 c -18.21,0 -32.97,14.74 -32.97,32.97 0,18.21 14.73,32.97 32.97,32.97 18.22,0 32.98,-14.73 32.98,-32.97 0,-18.21 -14.74,-32.97 -32.98,-32.97 z"
       inkscape:connector-curvature="0" /><path
       id="path106"
       style="fill:#729fcf;fill-opacity:1;fill-rule:evenodd;stroke:none"
       d="M -2.8680396,303.16479 H -124.64804 c -5.6,0 -8.42,-6.79 -4.46,-10.75 l 48.55,-48.56 v -54.09 c 0,-2.06 1,-3.98 2.69,-5.16 l 21,-14.7 c 4.14,-2.9 9.91,0.04 9.91,5.17 v 68.78 l 48.5500004,48.56 c 3.959999,3.95 1.15,10.75 -4.46,10.75 z"
       inkscape:connector-curvature="0" /><path
       id="path108"
       style="fill:none;stroke:#44546a;stroke-width:2.27999997;stroke-linecap:butt;stroke-linejoin:miter;stroke-miterlimit:8;stroke-dasharray:none;stroke-opacity:1"
       d="M -2.8680396,303.16479 H -124.64804 c -5.6,0 -8.42,-6.79 -4.46,-10.75 l 48.55,-48.56 v -54.09 c 0,-2.06 1,-3.98 2.69,-5.16 l 21,-14.7 c 4.14,-2.9 9.91,0.04 9.91,5.17 v 68.78 l 48.5500004,48.56 c 3.959999,3.95 1.15,10.75 -4.46,10.75 z"
       inkscape:connector-curvature="0" /><path
       id="path110"
       style="fill:#729fcf;fill-opacity:1;fill-rule:evenodd;stroke:none"
       d="m 305.90196,289.96479 h 18.96 c 3.15,0 5.69,-2.53 5.69,-5.68 v -39.77 h 20.78 c 4.21,0 6.32,-5.09 3.34,-8.07 l -36.04,-36.03 c -1.78,-1.78 -4.7,-1.78 -6.47,0 l -36.09,36.03 c -2.99,2.98 -0.88,8.07 3.34,8.07 h 20.8 v 39.77 c 0,3.15 2.54,5.68 5.69,5.68 z m 70.14,-89.01 v -26.51 c 0,-3.15 -2.54,-5.68 -5.69,-5.68 h -109.94 c -3.15,0 -5.69,2.53 -5.69,5.68 v 26.51 c 0,3.15 2.54,5.69 5.69,5.69 h 34.76 l 11.61,-11.6 c 4.76,-4.76 12.44,-4.76 17.2,0 l 11.61,11.6 h 34.76 c 3.15,0 5.69,-2.54 5.69,-5.69 z m -29.38,-20.83 c 0,2.61 -2.13,4.74 -4.74,4.74 -2.61,0 -4.74,-2.13 -4.74,-4.74 0,-2.6 2.13,-4.73 4.74,-4.73 2.61,0 4.74,2.13 4.74,4.73 z m 15.16,0 c 0,2.61 -2.13,4.74 -4.74,4.74 -2.6,0 -4.74,-2.13 -4.74,-4.74 0,-2.6 2.14,-4.73 4.74,-4.73 2.61,0 4.74,2.13 4.74,4.73 z"
       inkscape:connector-curvature="0" /><path
       id="path112"
       style="fill:none;stroke:#44546a;stroke-width:2.27999997;stroke-linecap:butt;stroke-linejoin:miter;stroke-miterlimit:8;stroke-dasharray:none;stroke-opacity:1"
       d="m 305.90196,289.96479 h 18.96 c 3.15,0 5.69,-2.53 5.69,-5.68 v -39.77 h 20.78 c 4.21,0 6.32,-5.09 3.34,-8.07 l -36.04,-36.03 c -1.78,-1.78 -4.7,-1.78 -6.47,0 l -36.09,36.03 c -2.99,2.98 -0.88,8.07 3.34,8.07 h 20.8 v 39.77 c 0,3.15 2.54,5.68 5.69,5.68 z m 70.14,-89.01 v -26.51 c 0,-3.15 -2.54,-5.68 -5.69,-5.68 h -109.94 c -3.15,0 -5.69,2.53 -5.69,5.68 v 26.51 c 0,3.15 2.54,5.69 5.69,5.69 h 34.76 l 11.61,-11.6 c 4.76,-4.76 12.44,-4.76 17.2,0 l 11.61,11.6 h 34.76 c 3.15,0 5.69,-2.54 5.69,-5.69 z m -29.38,-20.83 c 0,2.61 -2.13,4.74 -4.74,4.74 -2.61,0 -4.74,-2.13 -4.74,-4.74 0,-2.6 2.13,-4.73 4.74,-4.73 2.61,0 4.74,2.13 4.74,4.73 z m 15.16,0 c 0,2.61 -2.13,4.74 -4.74,4.74 -2.6,0 -4.74,-2.13 -4.74,-4.74 0,-2.6 2.14,-4.73 4.74,-4.73 2.61,0 4.74,2.13 4.74,4.73 z"
       inkscape:connector-curvature="0" /></g></svg>