<svg aria-hidden="true" xmlns="http://www.w3.org/2000/svg" viewBox="-7 -7 526 526">
    <style>
        .fill-accent-lighter{fill:#ffe182}.fill-accent-lightest{fill:#fff0c0}.stroke-accent{stroke:#ffc306}.home-scene-feature-icon{stroke-width:14px}
    </style>
    <link xmlns="http://www.w3.org/1999/xhtml" rel="stylesheet" href="/images.css" type="text/css"/>
    <path class="home-scene-feature-icon fill-accent-lighter stroke-accent" d="M500 384c6.6 0 12 5.4 12 12v40c0 6.6-5.4 12-12 12H12c-6.6 0-12-5.4-12-12V76c0-6.6 5.4-12 12-12h40c6.6 0 12 5.4 12 12v308h436z"/>
    <path class="home-scene-feature-icon fill-accent-lightest stroke-accent" d="M372.7 159.5L288 216l-85.3-113.7c-5.1-6.8-15.5-6.3-19.9 1L96 248v104h384l-89.9-187.8c-3.2-6.5-11.4-8.7-17.4-4.7z"/>
</svg>
