<svg aria-hidden="true" xmlns="http://www.w3.org/2000/svg" viewBox="-7 -7 526 526">
    <style>
        .fill-accent-lighter{fill:#ffe182}.fill-accent-lightest{fill:#fff0c0}.stroke-accent{stroke:#ffc306}.home-scene-feature-icon{stroke-width:14px}
    </style>
    <link xmlns="http://www.w3.org/1999/xhtml" rel="stylesheet" href="/images.css" type="text/css"/>
    <path class="home-scene-feature-icon fill-accent-lightest stroke-accent" d="M216 0h80c13.3 0 24 10.7 24 24v168h87.7c17.8 0 26.7 21.5 14.1 34.1L269.7 378.3c-7.5 7.5-19.8 7.5-27.3 0L90.1 226.1c-12.6-12.6-3.7-34.1 14.1-34.1H192V24c0-13.3 10.7-24 24-24z"/>
    <path class="home-scene-feature-icon fill-accent-lighter stroke-accent" d="M512 376v112c0 13.3-10.7 24-24 24H24c-13.3 0-24-10.7-24-24V376c0-13.3 10.7-24 24-24h146.7l49 49c20.1 20.1 52.5 20.1 72.6 0l49-49H488c13.3 0 24 10.7 24 24zm-124 88c0-11-9-20-20-20s-20 9-20 20 9 20 20 20 20-9 20-20zm64 0c0-11-9-20-20-20s-20 9-20 20 9 20 20 20 20-9 20-20z"/>
</svg>
