<?xml version="1.0" encoding="utf-8"?>
<?xml-stylesheet type="text/css" href="/images.css" ?>
<svg version="1.1" xmlns="http://www.w3.org/2000/svg"
	 viewBox="0 0 183.914429 178.559601" xml:space="preserve">
	<path class="fill-primary" d="M89.912109,10.7798l1.663574,9.830599l0.638184-0.105499l0.344727,2.029301l-0.394531,0.0679
		c-0.394043,0.067801-0.493164,0.597099-0.395996,1.523899L90.731934,24.3008L88.480957,11.0229L89.912109,10.7798z"/>
	<path class="fill-primary" d="M99.979492,11.7339l-0.477539,9.175301l0.47168,0.023899L99.875488,22.8325l-0.291985-0.017101
		c-0.291512-0.012699-0.450691,0.446301-0.542007,1.296902l-0.763176-0.037601L98.922852,11.6787L99.979492,11.7339z"/>
	<path class="fill-primary" d="M65.129402,8.3662l3.826195,4.9849l0.644501-0.4907l0.788605,1.029699L69.991699,14.1968
		c-0.397499,0.3076-0.385696,0.6992-0.091301,1.2114l-1.042,0.7993L63.2383,8.9146L65.129402,8.3662z"/>
	<path class="fill-primary" d="M16.8843,40.230999l8.98,0.3969l0.049301-1.172798l1.858898,0.082001L27.7393,40.265099
		c-0.031799,0.723202,0.408199,1.076202,1.243101,1.2276L28.898899,43.3857l-12.130798-0.5341L16.8843,40.230999z"/>
	<path class="fill-primary" d="M94.458008,1.4927l0.675781,6.2519l0.612793-0.0654L95.888184,8.9702l-0.38134,0.0401
		c-0.377937,0.0424-0.519547,0.3808-0.515633,0.9677l-0.991699,0.107L93.087891,1.6401L94.458008,1.4927z"/>
	<path class="fill-primary" d="M113.556198,4.7266l-1.296394,5.1679l0.280197,1.2676l-0.2705,1.071301l-0.346603-0.086901
		c-0.345795-0.0869-0.571297,0.135201-0.743195,0.604l-0.9077-0.228l1.9282-8.1202L113.556198,4.7266z"/>
	<path class="fill-primary" d="M107.5933,14.314l-1.813004,7.647901l0.450706,0.107399l-0.372101,1.5811L105.577599,23.584
		c-0.280701-0.065899-0.500496,0.2915-0.713799,0.993601l-0.734398-0.1733l2.448196-10.330101L107.5933,14.314z"/>
	<path class="fill-primary" d="M150.707001,45.526901l-4.314407,2.961399l0.264099,0.382801l-0.891586,0.616199l-0.165009-0.241199
		c-0.160202-0.235802-0.454605-0.193401-0.880905,0.046898l-0.428192-0.6236l5.824707-4.0019L150.707001,45.526901z"/>
	<path class="fill-primary" d="M41.941898,153.897507c-2.048298-1.666107-1.977497-4.464905,0.080601-6.990311l6.967701-8.549789
		c2.077702-2.550812,4.7827-3.161102,6.830101-1.486313c2.067398,1.68161,1.997601,4.438507-0.078602,6.984406l-6.9697,8.552704
		C46.715302,154.932602,44.0103,155.582001,41.941898,153.897507 M53.247601,141.497101
		c0.3964-0.490295,0.432098-1.032303-0.043499-1.419006c-0.452602-0.370102-0.9995-0.242188-1.399403,0.247101l-7.267597,8.916
		c-0.399403,0.49321-0.432102,1.077209,0.020496,1.447311c0.474602,0.385696,1.022503,0.217789,1.418503-0.2715
		L53.247601,141.497101z"/>
	<path class="fill-primary" d="M62.855999,141.164093l11.727505-18.419991l-2.630402-1.721603l2.4263-3.805702l1.628395,1.063499
		c1.625,1.061501,2.972702,0.617203,4.315903-0.933594l4.256378,2.779297l-15.842278,24.882805L62.855999,141.164093z"/>
	<path class="fill-primary" d="M89.021477,119.594704L97.10791,105.208l-1.210938-0.700203l1.672371-2.976494l0.749504,0.434494
		c0.753899,0.434601,1.509285-0.096695,2.379395-1.369095l1.961914,1.138695L91.73584,121.166L89.021477,119.594704z"/>
	<path class="fill-primary" d="M5.731,93.1045l12.081-4.798798L17.268999,86.8955l2.5035-0.995102l0.331001,0.874001
		c0.336,0.870102,1.105,1.027405,2.2822,0.716805l0.875,2.279297L5.9502,96.680702L5.731,93.1045z"/>
	<path class="fill-primary" d="M64.686501,165.703094l7.098701-12.450195l-1.057701-0.623001l1.472198-2.573303l0.652397,0.384811
		c0.655205,0.38179,1.316406-0.071304,2.078102-1.174805l1.7099,1.005905l-9.592201,16.818298L64.686501,165.703094z"/>
	<path class="fill-primary" d="M17.654301,127.550797l12.618599-9.975594l-0.884699-1.150406l2.6094-2.0644l0.548798,0.712799
		c0.545902,0.711006,1.440903,0.534203,2.702602-0.287994l1.433098,1.860298L19.6367,130.123993L17.654301,127.550797z"/>
	<path class="fill-primary" d="M150.876007,121.923798l-6.725113-13.476494l-1.275894,0.618095l-1.392593-2.790001l0.792496-0.377899
		c0.787598-0.381897,0.810104-1.242203,0.305191-2.558601l2.063507-0.9981l9.087402,18.205101L150.876007,121.923798z"/>
	<path class="fill-primary" d="M163.359894,108.189499l-10.610901-8.555702l-0.755295,0.9189l-2.193893-1.769493l0.471191-0.566406
		c0.468307-0.567398,0.1436-1.261696-0.773895-2.1455l1.227493-1.483398l14.3311,11.549805L163.359894,108.189499z"/>
	<path class="fill-primary" d="M181.060104,88.214798l-6.946304-0.581001l-0.118195,1.181602l-1.251907-0.1054l0.072708-0.731499
		c0.0737-0.735298-0.199707-1.099602-0.75441-1.258797l0.189499-1.912102l8.177704,0.701195L181.060104,88.214798z"/>
	<path class="fill-primary" d="M167.628906,128.001999l-6.682114-8.587898l-1.081589,0.818298l-1.381805-1.773399l0.668503-0.506897
		c0.671799-0.513603,0.638596-1.182602,0.120102-2.0625l1.752396-1.326103l9.025406,11.601501L167.628906,128.001999z"/>
	<path class="fill-primary" d="M60.839802,94.085899l12.016201-9.075203l-0.776405-1.060493l2.483406-1.875999l0.482399,0.654297
		c0.481895,0.653297,1.313995,0.493202,2.504898-0.2519l1.258301,1.710899L62.576199,96.450203L60.839802,94.085899z"/>
	<path class="fill-primary" d="M45.7598,61.334499L60.2729,57.3125l-0.331501-1.266602l3.002903-0.832497l0.2085,0.787598
		c0.205097,0.783199,1.038101,0.941902,2.420898,0.685501l0.541,2.054199l-19.609299,5.4282L45.7598,61.334499z"/>
	<path class="fill-primary" d="M53.7402,28.0151l11.961903,6.429701l0.556694-1.000999l2.473106,1.326698L68.3862,35.390598
		c-0.341797,0.621601,0.107903,1.233402,1.171402,1.928703l-0.899399,1.621597l-16.160202-8.6831L53.7402,28.0151z"/>
	<path class="fill-primary" d="M64.919403,18.9653l8.329597,7.9112l0.682602-0.700199l1.724594,1.6357L75.234901,28.2456
		c-0.4244,0.435101-0.197304,1.038101,0.515602,1.8398l-1.109901,1.135801L63.391102,20.5352L64.919403,18.9653z"/>
	<path class="fill-primary" d="M22.27,76.8638l16.8643-5.237297L38.5518,69.6689l3.488201-1.083l0.360901,1.211502
		c0.360298,1.212898,1.383797,1.506302,3.010197,1.203102L46.355,74.170403L23.5732,81.239304L22.27,76.8638z"/>
	<path class="fill-primary" d="M34.678699,28.888201l11.9561,3.958998l0.394001-1.154799l2.472698,0.819799L49.255402,33.23
		c-0.244701,0.713402,0.25,1.245102,1.327599,1.723602l-0.640598,1.871098l-17.325203-5.6143L34.678699,28.888201z"/>
	<path class="fill-primary" d="M85.25,151.653305l8.359375-19.517609l-2.797852-1.230392l1.730469-4.036201l1.732414,0.760796
		c1.732437,0.754898,2.953133,0.115204,4-1.584l4.525887,1.9814l-11.293449,26.367203L85.25,151.653305z"/>
	<path class="fill-primary" d="M146.995605,148.690399l-4.130402-15.783203l-1.8564,0.4776l-0.852112-3.265701l1.147003-0.295898
		c1.146011-0.294891,1.469208-1.233398,1.260803-2.7519l3.001404-0.777397l5.578094,21.323303L146.995605,148.690399z"/>
	<path class="fill-primary" d="M165.938995,65.813004l-9.552292,2.633293l0.21489,0.771004l-1.975098,0.543396l-0.1353-0.479393
		c-0.133789-0.472206-0.677689-0.556206-1.587402-0.388206l-0.350586-1.246597l12.904297-3.557098L165.938995,65.813004z"/>
	<path class="fill-primary" d="M157.195801,49.794899l-6.600601,4.0098l0.224594,0.373001L149.459,55.006802l-0.141602-0.228001
		c-0.142593-0.233902-0.543991-0.1343-1.181702,0.203598l-0.369095-0.601498l8.917496-5.420502L157.195801,49.794899z"/>
	<path class="fill-primary" d="M172.563004,58.4702l-5.052704,1.798801l0.235306,0.6451l-0.879898,0.3232l-0.146011-0.396999
		c-0.148392-0.3974-0.43309-0.5014-0.852493-0.4174l-0.391098-1.037601l6.551697-2.3531L172.563004,58.4702z"/>
	<path class="fill-primary" d="M167.362793,49.894501l-4.475586,1.837898l0.263199,0.6343l-0.925812,0.382301l-0.162094-0.389099
		c-0.164993-0.393101-0.465302-0.480503-0.908707-0.3736l-0.4263-1.021l6.045914-2.487301L167.362793,49.894501z"/>
	<path class="fill-primary" d="M161.729507,41.710899l-4.659714,2.670902l0.263199,0.459l-0.961395,0.5518l-0.167999-0.2827
		c-0.162598-0.283703-0.474091-0.2784-0.933594-0.075203l-0.428207-0.739799l6.29541-3.609798L161.729507,41.710899z"/>
	<path class="fill-primary" d="M162.610397,56.919899l-8.452194,3.274403l0.199203,0.514198l-1.747009,0.6782l-0.125504-0.317898
		c-0.123093-0.318302-0.610901-0.297302-1.416489-0.044903l-0.325699-0.829597l11.416-4.421402L162.610397,56.919899z"/>
	<path class="fill-primary" d="M118.672897,157.261703c-4.201195-0.442398-6.664597-3.493103-6.281296-7.572205l1.294395-13.799896
		c0.385803-4.114197,3.364304-6.55661,7.562004-6.117096c4.239799,0.44429,6.666595,3.453094,6.280296,7.570297l-1.291496,13.795898
		C125.856003,155.216797,122.912598,157.703094,118.672897,157.261703 M122.117203,136.455093
		c0.0718-0.795898-0.383301-1.3965-1.3545-1.500992c-0.934105-0.094696-1.528801,0.398392-1.6035,1.186493l-1.347702,14.395508
		c-0.074699,0.791992,0.412598,1.444397,1.346703,1.544998c0.971199,0.096603,1.5327-0.444397,1.6064-1.233398
		L122.117203,136.455093z"/>
	<path class="fill-primary" d="M23.665501,54.482899c0.045898-2.8652,2.006399-4.715298,4.8487-4.705997l9.638102,0.033199
		c2.869698,0.014599,4.747097,1.877899,4.701199,4.7402c-0.0425,2.891098-1.977001,4.714798-4.8447,4.705601l-9.637201-0.035202
		C25.5264,59.210899,23.622999,57.3755,23.665501,54.482899 M38.285599,55.543499c0.5494,0,0.942902-0.3428,0.951702-1.005898
		c0.0107-0.6353-0.369102-1.008301-0.920902-1.008301L28.2666,53.492199c-0.5522-0.002899-0.9722,0.367702-0.981899,1.003403
		c-0.0103,0.663097,0.3974,1.008797,0.950199,1.0107L38.285599,55.543499z"/>
	<path class="fill-primary" d="M28.700701,104.333c-2.310101-3.910103-1.231501-8.007797,2.557098-10.304703l12.835501-7.7724
		c3.8242-2.315498,7.857899-1.316399,10.1665,2.600502c2.328602,3.947304,1.266102,7.985397-2.558102,10.304703l-12.834499,7.7696
		C35.076199,109.227501,31.0312,108.288101,28.700701,104.333 M49.004902,93.905296
		c0.735298-0.442398,0.9702-1.223694,0.438-2.131897c-0.516602-0.870102-1.326202-1.066399-2.063503-0.622002l-13.3853,8.108406
		c-0.737797,0.443298-0.988197,1.288094-0.476498,2.157196c0.536098,0.904297,1.3633,1.0439,2.098598,0.598602L49.004902,93.905296z
		"/>
	<path class="fill-primary" d="M44.3242,128.251007c-3.503899-3.47171-3.476101-8.087906-0.091301-11.571304L55.694801,104.875
		c3.4156-3.516602,7.950699-3.599602,11.455101-0.128899c3.535194,3.502899,3.508797,8.049797,0.089401,11.569298
		L55.7822,128.117203C52.3979,131.601593,47.861801,131.755905,44.3242,128.251007 M62.965801,111.544899
		c0.653297-0.676697,0.691399-1.567398-0.119602-2.368095c-0.776897-0.771507-1.690899-0.75-2.346199-0.073303l-11.958,12.311501
		c-0.652802,0.675797-0.693401,1.632896,0.0835,2.404297c0.813499,0.805702,1.7295,0.709999,2.383801,0.037102L62.965801,111.544899
		z"/>
	<path class="fill-primary" d="M74.362801,109.173798c-2.069801-1.8144-1.947304-4.693298,0.209999-7.209l7.303703-8.5224
		c2.178185-2.541,4.964317-3.053696,7.0317-1.241196c2.09082,1.821297,1.969238,4.667-0.209961,7.206001l-7.301743,8.523499
		C79.235802,110.444298,76.450699,110.997101,74.362801,109.173798 M86.186043,96.866203
		c0.416496-0.489204,0.459465-1.048805-0.019547-1.470703c-0.457993-0.400398-1.019524-0.292999-1.437004,0.196297
		l-7.622093,8.888702c-0.416,0.488304-0.464302,1.088799-0.002899,1.492203c0.4795,0.4179,1.0439,0.268501,1.462402-0.217804
		L86.186043,96.866203z"/>
	<path class="fill-primary" d="M52.607899,80.1465c-1.290497-2.448303-0.310997-5.014702,2.356903-6.453102l9.042995-4.879898
		c2.689003-1.455101,5.315399-0.829597,6.607903,1.620598c1.299301,2.468704,0.339897,5.000504-2.358398,6.453606L59.2173,81.766602
		C56.549301,83.205101,53.912102,82.621101,52.607899,80.1465 M66.795403,73.598099
		c0.516594-0.277298,0.723595-0.766998,0.425301-1.3349c-0.287102-0.541496-0.816406-0.667496-1.333-0.388702l-9.430702,5.089401
		c-0.517502,0.283203-0.738701,0.807602-0.453102,1.351501c0.299801,0.569405,0.8447,0.651398,1.361301,0.3731L66.795403,73.598099z
		"/>
	<path class="fill-primary" d="M46.369598,44.836399c0.355503-2.377399,2.563503-3.641598,5.4771-3.2402l9.8554,1.376499
		c2.936604,0.408203,4.654301,2.221603,4.300304,4.598602c-0.361305,2.400398-2.537601,3.647499-5.472103,3.236801
		l-9.860901-1.373501C47.762199,49.0303,46.0112,47.236801,46.369598,44.836399 M61.2178,47.757801
		c0.564899,0.079597,1.003899-0.151402,1.0854-0.700203c0.076702-0.529797-0.273899-0.890099-0.837898-0.972198l-10.2812-1.432598
		c-0.565002-0.080002-1.0303,0.171898-1.110901,0.699699c-0.0835,0.5494,0.298401,0.8946,0.8633,0.974598L61.2178,47.757801z"/>
	<path class="fill-primary" d="M51.0229,17.160601c1.117699-1.441801,2.783298-1.660101,4.168999-0.606401l4.695301,3.564901
		c1.397499,1.0625,1.600601,2.7022,0.485401,4.142599c-1.126499,1.454599-2.7696,1.6695-4.168999,0.6089L51.5093,21.3027
		C50.123501,20.252399,49.8955,18.6138,51.0229,17.160601 M57.7612,23.084499c0.266102,0.204102,0.5909,0.173801,0.849201-0.1616
		c0.245598-0.320799,0.204498-0.6495-0.0625-0.8545L53.6479,18.3521c-0.266998-0.2061-0.613701-0.1714-0.863201,0.148899
		c-0.257397,0.3325-0.190498,0.659201,0.076603,0.8647L57.7612,23.084499z"/>
	<path class="fill-primary" d="M75.620598,13.3486c1.202202-0.7558,2.805199,0.0313,4.017105,1.9126l4.09716,6.375
		c1.22364,1.899401,1.251953,3.6485,0.049805,4.404301c-1.216766,0.763699-2.797867-0.013601-4.019569-1.912601L75.6689,17.7549
		C74.459,15.873,74.4048,14.1123,75.620598,13.3486 M81.423798,23.294399c0.233902,0.364801,0.5401,0.529301,0.820305,0.355501
		c0.270096-0.169401,0.261299-0.523401,0.025398-0.8862l-4.275803-6.6485c-0.231995-0.3652-0.566895-0.5429-0.834-0.3745
		c-0.2798,0.1768-0.245598,0.5406-0.012695,0.9063L81.423798,23.294399z"/>
	<path class="fill-primary" d="M80.721703,2.522c1.0923-0.3682,2.109398,0.2905,2.57225,1.6142l1.566399,4.4815
		c0.466309,1.3359,0.067375,2.4599-1.020508,2.8281C82.741699,11.8184,81.737297,11.166,81.2705,9.8306l-1.567398-4.4805
		C79.2407,4.0273,79.624496,2.8945,80.721703,2.522 M82.7173,9.458c0.090302,0.2549,0.284653,0.3897,0.533188,0.3062
		c0.245605-0.0816,0.323242-0.3096,0.23291-0.566l-1.6343-4.6743c-0.088402-0.2568-0.296402-0.4018-0.537102-0.3218
		C81.058601,4.2896,80.992699,4.5273,81.083,4.7813L82.7173,9.458z"/>
	<path class="fill-primary" d="M104.724098,2.7104c0.535706,0.0821,0.757301,1.0469,0.5718,2.3936l-0.630402,4.5571
		c-0.1894,1.3565-0.662094,2.2041-1.198196,2.1221c-0.541031-0.084001-0.761253-1.037601-0.569839-2.3936l0.628937-4.5546
		C103.712898,3.4878,104.182098,2.626,104.724098,2.7104 M103.578102,9.6006c-0.036102,0.2593,0.001999,0.4526,0.125,0.472199
		c0.122597,0.02,0.213898-0.1543,0.252495-0.4136l0.655701-4.7525c0.038605-0.2617-0.005798-0.4658-0.125496-0.4858
		c-0.121101-0.0186-0.216301,0.1685-0.250404,0.4268L103.578102,9.6006z"/>
	<path class="fill-primary" d="M99.128906,171.601593c-2.292-0.532288-3.408699-2.535187-2.866699-4.9776l1.836426-8.27829
		c0.545898-2.461899,2.392578-3.754898,4.680176-3.223602c2.313988,0.534195,3.413589,2.512695,2.866692,4.976501
		l-1.833504,8.278397C103.268997,170.819305,101.437988,172.137695,99.128906,171.601593 M102.71875,159.218796
		c0.105469-0.473694-0.097168-0.869202-0.625-0.988297c-0.510742-0.120102-0.882813,0.141602-0.984863,0.616196l-1.91407,8.630798
		c-0.105949,0.476608,0.111824,0.899506,0.620613,1.0186c0.53125,0.122101,0.885742-0.169891,0.989754-0.641586
		L102.71875,159.218796z"/>
	<path class="fill-primary" d="M136.145493,162.861298c-2.145493,0.135803-3.625488-0.989197-3.7612-2.7724l-0.443893-6.04689
		c-0.134705-1.802704,1.170395-3.089905,3.318405-3.225601c2.170395-0.138702,3.629898,0.969696,3.761688,2.772491
		l0.446808,6.046799C139.598602,161.419907,138.315903,162.721695,136.145493,162.861298 M136.227997,153.626999
		c-0.02829-0.344803-0.304199-0.571304-0.8022-0.5401c-0.477097,0.031296-0.735397,0.292007-0.712891,0.637695l0.468292,6.303711
		c0.022903,0.347702,0.320297,0.591797,0.798309,0.561493c0.498993-0.034103,0.736786-0.308502,0.711395-0.655197
		L136.227997,153.626999z"/>
	<path class="fill-primary" d="M110.111298,127.167999c-2.670395-0.651398-3.888199-3.263702-3.134201-6.490303l2.557602-10.933594
		c0.763199-3.254799,2.996101-4.994102,5.667404-4.342705c2.6968,0.660103,3.895096,3.239204,3.135796,6.494102l-2.556198,10.932602
		C115.028297,126.054703,112.807098,127.828102,110.111298,127.167999 M114.935097,110.802696
		c0.1464-0.629799-0.074699-1.142494-0.690498-1.297798c-0.597099-0.144501-1.0429,0.2099-1.190399,0.8349l-2.666,11.404305
		c-0.1465,0.622101,0.090302,1.178795,0.683601,1.325195c0.619598,0.148499,1.050797-0.243095,1.1968-0.870094
		L114.935097,110.802696z"/>
	<path class="fill-primary" d="M132.736801,128.277298c-2.742203,0.192398-4.701599-1.922798-4.968704-5.229401l-0.909698-11.1875
		c-0.269997-3.3311,1.3311-5.671898,4.069809-5.864296c2.768097-0.197304,4.6978,1.888702,4.971191,5.224602l0.907196,11.1875
		C137.076706,125.712898,135.507294,128.080093,132.736801,128.277298 M132.323196,111.216797
		c-0.05069-0.6436-0.4189-1.064499-1.052704-1.0205c-0.60939,0.042-0.929199,0.516602-0.878387,1.157204l0.948196,11.670898
		c0.049301,0.638702,0.446793,1.095703,1.055695,1.051804c0.636703-0.044899,0.9263-0.549805,0.876007-1.190506
		L132.323196,111.216797z"/>
	<path class="fill-primary" d="M170.977997,94.764603c-0.928192,1.922897-3.225601,2.375-5.714798,1.208099l-8.442398-3.960999
		c-2.518097-1.183601-3.586899-3.213806-2.658707-5.138702c0.939011-1.942299,3.1978-2.387604,5.712906-1.206001l8.443405,3.961899
		C170.810104,90.799797,171.910599,92.821297,170.977997,94.764603 M158.482407,88.068398
		c-0.485306-0.225601-0.934113-0.153397-1.152313,0.292c-0.205093,0.426704,0.013214,0.838806,0.496109,1.0625l8.806091,4.135704
		c0.485901,0.223602,0.969299,0.1465,1.174301-0.284203c0.215408-0.444298-0.039001-0.844696-0.5224-1.073196L158.482407,88.068398z
		"/>
	<path class="fill-primary" d="M171.816406,77.681602c-0.102005,2.024498-1.948212,3.2696-4.575211,3.168999l-8.898392-0.345703
		c-2.652405-0.101601-4.348709-1.486298-4.250504-3.5112c0.101105-2.047897,1.923798-3.272499,4.574707-3.171394l8.900894,0.346199
		C170.197296,74.269997,171.916504,75.6362,171.816406,77.681602 M158.335907,76.443802
		c-0.510712-0.0214-0.879807,0.210999-0.901306,0.677299c-0.022995,0.453102,0.320801,0.730499,0.830505,0.748001l9.280289,0.359398
		c0.510803,0.019501,0.909698-0.227501,0.929199-0.678703c0.023407-0.467796-0.347595-0.726097-0.857391-0.747597
		L158.335907,76.443802z"/>
	<path class="fill-primary" d="M179.744095,107.3535c-0.835892,1.650398-2.354492,2.236298-3.789993,1.525398l-4.863297-2.400398
		c-1.446808-0.713898-1.865204-2.261703-1.030304-3.913101c0.844803-1.665001,2.340393-2.247002,3.786194-1.529297
		l4.863312,2.406296C180.147507,104.149399,180.588394,105.683601,179.744095,107.3535 M172.651398,103.121101
		c-0.274902-0.135704-0.573792-0.035202-0.765198,0.347702c-0.186493,0.365196-0.102005,0.677696,0.175797,0.8144l5.075699,2.507797
		c0.276901,0.134796,0.592804,0.026398,0.780807-0.340797c0.195297-0.383804,0.084396-0.6856-0.194901-0.820305
		L172.651398,103.121101z"/>
	<path class="fill-primary" d="M5.5444,68.727097c-0.4912-2.337898,0.7583-4.198296,3.0708-4.707596l7.833-1.735802
		c2.3326-0.5191,4.203199,0.654301,4.6954,2.987801c0.497,2.355904-0.7369,4.191399-3.0704,4.710403l-7.8295,1.734398
		C7.9292,72.227501,6.0444,71.084503,5.5444,68.727097 M17.6157,66.913597c0.4468-0.102097,0.7022-0.449699,0.5884-0.991196
		c-0.1138-0.521004-0.4893-0.75-0.935999-0.656303L9.0977,67.079597C8.6499,67.179199,8.377,67.557098,8.4858,68.0737
		c0.1138,0.541496,0.5098,0.745102,0.9585,0.651398L17.6157,66.913597z"/>
	<path class="fill-primary" d="M176.5,69.833504c-0.041,1.022499-0.6548,1.664497-1.518097,1.624496l-2.924805-0.130402
		c-0.870102-0.036598-1.421799-0.7295-1.376892-1.757797c0.042496-1.038101,0.649399-1.664505,1.519501-1.627899l2.924286,0.129395
		C175.987305,68.108398,176.547394,68.7939,176.5,69.833504 M172.076706,69.2715
		c-0.170013-0.007797-0.292511,0.109802-0.302307,0.348099c-0.008804,0.2276,0.104996,0.366699,0.270996,0.372101l3.050308,0.136703
		c0.166992,0.007294,0.299301-0.116699,0.310593-0.350601c0.009705-0.235802-0.114288-0.3657-0.279297-0.372505L172.076706,69.2715z
		"/>
	<path class="fill-accent" d="M130.988297,40.428699c19.211899,16.0816,25.582001,40.109402,14.23291,53.670902
		c-11.349106,13.5625-36.124504,11.515594-55.335464-4.5625C70.673302,73.455597,64.298798,49.4272,75.650398,35.8633
		C87.000977,22.3071,111.774902,24.348101,130.988297,40.428699"/>
	<path class="fill-primary" d="M182.472198,81.016602c-4.519592-22.0098-19.473694-41.481403-34.713394-55.591801
		C132.520996,11.3154,125.042,7.7871,114.319298,3.8364c-10.724594-3.9507-24.130341-3.81-33.442299-2.5405
		C73.584,2.291,57.171902,7.6465,47.576698,16.6777C37.110401,26.5229,22.691401,31.617701,17.6621,35.868698
		c-22.7153,19.187901-16.9536,63.8881-15.2368,71.111801c3.9482,16.651299,11.146,34.430603,31.039501,51.361298
		c22.9585,19.539108,59.292522,22.160202,77.890701,18.064499c26.243607-5.788101,48.679703-20.46199,58.839798-36.266693
		C180.354004,124.339798,186.986801,103.030296,182.472198,81.016602 M138.725601,160.882797
		C98.919922,183.425797,50.645,168.2061,24.887199,137.213898C4.1372,112.240196-6.8604,55.6777,24.440399,36.7075
		C47.321301,22.8384,51.1348,14.4155,66.525398,8.0298c26.813957-11.126,57.5923-8.814501,90.724098,28.6777
		C191.349594,75.294403,190.448196,131.589798,138.725601,160.882797"/>
</svg>