<svg aria-hidden="true" xmlns="http://www.w3.org/2000/svg" viewBox="-7 -7 526 526">
    <style>
        .fill-accent-lighter{fill:#ffe182}.fill-accent-lightest{fill:#fff0c0}.stroke-accent{stroke:#ffc306}.home-scene-feature-icon{stroke-width:14px}
    </style>
    <link xmlns="http://www.w3.org/1999/xhtml" rel="stylesheet" href="/images.css" type="text/css"/>
    <path class="home-scene-feature-icon fill-accent-lighter stroke-accent" d="M0 168v-16c0-13.255 10.745-24 24-24h360V80c0-21.367 25.899-32.042 40.971-16.971l80 80c9.372 9.373 9.372 24.569 0 33.941l-80 80C409.956 271.982 384 261.456 384 240v-48H24c-13.255 0-24-10.745-24-24z"/>
    <path class="home-scene-feature-icon fill-accent-lightest stroke-accent" d="M488 320H128v-48c0-21.314-25.862-32.08-40.971-16.971l-80 80c-9.372 9.373-9.372 24.569 0 33.941l80 80C102.057 463.997 128 453.437 128 432v-48h360c13.255 0 24-10.745 24-24v-16c0-13.255-10.745-24-24-24z"/>
</svg>
