<?xml version="1.0" encoding="UTF-8" standalone="no"?>
<svg
   xmlns:svg="http://www.w3.org/2000/svg"
   xmlns="http://www.w3.org/2000/svg"
   version="1.1"
   viewBox="0 0 40.35553 46.598572"
   xml:space="preserve"
   >
   <style type="text/css">
      .fill-primary { fill: #1890ff; }
      .fill-primary-light { fill: #51abff; }
   </style>
   <link xmlns="http://www.w3.org/1999/xhtml" rel="stylesheet" href="/images.css" type="text/css"/>
<g
   transform="translate(0,-8.700195)">
	<path
      class="fill-primary"
      d="m 21.993225,31.340759 c -0.355042,-0.207947 -0.825195,-0.313477 -1.398499,-0.313477 -0.75,0 -1.405701,0.237305 -2.00531,0.726624 -0.645142,0.524353 -1.158691,1.240173 -1.52594,2.125977 -0.380859,0.916992 -0.573792,1.920898 -0.573792,2.982422 0,0.99408 0.178833,1.74115 0.516235,2.163086 0.301208,0.376892 0.680054,0.544922 1.22699,0.544922 1.066895,0 1.960876,-0.66803 2.734375,-2.04303 0.839294,-1.49408 1.459534,-3.333008 1.845215,-5.469727 -0.253417,-0.304687 -0.528319,-0.544861 -0.819274,-0.716797 z"
      />
	<path
      class="fill-primary"
      d="M 20.177673,8.700195 0,20.350586 V 43.650391 L 20.177673,55.298767 40.35553,43.650391 V 20.350586 Z m 8.042054,27.416993 c -0.800842,2.484375 -2.072754,4.580078 -3.779846,6.228516 -1.779297,1.716797 -4.013062,2.588867 -6.639587,2.588867 -2.482422,0 -4.383301,-0.734375 -5.649414,-2.182556 -1.231995,-1.411255 -1.856995,-3.302856 -1.856995,-5.623108 0,-2.016602 0.386841,-3.909241 1.149902,-5.624023 0.776917,-1.749023 1.902893,-3.169922 3.347717,-4.22168 1.474609,-1.075195 3.191895,-1.619629 5.10498,-1.619629 1.188904,0 2.251038,0.22998 3.177246,0.686035 -0.124023,-0.619629 -0.338806,-1.135742 -0.641113,-1.542542 -0.450745,-0.605408 -1.193298,-0.899902 -2.270508,-0.899902 -1.151794,0 -2.451233,0.347229 -3.861328,1.031799 l -1.415466,0.6875 v -5.798401 l 0.617065,-0.248962 c 1.707642,-0.6875 3.499146,-1.036133 5.325745,-1.036133 3.049805,0 5.283203,0.955017 6.638672,2.838806 1.282227,1.783203 1.932129,4.249084 1.932129,7.330139 0,2.485352 -0.396912,4.976563 -1.179199,7.405274 z"
      />
</g>
<g
   transform="translate(0,-8.700195)">
	<path
      class="fill-primary-light"
      d="m 22.8125,32.057556 c -0.253418,-0.304688 -0.52832,-0.544861 -0.819275,-0.716797 -0.355042,-0.207947 -0.825195,-0.313477 -1.398499,-0.313477 -0.143372,0 -0.280334,0.01672 -0.417053,0.03418 v 7.569275 c 0.276428,-0.297729 0.540039,-0.659851 0.789612,-1.103455 0.839295,-1.494079 1.459534,-3.333007 1.845215,-5.469726 z"
      />
	<path
      class="fill-primary-light"
      d="m 22.432617,24.807068 c -0.448364,-0.602234 -1.18689,-0.895691 -2.254944,-0.898743 v 1.769165 c 1.073669,0.03424 2.044861,0.252991 2.896057,0.672119 -0.124023,-0.619629 -0.338806,-1.135742 -0.641113,-1.542541 z"
      />
	<path
      class="fill-primary-light"
      d="m 20.177673,8.700195 v 9.873901 c 0.216919,-0.0099 0.432495,-0.03113 0.650452,-0.03113 3.049805,0 5.283203,0.955017 6.638672,2.838806 1.282227,1.783203 1.932129,4.249084 1.932129,7.330139 0,2.485352 -0.396912,4.976563 -1.179199,7.405273 -0.800842,2.484375 -2.072754,4.580078 -3.779846,6.228516 -1.21405,1.171448 -2.644531,1.939514 -4.262207,2.315674 v 10.63739 L 40.35553,43.650391 V 20.350586 Z"
      />
</g>
</svg>