<svg xmlns="http://www.w3.org/2000/svg" viewBox="0 0 40.356 46.599">
    <style>
        .fill-primary{fill:#1890ff}.fill-primary-light{fill:#51abff}
    </style>
    <link xmlns="http://www.w3.org/1999/xhtml" rel="preload" href="/images.css" as="style"/>
    <link xmlns="http://www.w3.org/1999/xhtml" rel="stylesheet" href="/images.css" type="text/css"/>
    <path class="fill-primary" d="M21.993 22.64c-.355-.207-.825-.313-1.398-.313-.75 0-1.406.237-2.006.727-.645.524-1.158 1.24-1.526 2.126a7.735 7.735 0 00-.573 2.982c0 .994.179 1.741.516 2.163.301.377.68.545 1.227.545 1.067 0 1.96-.668 2.734-2.043.84-1.494 1.46-3.333 1.845-5.47a3.188 3.188 0 00-.819-.716z"/>
    <path class="fill-primary" d="M20.178 0L0 11.65v23.3L20.178 46.6l20.178-11.65v-23.3zm8.042 27.417c-.801 2.484-2.073 4.58-3.78 6.229-1.78 1.716-4.013 2.588-6.64 2.588-2.482 0-4.383-.734-5.65-2.182-1.231-1.411-1.856-3.303-1.856-5.623 0-2.017.387-3.91 1.15-5.624.777-1.75 1.903-3.17 3.348-4.222 1.474-1.075 3.191-1.62 5.104-1.62 1.19 0 2.252.23 3.178.686-.124-.62-.34-1.135-.641-1.542-.451-.606-1.194-.9-2.27-.9-1.153 0-2.452.347-3.862 1.032l-1.416.687v-5.798l.617-.25a14.197 14.197 0 015.326-1.035c3.05 0 5.283.955 6.639 2.839 1.282 1.783 1.932 4.249 1.932 7.33a24.13 24.13 0 01-1.18 7.405z"/>
    <path class="fill-primary-light" d="M22.813 23.357a3.188 3.188 0 00-.82-.716c-.355-.208-.825-.314-1.398-.314-.144 0-.28.017-.417.034v7.57c.276-.298.54-.66.79-1.104.839-1.494 1.459-3.333 1.844-5.47zm-.38-7.25c-.449-.602-1.187-.896-2.255-.899v1.77c1.073.034 2.045.252 2.896.671-.124-.62-.34-1.135-.641-1.542z"/>
    <path class="fill-primary-light" d="M20.178 0v9.874c.217-.01.432-.031.65-.031 3.05 0 5.283.955 6.639 2.839 1.282 1.783 1.932 4.249 1.932 7.33a24.13 24.13 0 01-1.18 7.405c-.8 2.484-2.072 4.58-3.78 6.229a8.964 8.964 0 01-4.261 2.315V46.6l20.178-11.65v-23.3z"/>
</svg>
