<?xml version="1.0" encoding="utf-8"?>
<!-- Generator: Adobe Illustrator 24.0.2, SVG Export Plug-In . SVG Version: 6.00 Build 0)  -->
<svg version="1.1" id="Layer_1" xmlns="http://www.w3.org/2000/svg" xmlns:xlink="http://www.w3.org/1999/xlink" x="0px" y="0px"
	 viewBox="0 0 526 526" style="enable-background:new 0 0 526 526;" xml:space="preserve">
<style type="text/css">
	.st0{fill:#FFE182;stroke:#FFC306;stroke-width:14;}
	.st1{fill:#fff0c0;stroke:#FFC306;stroke-width:14;}
</style>
<g>
	<g>
		<path class="st0" d="M447.536041,275.777161l57.57251-99.718857c3.953796-6.846329,3.953796-15.281509,0-22.127838
			l-25.446106-44.076408c-9.419006,11.585388-22.083008,20.421852-36.595551,25.125267l17.328674,29.709518l-50.79541,87.676163
			h-41.118713c2.221344,7.375931,3.421143,14.914841,3.421143,22.83876c0,7.94223-1.204895,15.515747-3.435364,22.891693h41.132935
			l53.989441,93.754578l3.194,5.654694c6.109924,10.584198,19.6427,14.270111,30.224854,8.160156
			c10.585236-6.109924,14.210052-19.612152,8.100098-30.19635L447.536041,275.777161z"/>
	</g>
</g>
<g>
	<g>
		<path class="st0" d="M43.720898,446.263123l-22.827541,39.543121c-6.11301,10.58316-2.487165,24.115936,8.097038,30.225861
			C32.474667,518.044678,36.278748,519,40.031906,519c7.646862,0,15.084938-3.968079,19.184383-11.066956l10.644299-18.437836
			l11.543633-19.99411C66.668625,465.50354,53.649193,457.305634,43.720898,446.263123z"/>
	</g>
</g>
<g>
	<g>
		<path class="st0" d="M59.217308,49.597813c-6.109955-10.585224-19.644741-14.208012-30.225891-8.099079
			c-10.584206,6.109955-14.21005,19.642704-8.09704,30.225891l26.033766,45.09491
			c10.215508-10.732903,23.432529-18.576332,38.299503-22.169586L59.217308,49.597813z"/>
	</g>
</g>
<g>
	<g>
		<path class="st0" d="M346.096924,32.56551h-50.86264c-7.905548,0-15.210205,4.543507-19.161957,11.389835l-60.51799,105.147453
			h-36.809448c2.071625,5.900146,3.204178,14.443283,3.204178,22.126816c0,7.684555-1.134598,14.751892-3.2052,22.127838h39.247726
			l18.290146,31.450119c10.644302-12.075287,24.975555-20.929062,41.218536-24.559998l-20.287445-35.292923l50.796448-88.134483
			h34.651276c-1.129547-4.425362-1.736542-10.743095-1.736542-16.350929
			C340.925018,50.640751,342.767487,41.416237,346.096924,32.56551z"/>
	</g>
</g>
<g>
	<g>
		<path class="st0" d="M239.950348,330.844147l-21.958755,38.056061h-42.159607
			c2.702072,7.375946,4.192139,16.384552,4.192139,25.202667c0,6.570313-0.824982,13.150818-2.359863,19.051971h53.102325
			c7.905548,0,15.21022-4.23999,19.161972-11.086334l29.067871-50.345245
			C263.948151,348.675995,250.472443,341.250122,239.950348,330.844147z"/>
	</g>
</g>
<g>
	<g>
		<path class="st0" d="M65.603271,280.877777l19.624374-33.989243c-14.864944-3.593246-28.082973-11.436691-38.299503-22.169586
			l-26.033766,45.094894c-3.954819,6.846313-3.954819,15.281525,0,22.126831l26.577642,46.034973
			c10.619854-10.301056,24.135288-17.624054,39.204952-20.600098L65.603271,280.877777z"/>
	</g>
</g>
<g>
	<g>
		<path class="st1" d="M103.623863,117.108536c-29.589485,0-53.660862,24.07225-53.660862,53.660858
			s24.072239,53.662613,53.660862,53.662613c29.590355,0,53.662605-24.07312,53.662605-53.662598
			C157.286469,141.180771,133.214218,117.108536,103.623863,117.108536z"/>
	</g>
</g>
<g>
	<g>
		<path class="st1" d="M294.454285,222.789673c-29.588623,0-53.660873,24.072235-53.660873,53.660858
			c0,29.588654,24.07225,53.662598,53.660873,53.662598c29.590332,0,53.662598-24.07312,53.662598-53.662598
			S324.044617,222.789673,294.454285,222.789673z"/>
	</g>
</g>
<g>
	<g>
		<path class="st1" d="M419.041473,7c-29.590363,0-53.662598,24.072245-53.662598,53.660866
			c0,29.590347,24.072235,53.66259,53.662598,53.66259c29.589447,0,53.660858-24.073105,53.660858-53.66259
			C472.701447,31.072245,448.629181,7,419.041473,7z"/>
	</g>
</g>
<g>
	<g>
		<path class="st1" d="M101.849495,340.396515c-29.590355,0-53.662594,24.07312-53.662594,53.662598
			c0,29.588623,24.072239,53.662598,53.662594,53.662598s53.66259-24.07312,53.66259-53.662598
			S131.43985,340.396515,101.849495,340.396515z"/>
	</g>
</g>
</svg>
