<svg xmlns="http://www.w3.org/2000/svg" viewBox="0 0 526 526">
    <style>
        .fill-accent-lighter{fill:#ffe182}.fill-accent-lightest{fill:#fff0c0}.stroke-accent{stroke:#ffc306}.home-scene-feature-icon{stroke-width:14px}
    </style>
    <link xmlns="http://www.w3.org/1999/xhtml" rel="preload" href="/images.css" as="style"/>
    <link xmlns="http://www.w3.org/1999/xhtml" rel="stylesheet" href="/images.css" type="text/css"/>
    <path class="home-scene-feature-icon fill-accent-lighter stroke-accent" d="M447.536 275.777l57.573-99.719a22.123 22.123 0 000-22.128l-25.447-44.076c-9.419 11.585-22.083 20.422-36.595 25.125l17.329 29.71-50.796 87.676h-41.119c2.222 7.376 3.422 14.915 3.422 22.839 0 7.942-1.205 15.516-3.436 22.891H409.6l53.99 93.755 3.194 5.655c6.11 10.584 19.642 14.27 30.224 8.16 10.586-6.11 14.21-19.612 8.1-30.196l-57.572-99.692zM43.72 446.263l-22.827 39.543c-6.113 10.583-2.487 24.116 8.097 30.226A22.014 22.014 0 0040.032 519c7.647 0 15.085-3.968 19.184-11.067l10.645-18.438 11.543-19.994c-14.735-3.997-27.755-12.195-37.683-23.238zM59.217 49.598c-6.11-10.585-19.644-14.208-30.226-8.1-10.584 6.11-14.21 19.643-8.097 30.227l26.034 45.095c10.216-10.733 23.433-18.577 38.3-22.17l-26.01-45.052zm286.88-17.032h-50.863c-7.905 0-15.21 4.543-19.162 11.39l-60.518 105.147h-36.81c2.073 5.9 3.205 14.443 3.205 22.127 0 7.684-1.135 14.752-3.205 22.127h39.248l18.29 31.45c10.644-12.075 24.975-20.928 41.218-24.56l-20.287-35.292 50.796-88.135h34.652c-1.13-4.425-1.737-10.743-1.737-16.35.001-9.83 1.843-19.054 5.173-27.904zM239.95 330.844L217.992 368.9h-42.16c2.702 7.376 4.192 16.385 4.192 25.203 0 6.57-.825 13.15-2.36 19.052h53.103c7.905 0 15.21-4.24 19.162-11.086l29.067-50.346c-15.048-3.047-28.524-10.473-39.046-20.879zM65.603 280.878l19.625-33.99c-14.865-3.593-28.083-11.436-38.3-22.17l-26.034 45.096a22.116 22.116 0 000 22.127l26.578 46.035c10.62-10.301 24.135-17.624 39.205-20.6l-21.074-36.498z"/>
    <path class="home-scene-feature-icon fill-accent-lightest stroke-accent" d="M103.624 117.109c-29.59 0-53.661 24.072-53.661 53.66s24.072 53.663 53.66 53.663c29.591 0 53.663-24.073 53.663-53.663 0-29.588-24.072-53.66-53.662-53.66zm190.83 105.681c-29.588 0-53.66 24.072-53.66 53.66 0 29.59 24.072 53.663 53.66 53.663 29.59 0 53.663-24.073 53.663-53.662s-24.072-53.661-53.663-53.661zM419.041 7c-29.59 0-53.662 24.072-53.662 53.66 0 29.591 24.072 53.663 53.662 53.663s53.661-24.073 53.661-53.662S448.63 7 419.042 7zM101.85 340.397c-29.59 0-53.663 24.073-53.663 53.662s24.072 53.663 53.662 53.663 53.663-24.073 53.663-53.663-24.072-53.662-53.663-53.662z"/>
</svg>
