<?xml version="1.0" encoding="utf-8"?>
<!-- Generator: Adobe Illustrator 24.0.2, SVG Export Plug-In . SVG Version: 6.00 Build 0)  -->
<svg version="1.1" id="Layer_1_1_" xmlns="http://www.w3.org/2000/svg" xmlns:xlink="http://www.w3.org/1999/xlink" x="0px" y="0px"
	 viewBox="0 0 526 526" style="enable-background:new 0 0 526 526;" xml:space="preserve">
<style type="text/css">
	.st0{fill:#FFE182;}
	.st1{fill:#FFC306;}
</style>
<path class="st0" d="M131.5,368.200012c0,9.906342-2.279343,19.198975-6.487328,27.439667
	c-9.994003,20.16333-30.858673,33.927002-54.879341,33.927002c-33.926998,0-61.366665-27.439697-61.366665-61.366669
	s27.439667-61.366669,61.366665-61.366669c12.361,0,23.757668,3.59433,33.313339,9.818634
	C120.366341,327.610321,131.5,346.546326,131.5,368.200012z"/>
<path class="st0" d="M309.551025,415.978333c9.292664,10.695343,14.815643,24.634338,14.815643,39.888336
	c0,33.927002-27.439667,61.366669-61.366669,61.366669s-61.366669-27.439667-61.366669-61.366669
	c0-7.101013,1.227325-13.851349,3.418991-20.16333c4.208008-12.360992,12.273331-22.793304,22.793335-30.157318
	c9.906326-7.013336,22.004349-11.04599,35.154343-11.04599c18.673004,0,35.417328,8.328339,46.551025,21.478333V415.978333z"/>
<path class="st0" d="M455.866669,201.633331c33.927002,0,61.366669,27.439682,61.366669,61.366669
	s-27.439667,61.366669-61.366669,61.366669c-16.481354,0-31.384674-6.399658-42.343018-17.095001
	C401.776306,296.225677,394.5,280.445648,394.5,263c0-2.805328,0.175323-5.52298,0.613678-8.240677
	c1.753326-13.675995,8.065308-25.861664,17.357971-35.154327C423.605316,208.471329,438.859314,201.633331,455.866669,201.633331z"
	/>
<path class="st0" d="M323.752991,244.940674C319.807983,274.922668,294.121674,298.066681,263,298.066681
	c-33.926987,0-61.366669-27.439697-61.366669-61.366684c0-9.906326,2.279343-19.199005,6.487335-27.439667
	C218.114655,189.097,238.97934,175.333328,263,175.333328c33.927002,0,61.366669,27.439682,61.366669,61.366669
	C324.366669,239.505325,324.191315,242.222992,323.752991,244.940674z"/>
<path class="st0" d="M263,8.766666c33.927002,0,61.366669,27.439667,61.366669,61.366665
	c0,17.007339-6.837982,32.261337-17.971649,43.394997C295.261322,124.661995,280.007355,131.5,263,131.5
	c-12.360992,0-23.75766-3.59433-33.313324-9.818665c-11.133667-7.188667-19.812668-17.884003-24.371338-30.595665
	c-2.367004-6.487335-3.682007-13.588333-3.682007-20.952339C201.633331,36.206333,229.073013,8.766666,263,8.766666z"/>
<path class="st0" d="M127.818001,119.314331c2.366997,6.487335,3.681999,13.588333,3.681999,20.952332
	c0,9.906326-2.279343,19.199005-6.487328,27.439682c-5.26001,10.520004-13.413002,19.286667-23.494675,25.248001
	c-9.117332,5.522995-19.900337,8.679001-31.384666,8.679001c-33.926998,0-61.366665-27.439651-61.366665-61.366669
	s27.439667-61.366661,61.366665-61.366661c26.562996,0,49.093338,16.832001,57.684669,40.414337V119.314331z"/>
<path class="st1" d="M100.501068,305.079987c-9.205002-4.444702-19.479538-7.013306-30.367737-7.013306
	C31.463568,298.066681,0,329.530243,0,368.200012s31.463564,70.133331,70.133331,70.133331
	c24.266129,0,45.683105-12.396088,58.280792-31.183044l66.249695,33.164307
	c-1.139664,5.005768-1.797165,10.204437-1.797165,15.552063c0,38.669769,31.463562,70.133331,70.133316,70.133331
	s70.133362-31.463562,70.133362-70.133331c0-14.535156-4.444702-28.044586-12.054169-39.257141l93.093231-97.336304
	c11.677216,8.661469,26.072052,13.860107,41.694275,13.860107C494.536438,333.133331,526,301.669769,526,263
	s-31.463562-70.133331-70.133331-70.133331c-16.183289,0-31.051544,5.558075-42.939117,14.798126l-94.592346-94.592331
	c9.240082-11.887596,14.798126-26.755867,14.798126-42.939133C333.133331,31.463568,301.669769,0,263,0
	s-70.133331,31.463564-70.133331,70.133331c0,5.330132,0.648727,10.511238,1.788406,15.508232l-62.173218,22.653076
	c-11.650902-22.62677-35.198158-38.161308-62.348526-38.161308C31.463568,70.133331,0,101.596901,0,140.266663
	s31.463564,70.133331,70.133331,70.133331c9.976471,0,19.453232-2.121536,28.053337-5.899963l32.270103,54.309509
	L100.501068,305.079987z M70.133331,420.799988c-29.0089,0-52.599998-23.591095-52.599998-52.599976
	s23.591099-52.600006,52.599998-52.600006s52.599998,23.591125,52.599998,52.600006S99.142235,420.799988,70.133331,420.799988z
	 M136.225235,391.44043c2.568619-7.285095,4.041428-15.087433,4.041428-23.240417
	c0-21.504639-9.74852-40.756256-25.028824-53.625732l25.212921-38.941528l76.015762,127.914429
	c-6.399658,5.698334-11.756088,12.518799-15.727402,20.189636L136.225235,391.44043z M263,140.266678
	c16.183258,0,31.051544-5.558075,42.939117-14.798126l94.601105,94.601105c-5.672028,7.293869-9.9151,15.718628-12.360992,24.888565
	l-55.072205-7.574402c-0.008759-0.227921,0.026276-0.455856,0.026276-0.683792c0-38.669754-31.463562-70.133331-70.133331-70.133331
	c-24.266129,0-45.691864,12.396072-58.280792,31.183029l-10.458633-5.224945l38.380463-59.271423
	c9.196228,4.444702,19.470764,7.013321,30.358963,7.013321H263z M271.766663,386.338226v-80.118561
	c28.491669-3.576813,51.670746-24.283661,58.929535-51.477859l55.072205,7.574387c0,0.227936-0.035065,0.455872-0.035065,0.683807
	c0,16.744324,5.908722,32.112305,15.736145,44.184021l-92.049988,96.249207
	C299.101105,394.289612,286.117676,388.144165,271.766663,386.338226z M263,184.100006
	c29.008881,0,52.600006,23.591095,52.600006,52.599991S292.008881,289.299988,263,289.299988
	s-52.600006-23.591095-52.600006-52.599991S233.991104,184.100006,263,184.100006z M196.908096,213.459564
	c-2.568619,7.285095-4.041428,15.087433-4.041428,23.240433c0,35.697861,26.825989,65.18895,61.366669,69.528427v80.118561
	c-8.310806,1.043243-16.156967,3.53299-23.301819,7.223755l-79.846786-134.366699l33.585083-51.863602L196.908096,213.459564z
	 M263,508.466675c-29.008896,0-52.600006-23.591125-52.600006-52.600006S233.991104,403.266663,263,403.266663
	s52.600006,23.591125,52.600006,52.600006S292.008881,508.466675,263,508.466675z M455.866669,210.399994
	c29.008881,0,52.600006,23.59111,52.600006,52.600006s-23.591125,52.600006-52.600006,52.600006
	S403.266663,292.008881,403.266663,263S426.857788,210.399994,455.866669,210.399994z M263,17.533333
	c29.008881,0,52.600006,23.591099,52.600006,52.599998S292.008881,122.73333,263,122.73333
	s-52.600006-23.591095-52.600006-52.599998S233.991104,17.533333,263,17.533333z M200.660233,102.10537
	c4.286896,8.319572,10.15181,15.674797,17.244019,21.653671l-39.414932,60.87574l-42.255325-21.12767
	c2.55986-7.285095,4.032654-15.087448,4.032654-23.240448c0-5.330124-0.648727-10.51123-1.788406-15.50824L200.660233,102.10537z
	 M17.533333,140.266663c0-29.008896,23.591099-52.599998,52.599998-52.599998s52.599998,23.591103,52.599998,52.599998
	s-23.591095,52.600006-52.599998,52.600006S17.533333,169.275574,17.533333,140.266663z M113.221497,195.4879
	c5.873672-4.593735,11.028473-10.064148,15.192642-16.27092l40.475708,20.233459l-27.799103,42.930374L113.221497,195.4879z"/>
</svg>
