<?xml version="1.0" encoding="utf-8"?>
<svg version="1.1" xmlns="http://www.w3.org/2000/svg"
	 viewBox="0 0 498.893616 526" xml:space="preserve">
<style type="text/css">
.fill-none { fill: none; }
.fill-accent-lighter { fill: #ffe182; }
.fill-accent-lightest { fill: #fff0c0; }
.stroke-accent { stroke: #ffc306; }
.home-scene-feature-icon { stroke-width: 14px; }
</style>
<link xmlns="http://www.w3.org/1999/xhtml" rel="stylesheet" href="/images.css" type="text/css"/>
<path class="fill-accent-lighter" d="M477.078461,96.507599c-5.910492-3.410095-14.055908-4.653801-22.175995-4.594101
	c-6.876495,0.0597-13.732208,1.078201-19.123993,2.595901c-13.806305,3.845398-27.728302,7.659897-41.092102,12.720802
	c-10.192505,3.810898-20.367706,7.582901-30.553009,11.351997c-15.604492-22.270897-32.319489-44.749298-50.67749-66.1492
	c-0.744507-0.8218-2.634125-2.6306-5.2789-4.983799c-2.529114-4.295399-6.314819-8.127201-9.728607-11.4743
	c-15.40451-15.1623-34.251495-26.464489-56.121796-27.739418c-28.5224-1.65074-60.831207,8.08862-80.440002,29.323418
	c-3.533203,3.845802-6.655609,8.046402-9.293304,12.619301c-1.945694,3.406898-3.624603,6.904999-5.169601,10.494499
	c-13.00209,0.7234-24.287094,5.155899-34.528496,9.809601c-15.773499,7.2034-29.271194,15.534401-41.366898,25.4916
	c-26.8368,22.101898-76.727608,63.261696-59.9604,116.478294c6.704801,21.2948,19.239899,37.072006,30.324402,51.014816
	c1.506699,1.917694,3.002899,3.79718,4.460499,5.665192c-11.4673,6.606812-24.8734,11.664185-31.1392,24.195801
	c-4.0636,8.256897-4.162,17.424286-0.428499,25.252502c0.495299,3.066284,2.9468,5.647888,6.0937,8.432983
	c0.993999,0.934418,2.008999,1.783905,3.041599,2.514709c11.650002,8.538116,27.640999,8.021606,41.264797,7.308807
	l1.503304-0.076996c11.031502-0.316498,22.783394-0.650208,35.065399-1.148712
	c1.296196,1.324188,2.336296,2.514709,2.778694,3.340393c0.966003,1.798309,2.138504,3.421021,3.480705,4.885498
	c-2.0867,21.459625-4.264,42.922699-4.605003,64.595917c-0.312096,18.670898-1.450096,36.49939,5.373901,54.597687
	c4.586998,12.194305,12.296402,32.6073,33.140991,44.977112c16.581314,9.918365,39.365112,12.647369,60.831909,7.312408
	c36.912903-9.17041,47.30899-30.117126,49.577591-46.079803c0.555298-4.309998,0.5625-8.878998,0.098602-13.518524
	c8.471207,1.376801,16.820114,1.917725,24.929489,1.376801c24.891327-1.619171,45.346008-13.887482,57.635223-34.552979
	c7.333282-12.233093,12.658295-33.106506,8.1698-51.401093c-2.304626-13.118622-7.867706-26.338623-17.747223-35.234924
	c-7.590088-6.855591-14.129883-14.719696-22.127075-20.174194c11.755493-1.306183,23.426086-2.76709,35.167999-4.857391
	c10.869995-1.959412,22.066589-3.835297,32.687775-6.760712c13.07251-3.638885,28.554016-8.896301,38.325012-18.660004
	c5.770905-5.806183,11.238983-13.8703,12.8862-22.337891c8.36261-17.940704,6.659302-39.568604-5.475311-60.188797
	l-9.338684-16.451096c-2.121918-3.758301-4.260406-7.579208-6.438416-11.410904
	c3.79361-1.257401,7.579315-2.542709,11.35202-3.891403c19.797974-7.147705,44.095184-11.969894,60.623901-25.228699
	c7.013885-5.601898,17.44519-15.878601,17.574677-25.420799C490.71994,111.835197,484.658356,100.922699,477.078461,96.507599z
	 M240.391663,55.804699c4.678299,0.2705,9.1315,1.882603,13.223602,4.263802c1.895996,2.2444,5.408386,3.979397,7.273499,5.574001
	c5.998993,5.176895,11.4599,11.3937,16.622986,17.4272c14.54422,16.935898,28.080017,34.7817,40.941803,52.749802
	c-13.560181,5.261703-27.085907,10.708893-40.460602,16.510803c-21.048798,9.14949-42.191895,17.996887-62.93869,27.795898
	c-8.769592,4.130188-17.367401,8.720795-25.965897,13.290497c2.901596-19.237,5.714798-38.508408,8.225906-57.811508
	c0.29129-2.272293,0.561691-4.544601,0.814896-6.79599c1.063904,0.193497,2.13559,0.386292,3.241898,0.505692
	c10.515503,1.194702,17.417099-5.822693,27.7146-5.212097c10.473694,0.604301,19.521103,7.874908,27.247803,14.505402
	c19.896484,17.104996,17.838593-8.158295,13.581787-23.373604c-4.857391-17.617096-15.008194-24.328896-32.67778-23.321098
	c-8.780518,0.495605-17.445114,1.363106-25.189804-3.705101c-2.707504-1.755798-5.250198-3.663399-7.7052-5.5811
	C209.010056,65.326302,219.374466,54.5755,240.391663,55.804699z M205.992569,360.196991
	c-0.7164,2.826813-1.211304,5.633514-1.713409,8.41861c-6.023392-6.28299-11.751892-12.847412-17.350189-19.446899
	c-4.253906-5.019287-9.388306-11.678589-14.92691-17.624298c0.034607-0.080597,0.034607-0.158295,0.031708-0.218018
	c10.911789-1.025696,21.8983-2.233398,32.708694-3.736694c7.761902-1.068176,15.566299-2.055084,23.419601-3.059204
	C216.69426,332.846985,209.494858,346.682007,205.992569,360.196991z M67.334671,166.383194
	c9.799095-12.805588,22.513397-23.251297,34.872391-33.468201c9.058105-7.438995,18.937706-13.490494,31.0867-19.029091
	c0.597-0.263199,1.1875-0.530106,1.734909-0.800606c-1.007706,7.972702-1.94931,15.8965-3.0448,23.672211
	c-3.424606,25.048798-5.879509,50.283997-10.115509,75.224289c-1.050201,5.7285-2.226196,11.309509-3.406601,16.865402
	c-7.663399,4.109299-15.327499,8.158997-23.166397,11.882095c-0.095001-0.095001-0.133797-0.193497-0.221596-0.274094
	c-8.661102-11.646103-16.651001-23.341904-24.683502-35.230499C61.876667,192.615402,57.647968,179.040695,67.334671,166.383194z
	 M196.573364,434.181213l3.399399,9.483185c1.956497,5.219299,5.563797,14.902496,5.117798,18.178894
	c-0.189896,1.464508-4.344604,4.664612-14.583099,7.192993c-8.843704,2.255005-19.274994,1.4263-24.774796-1.833496
	c-7.983505-4.762482-10.673706-12.489197-8.864609-21.202789c2.54921-12.373413,8.172699-23.359985,10.465805-35.964996
	c8.239609,7.031189,16.426605,13.195587,23.662003,18.575897c1.632904,1.222107,3.311691,2.447784,4.994095,3.614502
	C196.204361,432.874908,196.38707,433.548889,196.573364,434.181213z M220.610855,384.143097
	c-1.310486-9.384705,0.586304-19.63681,4.843109-27.6203c9.742905-18.456482,32.610794-21.143097,46.508408-6.3284
	c5.957275,6.3284,12.040375,12.808502,17.799774,19.134094c1.053802,1.162323,2.219727,2.606018,3.2771,4.246002
	c0.758911,2.905212,2.051514,5.711212,3.9375,8.278412c0.129425,0.551697,0.217224,1.264496,0.231628,2.13559
	c0.045288,2.609619-0.4776,6.283112-1.489014,9.444397c-1.036499,1.977295-2.184509,3.954712-2.943298,6.009003
	C274.856873,425.643097,238.010056,398.848511,220.610855,384.143097z M295.15686,261.826996
	c-29.456696,3.617401-58.76239,8.116608-88.110504,12.566895c-10.125595,1.545105-20.219498,3.041199-30.352295,4.505707
	c0.705704-5.334991,1.429306-10.648499,2.142807-15.955505c37.808487-18.291794,76.726898-32.396484,116.067612-47.354996
	c20.454681-7.765594,40.541077-16.405792,60.750488-24.602997c3.459076,5.865204,6.883698,11.864197,10.353577,18.150803
	l9.947205,17.427902c7.413818,12.580597,2.690216,17.167603,0.691315,19.126892
	c-0.758209,0.702805-1.401215,1.450897-2.015503,2.234207c-5.735718,2.082291-11.632507,2.936096-18.077515,3.638199
	C335.842651,253.837097,315.664856,259.287903,295.15686,261.826996z"/>
<path class="home-scene-feature-icon fill-none stroke-accent" d="M477.078461,96.507599c-5.910492-3.410095-14.055908-4.653801-22.175995-4.594101
	c-6.876495,0.0597-13.732208,1.078201-19.123993,2.595901c-13.806305,3.845398-27.728302,7.659897-41.092102,12.720802
	c-10.192505,3.810898-20.367706,7.582901-30.553009,11.351997c-15.604492-22.270897-32.319489-44.749298-50.67749-66.1492
	c-0.744507-0.8218-2.634125-2.6306-5.2789-4.983799c-2.529114-4.295399-6.314819-8.127201-9.728607-11.4743
	c-15.40451-15.1623-34.251495-26.464489-56.121796-27.739418c-28.5224-1.65074-60.831207,8.08862-80.440002,29.323418
	c-3.533203,3.845802-6.655609,8.046402-9.293304,12.619301c-1.945694,3.406898-3.624603,6.904999-5.169601,10.494499
	c-13.00209,0.7234-24.287094,5.155899-34.528496,9.809601c-15.773499,7.2034-29.271194,15.534401-41.366898,25.4916
	c-26.8368,22.101898-76.727608,63.261696-59.9604,116.478294c6.704801,21.2948,19.239899,37.072006,30.324402,51.014816
	c1.506699,1.917694,3.002899,3.79718,4.460499,5.665192c-11.4673,6.606812-24.8734,11.664185-31.1392,24.195801
	c-4.0636,8.256897-4.162,17.424286-0.428499,25.252502c0.495299,3.066284,2.9468,5.647888,6.0937,8.432983
	c0.993999,0.934418,2.008999,1.783905,3.041599,2.514709c11.650002,8.538116,27.640999,8.021606,41.264797,7.308807
	l1.503304-0.076996c11.031502-0.316498,22.783394-0.650208,35.065399-1.148712
	c1.296196,1.324188,2.336296,2.514709,2.778694,3.340393c0.966003,1.798309,2.138504,3.421021,3.480705,4.885498
	c-2.0867,21.459625-4.264,42.922699-4.605003,64.595917c-0.312096,18.670898-1.450096,36.49939,5.373901,54.597687
	c4.586998,12.194305,12.296402,32.6073,33.140991,44.977112c16.581314,9.918365,39.365112,12.647369,60.831909,7.312408
	c36.912903-9.17041,47.30899-30.117126,49.577591-46.079803c0.555298-4.309998,0.5625-8.878998,0.098602-13.518524
	c8.471207,1.376801,16.820114,1.917725,24.929489,1.376801c24.891327-1.619171,45.346008-13.887482,57.635223-34.552979
	c7.333282-12.233093,12.658295-33.106506,8.1698-51.401093c-2.304626-13.118622-7.867706-26.338623-17.747223-35.234924
	c-7.590088-6.855591-14.129883-14.719696-22.127075-20.174194c11.755493-1.306183,23.426086-2.76709,35.167999-4.857391
	c10.869995-1.959412,22.066589-3.835297,32.687775-6.760712c13.07251-3.638885,28.554016-8.896301,38.325012-18.660004
	c5.770905-5.806183,11.238983-13.8703,12.8862-22.337891c8.36261-17.940704,6.659302-39.568604-5.475311-60.188797
	l-9.338684-16.451096c-2.121918-3.758301-4.260406-7.579208-6.438416-11.410904
	c3.79361-1.257401,7.579315-2.542709,11.35202-3.891403c19.797974-7.147705,44.095184-11.969894,60.623901-25.228699
	c7.013885-5.601898,17.44519-15.878601,17.574677-25.420799C490.71994,111.835197,484.658356,100.922699,477.078461,96.507599z
	 M240.391663,55.804699c4.678299,0.2705,9.1315,1.882603,13.223602,4.263802c1.895996,2.2444,5.408386,3.979397,7.273499,5.574001
	c5.998993,5.176895,11.4599,11.3937,16.622986,17.4272c14.54422,16.935898,28.080017,34.7817,40.941803,52.749802
	c-13.560181,5.261703-27.085907,10.708893-40.460602,16.510803c-21.048798,9.14949-42.191895,17.996887-62.93869,27.795898
	c-8.769592,4.130188-17.367401,8.720795-25.965897,13.290497c2.901596-19.237,5.714798-38.508408,8.225906-57.811508
	c0.29129-2.272293,0.561691-4.544601,0.814896-6.79599c1.063904,0.193497,2.13559,0.386292,3.241898,0.505692
	c10.515503,1.194702,17.417099-5.822693,27.7146-5.212097c10.473694,0.604301,19.521103,7.874908,27.247803,14.505402
	c19.896484,17.104996,17.838593-8.158295,13.581787-23.373604c-4.857391-17.617096-15.008194-24.328896-32.67778-23.321098
	c-8.780518,0.495605-17.445114,1.363106-25.189804-3.705101c-2.707504-1.755798-5.250198-3.663399-7.7052-5.5811
	C209.010056,65.326302,219.374466,54.5755,240.391663,55.804699z M205.992569,360.196991
	c-0.7164,2.826813-1.211304,5.633514-1.713409,8.41861c-6.023392-6.28299-11.751892-12.847412-17.350189-19.446899
	c-4.253906-5.019287-9.388306-11.678589-14.92691-17.624298c0.034607-0.080597,0.034607-0.158295,0.031708-0.218018
	c10.911789-1.025696,21.8983-2.233398,32.708694-3.736694c7.761902-1.068176,15.566299-2.055084,23.419601-3.059204
	C216.69426,332.846985,209.494858,346.682007,205.992569,360.196991z M67.334671,166.383194
	c9.799095-12.805588,22.513397-23.251297,34.872391-33.468201c9.058105-7.438995,18.937706-13.490494,31.0867-19.029091
	c0.597-0.263199,1.1875-0.530106,1.734909-0.800606c-1.007706,7.972702-1.94931,15.8965-3.0448,23.672211
	c-3.424606,25.048798-5.879509,50.283997-10.115509,75.224289c-1.050201,5.7285-2.226196,11.309509-3.406601,16.865402
	c-7.663399,4.109299-15.327499,8.158997-23.166397,11.882095c-0.095001-0.095001-0.133797-0.193497-0.221596-0.274094
	c-8.661102-11.646103-16.651001-23.341904-24.683502-35.230499C61.876667,192.615402,57.647968,179.040695,67.334671,166.383194z
	 M196.573364,434.181213l3.399399,9.483185c1.956497,5.219299,5.563797,14.902496,5.117798,18.178894
	c-0.189896,1.464508-4.344604,4.664612-14.583099,7.192993c-8.843704,2.255005-19.274994,1.4263-24.774796-1.833496
	c-7.983505-4.762482-10.673706-12.489197-8.864609-21.202789c2.54921-12.373413,8.172699-23.359985,10.465805-35.964996
	c8.239609,7.031189,16.426605,13.195587,23.662003,18.575897c1.632904,1.222107,3.311691,2.447784,4.994095,3.614502
	C196.204361,432.874908,196.38707,433.548889,196.573364,434.181213z M220.610855,384.143097
	c-1.310486-9.384705,0.586304-19.63681,4.843109-27.6203c9.742905-18.456482,32.610794-21.143097,46.508408-6.3284
	c5.957275,6.3284,12.040375,12.808502,17.799774,19.134094c1.053802,1.162323,2.219727,2.606018,3.2771,4.246002
	c0.758911,2.905212,2.051514,5.711212,3.9375,8.278412c0.129425,0.551697,0.217224,1.264496,0.231628,2.13559
	c0.045288,2.609619-0.4776,6.283112-1.489014,9.444397c-1.036499,1.977295-2.184509,3.954712-2.943298,6.009003
	C274.856873,425.643097,238.010056,398.848511,220.610855,384.143097z M295.15686,261.826996
	c-29.456696,3.617401-58.76239,8.116608-88.110504,12.566895c-10.125595,1.545105-20.219498,3.041199-30.352295,4.505707
	c0.705704-5.334991,1.429306-10.648499,2.142807-15.955505c37.808487-18.291794,76.726898-32.396484,116.067612-47.354996
	c20.454681-7.765594,40.541077-16.405792,60.750488-24.602997c3.459076,5.865204,6.883698,11.864197,10.353577,18.150803
	l9.947205,17.427902c7.413818,12.580597,2.690216,17.167603,0.691315,19.126892
	c-0.758209,0.702805-1.401215,1.450897-2.015503,2.234207c-5.735718,2.082291-11.632507,2.936096-18.077515,3.638199
	C335.842651,253.837097,315.664856,259.287903,295.15686,261.826996z"/>
<g>
	<path class="home-scene-feature-icon fill-none stroke-accent" d="M46.352768,269.132202c0,0,45.792,59.349396,55.4011,66.479095"/>
	<line class="home-scene-feature-icon fill-none stroke-accent" x1="95.291763" y1="240.722107" x2="114.197762" y2="264.605011"/>
	<path class="home-scene-feature-icon fill-none stroke-accent" d="M108.013268,343.837189c0,0,6.314697-93.659882,10.448494-114.98999"/>
	<path class="home-scene-feature-icon fill-none stroke-accent" d="M167.333862,410.035004c0,0,5.152298-50.828491,4.702805-78.490601l4.657394-52.644806l12.394302-85.482895"/>
	<path class="home-scene-feature-icon fill-none stroke-accent" d="M198.129166,128.809204c0,0,3.701599-38.834206,6.213303-46.181908"/>
	<path class="home-scene-feature-icon fill-none stroke-accent" d="M135.028671,113.085297c0,0,4.548187-31.290199,12.394989-52.412598"/>
	<path class="home-scene-feature-icon fill-none stroke-accent" d="M228.162064,324.530487c0,0,44.538284-29.506378,75.12941-8.794891"/>
	<path class="home-scene-feature-icon fill-none stroke-accent" d="M205.012863,364.976715c-0.628601,5.457977-2.904495,11.460571-4.340897,16.760376
		c-1.475311,5.532104-5.201309,8.931519-7.40741,13.911896c-3.108093,7.034821-2.497391,15.274414-1.091888,22.685303
		c1.397598,7.073608,5.222092,13.865906,6.195297,20.883423"/>
	<path class="home-scene-feature-icon fill-none stroke-accent" d="M219.957764,380.468994c0.248901,14.54422,9.830704,22.23642,17.251709,33.731506
		c4.235886,6.508209,8.509995,12.630188,11.354782,19.938995c2.760712,6.880096,3.434708,13.757294,4.446701,20.950317"/>
</g>
</svg>
