<svg xmlns="http://www.w3.org/2000/svg" viewBox="0 0 498.894 526">
    <style>
        .fill-none{fill:none}.fill-accent-lighter{fill:#ffe182}.stroke-accent{stroke:#ffc306}.home-scene-feature-icon{stroke-width:14px}
    </style>
    <link xmlns="http://www.w3.org/1999/xhtml" rel="stylesheet" href="/images.css" type="text/css"/>
    <path class="fill-accent-lighter" d="M477.078 96.508c-5.91-3.41-14.055-4.654-22.176-4.595-6.876.06-13.732 1.079-19.124 2.596-13.806 3.846-27.728 7.66-41.092 12.721a9655.227 9655.227 0 01-30.553 11.352c-15.604-22.27-32.32-44.75-50.677-66.149-.745-.822-2.634-2.63-5.279-4.984-2.53-4.295-6.315-8.127-9.729-11.474-15.404-15.162-34.251-26.465-56.121-27.74-28.523-1.65-60.832 8.09-80.44 29.324-3.534 3.846-6.656 8.046-9.294 12.62-1.945 3.406-3.624 6.904-5.17 10.494-13.001.723-24.286 5.156-34.528 9.81-15.773 7.203-29.271 15.534-41.367 25.49-26.837 22.103-76.727 63.263-59.96 116.48 6.705 21.294 19.24 37.071 30.324 51.014 1.507 1.918 3.003 3.797 4.46 5.665-11.467 6.607-24.873 11.664-31.138 24.196-4.064 8.257-4.162 17.424-.429 25.253.495 3.066 2.947 5.647 6.094 8.432a28.625 28.625 0 003.041 2.515c11.65 8.538 27.641 8.022 41.265 7.309l1.503-.077c11.032-.316 22.784-.65 35.066-1.149 1.296 1.324 2.336 2.515 2.779 3.34a24.077 24.077 0 003.48 4.886c-2.086 21.46-4.264 42.923-4.605 64.596-.312 18.671-1.45 36.5 5.374 54.598 4.587 12.194 12.297 32.607 33.141 44.977 16.581 9.918 39.365 12.647 60.832 7.312 36.913-9.17 47.31-30.117 49.578-46.08.555-4.31.562-8.878.098-13.518 8.471 1.377 16.82 1.918 24.93 1.377 24.891-1.62 45.346-13.888 57.635-34.553 7.333-12.233 12.658-33.107 8.17-51.401-2.305-13.119-7.868-26.339-17.747-35.235-7.59-6.856-14.13-14.72-22.128-20.174 11.756-1.307 23.427-2.767 35.168-4.858 10.87-1.96 22.067-3.835 32.688-6.76 13.073-3.64 28.554-8.897 38.325-18.66 5.771-5.807 11.24-13.87 12.886-22.338 8.363-17.941 6.66-39.569-5.475-60.19l-9.339-16.45c-2.121-3.759-4.26-7.58-6.438-11.411a515.418 515.418 0 0011.352-3.892c19.798-7.147 44.095-11.97 60.624-25.228 7.014-5.602 17.445-15.879 17.575-25.421.063-8.693-5.999-19.605-13.579-24.02zM240.392 55.805c4.678.27 9.131 1.882 13.223 4.264 1.896 2.244 5.409 3.979 7.274 5.574 5.999 5.176 11.46 11.393 16.623 17.427 14.544 16.936 28.08 34.781 40.942 52.75-13.56 5.261-27.086 10.708-40.461 16.51-21.049 9.15-42.192 17.997-62.939 27.796-8.77 4.13-17.367 8.721-25.966 13.29 2.902-19.236 5.715-38.508 8.226-57.81.292-2.273.562-4.545.815-6.797 1.064.194 2.136.386 3.242.506 10.516 1.195 17.417-5.823 27.715-5.212 10.473.604 19.52 7.875 27.247 14.505 19.897 17.105 17.84-8.158 13.582-23.373-4.857-17.617-15.008-24.33-32.678-23.322-8.78.496-17.445 1.364-25.19-3.705-2.707-1.755-5.25-3.663-7.705-5.58 4.668-17.302 15.032-28.053 36.05-26.823zm-34.4 304.392c-.716 2.827-1.21 5.634-1.713 8.419-6.023-6.283-11.752-12.848-17.35-19.447-4.254-5.02-9.388-11.679-14.927-17.625a.477.477 0 00.032-.218c10.912-1.025 21.898-2.233 32.708-3.736 7.762-1.068 15.567-2.055 23.42-3.06-11.468 8.317-18.667 22.152-22.17 35.667zM67.336 166.383c9.799-12.805 22.513-23.251 34.872-33.468 9.058-7.439 18.938-13.49 31.087-19.03a43.79 43.79 0 001.735-.8c-1.008 7.973-1.95 15.897-3.045 23.673-3.425 25.048-5.88 50.284-10.116 75.224-1.05 5.728-2.226 11.31-3.406 16.865-7.664 4.11-15.328 8.16-23.167 11.882-.095-.095-.133-.193-.221-.274-8.661-11.646-16.651-23.342-24.684-35.23-8.513-12.61-12.742-26.184-3.055-38.842zm129.238 267.798l3.4 9.483c1.956 5.22 5.564 14.903 5.118 18.18-.19 1.464-4.345 4.664-14.584 7.192-8.843 2.255-19.275 1.427-24.774-1.833-7.984-4.763-10.674-12.49-8.865-21.203 2.55-12.373 8.173-23.36 10.466-35.965 8.24 7.031 16.426 13.196 23.662 18.576a171.46 171.46 0 004.994 3.614c.214.65.397 1.324.583 1.956zm24.038-50.038c-1.31-9.385.586-19.637 4.843-27.62 9.743-18.457 32.61-21.143 46.508-6.329 5.958 6.329 12.04 12.809 17.8 19.134a33.14 33.14 0 013.277 4.246 24.3 24.3 0 003.938 8.279c.13.552.217 1.264.231 2.135.046 2.61-.477 6.284-1.489 9.445-1.036 1.977-2.184 3.955-2.943 6.009-17.92 26.201-54.766-.593-72.165-15.299zm74.546-122.316c-29.457 3.617-58.763 8.117-88.11 12.567a3885.27 3885.27 0 01-30.353 4.506c.706-5.335 1.43-10.649 2.143-15.956 37.808-18.292 76.727-32.396 116.067-47.355 20.455-7.765 40.542-16.406 60.751-24.603a729.801 729.801 0 0110.354 18.15l9.947 17.429c7.414 12.58 2.69 17.167.691 19.127-.758.703-1.401 1.45-2.015 2.234-5.736 2.082-11.633 2.936-18.078 3.638-20.711 2.273-40.89 7.724-61.397 10.263z"/>
    <path class="home-scene-feature-icon fill-none stroke-accent" d="M477.078 96.508c-5.91-3.41-14.055-4.654-22.176-4.595-6.876.06-13.732 1.079-19.124 2.596-13.806 3.846-27.728 7.66-41.092 12.721a9655.227 9655.227 0 01-30.553 11.352c-15.604-22.27-32.32-44.75-50.677-66.149-.745-.822-2.634-2.63-5.279-4.984-2.53-4.295-6.315-8.127-9.729-11.474-15.404-15.162-34.251-26.465-56.121-27.74-28.523-1.65-60.832 8.09-80.44 29.324-3.534 3.846-6.656 8.046-9.294 12.62-1.945 3.406-3.624 6.904-5.17 10.494-13.001.723-24.286 5.156-34.528 9.81-15.773 7.203-29.271 15.534-41.367 25.49-26.837 22.103-76.727 63.263-59.96 116.48 6.705 21.294 19.24 37.071 30.324 51.014 1.507 1.918 3.003 3.797 4.46 5.665-11.467 6.607-24.873 11.664-31.138 24.196-4.064 8.257-4.162 17.424-.429 25.253.495 3.066 2.947 5.647 6.094 8.432a28.625 28.625 0 003.041 2.515c11.65 8.538 27.641 8.022 41.265 7.309l1.503-.077c11.032-.316 22.784-.65 35.066-1.149 1.296 1.324 2.336 2.515 2.779 3.34a24.077 24.077 0 003.48 4.886c-2.086 21.46-4.264 42.923-4.605 64.596-.312 18.671-1.45 36.5 5.374 54.598 4.587 12.194 12.297 32.607 33.141 44.977 16.581 9.918 39.365 12.647 60.832 7.312 36.913-9.17 47.31-30.117 49.578-46.08.555-4.31.562-8.878.098-13.518 8.471 1.377 16.82 1.918 24.93 1.377 24.891-1.62 45.346-13.888 57.635-34.553 7.333-12.233 12.658-33.107 8.17-51.401-2.305-13.119-7.868-26.339-17.747-35.235-7.59-6.856-14.13-14.72-22.128-20.174 11.756-1.307 23.427-2.767 35.168-4.858 10.87-1.96 22.067-3.835 32.688-6.76 13.073-3.64 28.554-8.897 38.325-18.66 5.771-5.807 11.24-13.87 12.886-22.338 8.363-17.941 6.66-39.569-5.475-60.19l-9.339-16.45c-2.121-3.759-4.26-7.58-6.438-11.411a515.418 515.418 0 0011.352-3.892c19.798-7.147 44.095-11.97 60.624-25.228 7.014-5.602 17.445-15.879 17.575-25.421.063-8.693-5.999-19.605-13.579-24.02zM240.392 55.805c4.678.27 9.131 1.882 13.223 4.264 1.896 2.244 5.409 3.979 7.274 5.574 5.999 5.176 11.46 11.393 16.623 17.427 14.544 16.936 28.08 34.781 40.942 52.75-13.56 5.261-27.086 10.708-40.461 16.51-21.049 9.15-42.192 17.997-62.939 27.796-8.77 4.13-17.367 8.721-25.966 13.29 2.902-19.236 5.715-38.508 8.226-57.81.292-2.273.562-4.545.815-6.797 1.064.194 2.136.386 3.242.506 10.516 1.195 17.417-5.823 27.715-5.212 10.473.604 19.52 7.875 27.247 14.505 19.897 17.105 17.84-8.158 13.582-23.373-4.857-17.617-15.008-24.33-32.678-23.322-8.78.496-17.445 1.364-25.19-3.705-2.707-1.755-5.25-3.663-7.705-5.58 4.668-17.302 15.032-28.053 36.05-26.823zm-34.4 304.392c-.716 2.827-1.21 5.634-1.713 8.419-6.023-6.283-11.752-12.848-17.35-19.447-4.254-5.02-9.388-11.679-14.927-17.625a.477.477 0 00.032-.218c10.912-1.025 21.898-2.233 32.708-3.736 7.762-1.068 15.567-2.055 23.42-3.06-11.468 8.317-18.667 22.152-22.17 35.667zM67.336 166.383c9.799-12.805 22.513-23.251 34.872-33.468 9.058-7.439 18.938-13.49 31.087-19.03a43.79 43.79 0 001.735-.8c-1.008 7.973-1.95 15.897-3.045 23.673-3.425 25.048-5.88 50.284-10.116 75.224-1.05 5.728-2.226 11.31-3.406 16.865-7.664 4.11-15.328 8.16-23.167 11.882-.095-.095-.133-.193-.221-.274-8.661-11.646-16.651-23.342-24.684-35.23-8.513-12.61-12.742-26.184-3.055-38.842zm129.238 267.798l3.4 9.483c1.956 5.22 5.564 14.903 5.118 18.18-.19 1.464-4.345 4.664-14.584 7.192-8.843 2.255-19.275 1.427-24.774-1.833-7.984-4.763-10.674-12.49-8.865-21.203 2.55-12.373 8.173-23.36 10.466-35.965 8.24 7.031 16.426 13.196 23.662 18.576a171.46 171.46 0 004.994 3.614c.214.65.397 1.324.583 1.956zm24.038-50.038c-1.31-9.385.586-19.637 4.843-27.62 9.743-18.457 32.61-21.143 46.508-6.329 5.958 6.329 12.04 12.809 17.8 19.134a33.14 33.14 0 013.277 4.246 24.3 24.3 0 003.938 8.279c.13.552.217 1.264.231 2.135.046 2.61-.477 6.284-1.489 9.445-1.036 1.977-2.184 3.955-2.943 6.009-17.92 26.201-54.766-.593-72.165-15.299zm74.546-122.316c-29.457 3.617-58.763 8.117-88.11 12.567a3885.27 3885.27 0 01-30.353 4.506c.706-5.335 1.43-10.649 2.143-15.956 37.808-18.292 76.727-32.396 116.067-47.355 20.455-7.765 40.542-16.406 60.751-24.603a729.801 729.801 0 0110.354 18.15l9.947 17.429c7.414 12.58 2.69 17.167.691 19.127-.758.703-1.401 1.45-2.015 2.234-5.736 2.082-11.633 2.936-18.078 3.638-20.711 2.273-40.89 7.724-61.397 10.263zm-248.805 7.305s45.792 59.35 55.4 66.48m-6.461-94.89l18.906 23.883m-6.185 79.232s6.315-93.66 10.449-114.99"/>
    <path class="home-scene-feature-icon fill-none stroke-accent" d="M167.334 410.035s5.152-50.828 4.703-78.49l4.657-52.645 12.394-85.483m9.042-64.607s3.7-38.835 6.212-46.183m-69.313 30.458s4.548-31.29 12.395-52.412m80.738 263.857s44.538-29.506 75.13-8.794m-98.279 49.241c-.629 5.458-2.905 11.46-4.341 16.76-1.475 5.532-5.201 8.932-7.407 13.912-3.109 7.035-2.498 15.274-1.092 22.685 1.397 7.074 5.222 13.866 6.195 20.884m21.59-58.749c.249 14.544 9.83 22.236 17.251 33.732 4.236 6.508 8.51 12.63 11.355 19.938 2.761 6.88 3.435 13.758 4.447 20.95"/>
</svg>
