<svg aria-hidden="true" focusable="false" role="img" xmlns="http://www.w3.org/2000/svg" viewBox="-7 -7 526 526">
    <style type="text/css">
    .fill-accent-lighter { fill: #ffe182; }
    .fill-accent-lightest { fill: #fff0c0; }
    .stroke-accent { stroke: #ffc306; }
    .home-scene-feature-icon { stroke-width: 14px; }
    </style>
    <link xmlns="http://www.w3.org/1999/xhtml" rel="stylesheet" href="/images.css" type="text/css"/>
    <path class="home-scene-feature-icon fill-accent-lightest stroke-accent" d="M 372,336 C 399.6,300.7 416,256.3 416,208 416,93.1 322.9,0 208,0 93.1,0 0,93.1 0,208 c 0,114.9 93.1,208 208,208 48.3,0 92.7,-16.4 128,-44 M 208,336 C 137.3,336 80,278.8 80,208 80,137.3 137.2,80 208,80 c 70.7,0 128,57.2 128,128 0,70.7 -57.2,128 -128,128 z"></path>
    <path class="home-scene-feature-icon fill-accent-lighter stroke-accent" d="m 336,372 v 16.3 c 0,6.4 2.5,12.5 7,17 l 99.7,99.7 c 9.4,9.4 24.6,9.4 33.9,0 l 28.3,-28.3 c 9.4,-9.4 9.4,-24.6 0.1,-34 L 405.3,343 c -4.5,-4.5 -10.6,-7 -17,-7 H 372"></path>
</svg>

