<svg aria-hidden="true" xmlns="http://www.w3.org/2000/svg" viewBox="-7 -7 526 526">
    <style>
        .fill-accent-lighter{fill:#ffe182}.fill-accent-lightest{fill:#fff0c0}.stroke-accent{stroke:#ffc306}.home-scene-feature-icon{stroke-width:14px}
    </style>
    <link xmlns="http://www.w3.org/1999/xhtml" rel="preload" href="/images.css" as="style"/>
    <link xmlns="http://www.w3.org/1999/xhtml" rel="stylesheet" href="/images.css" type="text/css"/>
    <path class="home-scene-feature-icon fill-accent-lightest stroke-accent" d="M372 336c27.6-35.3 44-79.7 44-128C416 93.1 322.9 0 208 0S0 93.1 0 208s93.1 208 208 208c48.3 0 92.7-16.4 128-44m-128-36c-70.7 0-128-57.2-128-128 0-70.7 57.2-128 128-128 70.7 0 128 57.2 128 128 0 70.7-57.2 128-128 128z"/>
    <path class="home-scene-feature-icon fill-accent-lighter stroke-accent" d="M336 372v16.3c0 6.4 2.5 12.5 7 17l99.7 99.7c9.4 9.4 24.6 9.4 33.9 0l28.3-28.3c9.4-9.4 9.4-24.6.1-34L405.3 343c-4.5-4.5-10.6-7-17-7H372"/>
</svg>
