<svg xmlns="http://www.w3.org/2000/svg" viewBox="0 0 150.29 50">
    <path fill="#2da9e1" d="M27.39 49.669h-6.037L49.822 6.633l3.219 4.65zm10.688 0H32.04l23.094-35.346 3.195 4.628zm7.865-48.633C45.745.728 45.393 0 44.6 0c-.815 0-1.146.75-1.344 1.036L10.687 49.67h6.038l31.07-45.967-1.852-2.666zM30.475 8.175c-.198-.308-.573-1.013-1.344-1.013-.816 0-1.147.75-1.344 1.013L0 49.67h6.037l26.245-38.761-1.807-2.733z"/>
    <path d="M30.475 8.198c-.198-.287-.551-1.014-1.344-1.014-.816 0-1.147.75-1.344 1.014l-1.829 2.732 26.179 38.74h6.037l-27.7-41.471zm15.468-7.162C45.745.728 45.393 0 44.6 0c-.815 0-1.146.75-1.344 1.036l-1.828 2.732 32.06 45.9h6.04L45.942 1.037z" fill="#d61789"/>
    <path fill="#2c2d6f" d="M53.018 11.283l-3.196-4.628-3.107 4.694 3.217 4.583zm5.31 7.69l-3.195-4.65-3.063 4.672 3.196 4.606z"/>
    <path fill="#d61789" d="M62.803 49.669h6.037L39.554 6.589l-3.173 4.694z"/>
    <path d="M45.943 1.036C45.745.728 45.393 0 44.6 0c-.11 0-.198.022-.287.022-.594.154-.881.75-1.057.992l-1.652 2.468-.176.265 3.217 4.605 3.15-4.672-1.852-2.644zM39.554 6.59l-3.173 4.693 3.173 4.605 3.151-4.672zm5.288 16.966l3.085-4.65-3.152-4.627-3.105 4.672zm5.333 7.757l3.063-4.605-3.173-4.65-3.042 4.671zm-19.7-23.115c-.198-.287-.573-1.014-1.344-1.014-.11 0-.198.022-.287.022-.594.154-.881.75-1.057.992l-1.829 2.732 3.151 4.672 3.173-4.694-.022-.044-1.785-2.666zm7.095 10.621l-3.107-4.65-3.15 4.694 3.107 4.605zm5.223 7.801l-3.106-4.65-3.108 4.694 3.108 4.583zm5.267 7.91l-3.109-4.65-3.039 4.673 3.106 4.583z" fill="#2c2d6f"/>
    <path d="M83.273 27.611c1.278 0 2.27-.264 2.27-2.733V14.235l-1.873-.088v-.815l5.75.088 3.682 10.114h.021l3.746-10.114 5.686-.088v.815l-1.918.088v13.288l1.918.088v.815c-.948 0-2.733-.088-3.68-.088s-2.645.088-3.592.088v-.815l1.895-.088v-12.23h-.045l-4.694 13.09h-1.168l-4.736-13.09h-.045v9.585c0 2.469.926 2.733 2.446 2.733v.815c-1.19 0-1.874-.088-2.842-.088-.948 0-1.653.088-2.842.088v-.815h.021zm19.678-4.561c0-4.055 2.733-5.928 5.774-5.928 3.084 0 5.816 1.653 5.816 5.685 0 4.078-2.666 5.927-5.816 5.927-3.086 0-5.774-1.63-5.774-5.684zm8.11-.133c0-3.239-.64-5.002-2.336-5.002-1.653 0-2.315 1.763-2.315 5.002 0 3.262.662 5.003 2.315 5.003 1.697 0 2.336-1.741 2.336-5.003zm5.507-3.283c0-1.3-.396-1.3-1.607-1.3v-.815l4.758-.243v6.545c0 2.291.045 3.46 1.521 3.46 1.168 0 2.645-1.388 2.645-3.702v-3.945c0-1.3-.551-1.3-1.588-1.3v-.815l4.738-.243v10.181l1.61.043v.816l-4.563.243-.064-2.116h-.024c-.771 1.278-2.092 2.248-3.967 2.248-2.49 0-3.435-1.279-3.435-3.989v-5.068h-.024zm18.885 7.977v.815c-1.146 0-1.762-.088-3.15-.088s-2.028.088-3.198.088v-.815l1.61-.111v-7.91c0-1.256-.397-1.256-1.61-1.256v-.815l4.563-.243.045 2.072h.021c.817-1.3 2.094-2.27 3.967-2.27 2.004 0 3.438 1.212 3.438 4.209v6.192l1.652.11v.815c-1.168 0-1.807-.088-3.195-.088s-1.983.088-3.15.088v-.815l1.564-.11v-5.487c0-2.578-.287-3.504-1.543-3.504-1.168 0-2.621 1.388-2.621 3.702v5.289l1.607.132zm11.701-2.358c-.045 1.476 0 2.292.969 2.292.88 0 1.389-1.256 1.389-1.256l.771.286s-.506 2.182-2.996 2.182c-2.932 0-3.24-1.587-3.24-3.46v-6.853h-1.785v-.925h1.785v-3.967c1.785 0 3.107-.462 3.107-.462v4.429h2.666v.925h-2.666v6.81zM85.19 44.027c.199 1.08 1.742 5.113 4.847 5.113 1.963 0 2.734-1.102 2.734-2.336 0-4.408-8.22-1.961-8.22-7.976 0-3.549 2.93-4.717 5.09-4.717 1.984 0 2.998.639 3.373.639.396 0 .527-.528.527-.528h.795c0 .794-.045 1.366-.045 2.116 0 1.123.045 1.762.045 2.512h-.795c-.197-1.059-1.541-3.946-4.098-3.946-1.431 0-2.402.882-2.402 2.116 0 4.054 8.44 1.718 8.44 8.087 0 3.504-2.645 4.893-5.553 4.893-2.512 0-3.834-.86-4.252-.86-.508 0-.596.573-.596.573h-.793c0-1.147.065-1.83.065-2.975 0-1.101-.065-1.785-.065-2.755h.902v.044zm17.585 4.739v.814c-1.146 0-1.808-.088-3.195-.088-1.389 0-2.027.088-3.195.088v-.814l1.607-.112v-7.843c0-1.301-.418-1.301-1.607-1.301v-.815l4.76-.243v10.202l1.63.112zm-3.152-16.02c.97 0 1.897.639 1.897 1.807s-.926 1.806-1.897 1.806c-.99 0-1.916-.638-1.916-1.806-.021-1.168.902-1.807 1.916-1.807zm9.982 16.02v.814c-1.146 0-1.761-.088-3.15-.088s-2.027.088-3.195.088v-.814l1.61-.112v-7.91c0-1.256-.397-1.256-1.61-1.256v-.815l4.56-.242.045 2.071h.022c.816-1.3 2.093-2.27 3.967-2.27 2.003 0 3.437 1.212 3.437 4.21v6.19l1.652.111v.816c-1.168 0-1.806-.088-3.195-.088-1.387 0-1.982.088-3.15.088v-.816l1.564-.11v-5.487c0-2.578-.287-3.503-1.543-3.503-1.168 0-2.621 1.388-2.621 3.7v5.29l1.607.133zm20.053-1.014s-.33 2.16-2.777 2.16c-1.168 0-2.137-.486-2.555-1.676h-.045c-.529.993-1.521 1.764-3.261 1.764-1.674 0-3.635-.771-3.635-3.262 0-3.085 3.635-3.372 6.873-3.35v-1.167c.068-1.895-.086-3.174-1.65-3.174-1.192 0-1.721.596-1.83.838 0 0 .529.287.529 1.101 0 .838-.618 1.433-1.588 1.433-.924 0-1.586-.573-1.586-1.52 0-1.698 2.158-2.645 4.738-2.645 4.164 0 4.518 2.357 4.473 4.584l-.11 4.495c-.023.728.221 1.233.727 1.233.684 0 .926-1.013.926-1.013l.771.199zm-5.465-3.548c-2.953-.044-3.615.728-3.615 2.247 0 1.41.55 2.115 1.543 2.115.926 0 1.984-.814 2.027-2.511l.045-1.85zm11.854 4.562v.814c-1.145 0-1.807-.088-3.193-.088-1.39 0-2.028.088-3.196.088v-.814l1.608-.112v-7.843c0-1.301-.418-1.301-1.608-1.301v-.815l4.76-.243v10.202l1.629.112zm-3.172-16.02c.97 0 1.895.639 1.895 1.807s-.924 1.806-1.895 1.806c-.992 0-1.918-.638-1.918-1.806s.926-1.807 1.918-1.807z" fill="#010101"/>
</svg>
