<?xml version="1.0" encoding="utf-8"?>
<?xml-stylesheet type="text/css" href="/images.css" ?>
<svg version="1.1" xmlns="http://www.w3.org/2000/svg"
	 viewBox="0 0 526 526" xml:space="preserve">
<path class="fill-accent-lighter" d="M6.995134,216.536362c8.307734-5.390732,17.173876-9.912872,26.407358-13.605774
	c16.617546-6.646133,34.128094-10.770966,51.660252-14.166306c11.7211-2.269958,23.467148-4.428864,35.198097-6.649139
	c13.057564-2.471344,26.276833-4.681366,39.602989-4.723694c11.726288-0.037247,22.622604,2.240601,33.701492,5.876312
	c10.165756,3.33606,20.474258,6.915924,31.283676,7.168259c20.290176,0.473648,36.744629-12.715607,49.098755-27.551285
	c22.002502-26.422134,33.839844-60.526955,58.98172-84.463562c12.325226-11.734367,28.127258-19.659187,45.167419-21.415558
	c6.876556-0.708786,14.19046-0.153637,20.280518,3.390743c6.069672,3.532536,9.89267,9.594181,11.99118,16.164837
	c1.38324,4.331093,2.067108,8.841995,2.4328,13.363319c-0.022003-0.295715-0.044006-0.591438-0.06601-0.887154
	c1.531342,21.616119,1.511292-56.906368,0.045837-36.489235c0.022003-0.295719,0.044006-0.591434,0.06601-0.887154
	c-1.627289,19.067688-12.530853,33.768898-24.87442,47.59623c-10.256439,11.489288-20.350555,22.934395-29.37796,35.428787
	c-8.327423,11.525604-16.039398,23.569763-22.472076,36.262314c-5.693878,11.234833-10.82193,23.385376-12.194855,36.016464
	c-1.083069,9.964188-0.546539,20.176636-0.550995,30.162842c-0.004425,9.839096-0.725647,20.065872,0.563507,29.872421
	c0.623169,4.740417,2.283081,9.335938,5.250732,13.121155c7.561707,9.644897,21.304443,12.138763,32.851929,12.362335
	c10.095581,0.195465,20.249451-1.895691,30.12149-3.758972c11.714081-2.210907,23.401794-4.669128,35.24295-6.118561
	c17.080444-2.090729,42.922394-3.440338,49.11261,17.193695c0.727325,2.424408,1.117249,4.927521,1.319519,7.446625
	c-0.022003-0.295715-0.044006-0.591431-0.06604-0.887146c1.352295,19.588593,1.420349-60.875443-0.039368-39.996399
	c0.022003-0.295746,0.044006-0.591461,0.06601-0.887177c-1.971344,25.059753-14.565247,46.715668-30.664581,65.366577
	c-15.095367,17.487854-32.466156,33.566284-41.855499,55.119415c-5.903748,13.551941-7.680756,27.799927-7.870636,42.468628
	c-0.201233,15.546356-0.578186,31.216553,0.143341,46.754822c0.12326,2.654266,0.379395,5.307892,0.864502,7.921661
	c0.855804,4.611359,2.407837,9.096252,4.715057,13.185364c9.090546,16.111145,28.001434,22.790039,45.675293,22.707214
	c19.009247-0.089111,38.748871-7.352478,51.893616-21.368622c7.310577-7.795197,11.605103-17.487427,14.650391-27.629303
	c1.467163-4.886078,2.550476-9.902527,3.003479-14.988953c0.501953-5.635803,0.402344-11.319733,0.440125-16.970825
	c0.088257-13.21402,0.523804-26.564178-0.233093-39.765503c-0.45282-7.897308-2.620483-15.468353-7.105347-22.042145
	c-4.209351-6.169952-10.017517-11.06842-16.342743-14.961517c-14.59726-8.984375-31.766449-13.358582-48.3638-16.92868
	c-15.709869-3.379181-31.758698-5.505249-47.274994-9.736786c-18.481354-5.040161-35.996124-17.96167-43.18808-36.141052
	c-1.933777-4.888062-3.037048-10.039154-3.451691-15.272766c0.022003,0.295715,0.044006,0.591431,0.06604,0.887146
	c-0.026733-0.38858-0.053406-0.77713-0.074158-1.166107c-0.009369-0.194824-0.018738-0.389679-0.028107-0.584503
	c-0.29129-7.876038-0.297363-0.775543-0.018219,21.301514c0.007263,39.77121-0.416229,28.471222,0.042999,20.998291
	c0.030426-0.494965,0.05719-0.989777,0.091309-1.484589c-0.022003,0.295715-0.044006,0.591431-0.06601,0.887146
	c1.622864-20.733307,12.233154-39.991669,24.836426-56.089905c6.901947-8.815857,14.684662-16.946716,23.118347-24.307434
	c4.1362-3.60997,8.434998-7.034912,12.891144-10.241974c2.029449-1.460587,4.091583-2.875916,6.186615-4.240784
	c0.915619-0.596497,2.74411-1.294144,3.395081-2.149094c0.821625-1.079041,0.95462-3.807343,1.260254-5.141541
	c2.803162-12.235901,3.773926-24.462463,3.895081-36.992523c0.162567-16.811172,0.81073-33.838989-0.401489-50.631287
	c-0.33728-4.672089-0.940643-9.315132-1.934662-13.895103c-3.419739-15.756409-11.367157-30.15387-23.098938-41.239975
	c-24.633118-23.277409-60.931488-30.360195-93.778564-29.308731c-39.784332,1.273533-79.288605,14.361855-110.60997,39.176109
	c-41.137833,32.591309-66.45546,79.860779-95.722351,122.377579c-3.566872,5.181686-7.20752,10.311874-10.949844,15.368439
	c-0.608238,0.821838-0.174797,7.197845-0.175613,7.274185c-0.062447,5.853104-0.075363,11.708084-0.072739,17.561417
	c0.002617,5.853729,0.005486,11.708038,0.072739,17.561432c0.016754,1.294464,0.033508,2.588928,0.050262,3.883392
	c-0.015373,1.133057,0.026405,2.263336,0.125351,3.390778c22.676353-30.639938,41.416992-64.014252,64.766449-94.17514
	c22.033508-28.461075,48.611023-53.310928,82.122726-67.457565c24.493454-10.339661,51.320145-15.585686,77.899338-15.381531
	c24.633148,0.189209,50.153564,5.109764,71.394196,18.092194c20.355835,12.44162,34.41922,32.258102,38.624847,55.828705
	c0.574554,3.220184,0.966248,6.467331,1.220734,9.727875c-0.022003-0.295715-0.044006-0.591446-0.06601-0.887161
	c0.064575,0.893997,0.122101,1.788239,0.166138,2.683487c0.02478,0.50322,0.04071,1.00679,0.063934,1.510056
	c0.006531,0.202698,0.013031,0.40538,0.019562,0.608078c-0.172089-6.848007-0.183105-13.697937-0.03299-20.549789
	c-0.002502-17.982651,0.53891-26.468491-0.245026-15.363235c0.022003-0.295715,0.044037-0.591446,0.06604-0.887161
	c-0.619659,8.177795-1.982849,16.276077-3.915894,24.243729c-0.190491,0.785141-0.276154,2.291412-0.743561,2.952087
	c-0.393982,0.556885-1.686035,1.049759-2.264465,1.419464c-1.713409,1.095123-3.405029,2.22438-5.074982,3.384628
	c-3.325592,2.310532-6.565186,4.744431-9.718292,7.285156c-12.822571,10.332291-24.359283,22.422302-33.77948,35.943161
	c-8.620361,12.372818-15.74292,26.294876-18.56131,41.215927c-0.670044,3.547394-1.056519,7.139252-1.213379,10.745209
	c-0.289551,6.656433-0.207886,13.343903-0.224854,20.003326c-0.027435,10.760864-0.179718,21.554016,0.204803,32.312592
	c0.247681,6.929474,1.535187,13.754913,4.321625,20.128235c5.934296,13.573395,18.063202,24.268616,31.284027,30.570374
	c7.292816,3.476196,15.474976,5.142303,23.335236,6.77475c21.183075,4.399414,42.795044,7.331146,63.294495,14.509857
	c18.142365,6.353302,37.347351,17.145874,42.371887,37.179321c0.604675,2.411011,0.977783,4.867096,1.181702,7.343018
	c-0.021973-0.295715-0.044006-0.591431-0.065979-0.887146c0.033325,0.458069,0.058777,0.915863,0.086914,1.374237
	c0.46759,7.616058,0.039124,18.993042,0.034302-21.349243c0.273743-22.355103,0.269836-29.700043-0.011658-22.03479
	c-0.008423,0.245056-0.018921,0.48999-0.031616,0.734863c-0.030334,0.496582-0.058472,0.993011-0.094116,1.489288
	c0.022034-0.295715,0.044006-0.591431,0.06604-0.887146c-0.994995,12.393036-5.132446,25.835663-12.040466,36.224518
	c-6.463867,9.720856-16.023224,17.060455-26.609253,21.814301c-19.940033,8.954437-46.336578,10.153778-64.808319-2.975891
	c-10.498047-7.461945-16.25882-19.080872-17.254822-31.788696c0.022003,0.295715,0.044006,0.591431,0.06601,0.887146
	c-1.308411-19.354004-0.671906,56.665405-0.10257,41.279297c0.054932-1.484009,0.127258-2.965332,0.228485-4.447052
	c-0.022003,0.295746-0.044006,0.591461-0.06601,0.887177c1.198975-15.816589,6.118317-30.803101,14.575958-44.221954
	c7.647766-12.133881,17.519318-22.606323,27.121887-33.183044c9.828979-10.82605,19.434998-21.98764,26.43161-34.910309
	c7.621643-14.077118,11.807037-29.716827,12.122559-45.712219c0.232025-11.760864,0.169159-23.537415,0.097687-35.298828
	c-0.028656-4.717499,0.04303-9.476776-0.241425-14.192078c-0.163208-2.705292-0.485992-5.402054-1.192719-8.023651
	c-1.106018-4.102982-3.130493-7.937866-6.194366-10.914871c-6.351593-6.171539-15.722931-7.813751-24.240936-8.118896
	c-22.390411-0.802109-44.479614,5.889801-66.422668,9.320419c-18.66507,2.918137-47.950317,3.501556-54.851227-18.784592
	c-0.70816-2.286957-1.101166-4.649567-1.29718-7.032242c0.022003,0.295715,0.044006,0.591431,0.06604,0.887161
	c-1.354004-19.172302-1.437805,61.172897,0.032806,41.116165c-0.022003,0.295715-0.044006,0.591431-0.06601,0.887146
	c1.632233-19.804428,12.06601-38.755905,22.331635-55.326981c11.963409-19.311722,26.199005-36.526337,41.31778-53.414841
	c9.184967-10.260071,18.311676-21.10318,22.678436-34.3936c3.25592-9.909531,3.090118-20.160576,3.156677-30.48835
	c0.089752-13.919891,0.508301-27.987743-0.283173-41.898193c-0.197418-3.469555-0.536743-6.936321-1.20639-10.34914
	c-1.909271-9.730669-6.724823-19.160404-16.312866-23.130554c-10.095032-4.180068-21.90506-1.922749-31.954376,1.196372
	c-23.156494,7.187341-39.097046,25.323811-51.994354,44.996815c-13.222534,20.16906-23.879608,42.296898-39.922028,60.495087
	c-8.455811,9.592102-18.901581,18.668839-31.268082,22.622696c-15.1194,4.834045-30.284775,0.429749-44.783676-4.350281
	c-7.061096-2.327927-14.109894-4.602142-21.499527-5.624512c-9.137482-1.264198-18.419525-1.077042-27.581818-0.183731
	c-18.13028,1.767685-35.988533,5.982788-53.886292,9.248154c-24.368866,4.445969-48.99482,9.891144-71.30835,21.000931
	c-4.947144,2.46315-9.699895,5.208237-14.257273,8.210098"/>
<path class="home-scene-feature-icon fill-none stroke-accent" d="M160.404755,127.719376c-4.658997-0.005623-9.321533,0.265511-13.953476,0.717117
	c-18.13028,1.767685-35.988533,5.982788-53.886292,9.248154c-24.368866,4.445969-48.99482,9.891144-71.30835,21.000931
	c-4.947144,2.46315-9.699895,5.208237-14.257273,8.210098l-0.00423,49.640686
	c8.307734-5.390732,17.173876-9.912872,26.407358-13.605774c16.617546-6.646133,34.128094-10.770966,51.660252-14.166306
	c11.7211-2.269958,23.467148-4.428864,35.198097-6.649139c0.769066-0.145554,1.538696-0.290207,2.308868-0.433563"/>
<path class="home-scene-feature-icon fill-none stroke-accent" d="M323.83905,257.39856c-0.022003,0.295715-0.044006,0.591431-0.06601,0.887146
	c1.632233-19.804428,12.06601-38.755905,22.331635-55.326981c11.963409-19.311722,26.199005-36.526337,41.31778-53.414841
	c9.184967-10.260071,18.311676-21.10318,22.678436-34.3936c3.25592-9.909531,3.090118-20.160576,3.156677-30.48835
	c0.089752-13.919891,0.508301-27.987743-0.283173-41.898193c-0.197418-3.469555-0.536743-6.936321-1.20639-10.34914
	c-1.909271-9.730669-6.724823-19.160404-16.312866-23.130554c-10.095032-4.180068-21.90506-1.922749-31.954376,1.196372
	c-23.156494,7.187341-39.097046,25.323811-51.994354,44.996815c-13.222534,20.16906-23.879608,42.296898-39.922028,60.495087
	c-8.455811,9.592102-18.901581,18.668839-31.268082,22.622696c-13.297028,4.251389-26.629639,1.357239-39.513153-2.653748"/>
<path class="home-scene-feature-icon fill-none stroke-accent" d="M362.145721,242.662933c-11.913879-0.038284-24.188354-2.466064-31.607666-10.528488"/>
<path class="home-scene-feature-icon fill-none stroke-accent" d="M397.668549,470.027374c0.054932-1.484009,0.127258-2.965332,0.228485-4.447052
	c-0.022003,0.295746-0.044006,0.591461-0.06601,0.887177c1.198975-15.816589,6.118317-30.803101,14.575958-44.221954
	c7.647766-12.133881,17.519318-22.606323,27.121887-33.183044c9.828979-10.82605,19.434998-21.98764,26.43161-34.910309
	c7.621643-14.077118,11.807037-29.716827,12.122559-45.712219c0.232025-11.760864,0.169159-23.537415,0.097687-35.298828
	c-0.028656-4.717499,0.04303-9.476776-0.241425-14.192078c-0.163208-2.705292-0.485992-5.402054-1.192719-8.023651
	c-1.106018-4.102982-3.130493-7.937866-6.194366-10.914871c-6.351593-6.171539-15.722931-7.813751-24.240936-8.118896
	c-11.814789-0.423248-23.545715,1.240112-35.215546,3.409882"/>
<path class="home-scene-feature-icon fill-none stroke-accent" d="M518.477661,403.249695c-0.008423,0.245056-0.018921,0.48999-0.031616,0.734863
	c-0.030334,0.496582-0.058472,0.993011-0.094116,1.489288c0.022034-0.295715,0.044006-0.591431,0.06604-0.887146
	c-0.994995,12.393036-5.132446,25.835663-12.040466,36.224518c-6.463867,9.720856-16.023224,17.060455-26.609253,21.814301
	c-19.940033,8.954437-46.336578,10.153778-64.808319-2.975891c-5.674957-4.033722-9.965576-9.282166-12.867554-15.260712"/>
<path class="home-scene-feature-icon fill-none stroke-accent" d="M436.851563,392.004181c12.855774,2.496735,25.645355,5.283508,38.028931,9.620117
	c14.65332,5.13147,29.999847,13.158936,38.008057,26.612335"/>
<path class="home-scene-feature-icon fill-none stroke-accent" d="M362.145935,242.597565c-3.773407,7.618164-6.692444,15.644287-8.267395,23.982391
	c-0.670044,3.547394-1.056519,7.139252-1.213379,10.745209c-0.289551,6.656433-0.207886,13.343903-0.224854,20.003326
	c-0.027435,10.760864-0.179718,21.554016,0.204803,32.312592c0.247681,6.929474,1.535187,13.754913,4.321625,20.128235
	c5.934296,13.573395,18.063202,24.268616,31.284027,30.570374c5.380188,2.564514,11.244385,4.14389,17.106293,5.451355"/>
<path class="home-scene-feature-icon fill-none stroke-accent" d="M427.870483,151.022964c0.022003-0.295715,0.044037-0.591446,0.06604-0.887161
	c-0.619659,8.177795-1.982849,16.276077-3.915894,24.243729c-0.190491,0.785141-0.276154,2.291412-0.743561,2.952087
	c-0.393982,0.556885-1.686035,1.049759-2.264465,1.419464c-1.713409,1.095123-3.405029,2.22438-5.074982,3.384628
	c-3.325592,2.310532-6.565186,4.744431-9.718292,7.285156c-12.822571,10.332291-24.359283,22.422302-33.77948,35.943161
	c-3.803192,5.45871-7.314819,11.218979-10.293915,17.233536"/>
<path class="home-scene-feature-icon fill-none stroke-accent" d="M403.002197,128.930801c10.741638,10.341034,18.502075,23.319611,22.339996,37.979767"/>
<path class="home-scene-feature-icon fill-none stroke-accent" d="M315.428802,99.367119c0.432159,0.000443,0.864258,0.002319,1.296295,0.005638
	c20.500244,0.157463,41.61499,3.591827,60.366058,12.222778"/>
<path class="home-scene-feature-icon fill-none stroke-accent" d="M201.948715,136.291077c11.29393-8.57692,23.536011-15.904999,36.877045-21.536789
	c13.933777-5.882004,28.622665-10.115601,43.591507-12.635139"/>
<path class="home-scene-feature-icon fill-none stroke-accent" d="M160.404739,127.721397c-21.126556,26.323296-38.487511,55.979408-57.518311,83.625954
	c-3.566872,5.181686-7.20752,10.311874-10.949844,15.368439c-0.608238,0.821838-0.174797,7.197845-0.175613,7.274185
	c-0.062447,5.853104-0.075363,11.708084-0.072739,17.561417c0.002617,5.853729,0.005486,11.708038,0.072739,17.561432
	c0.016754,1.294464,0.033508,2.588928,0.050262,3.883392c-0.015373,1.133057,0.026405,2.263336,0.125351,3.390778
	c22.676353-30.639938,41.416992-64.014252,64.766449-94.17514c13.261948-17.130692,28.170105-32.95311,45.245682-45.920776"/>
<path class="home-scene-feature-icon fill-none stroke-accent" d="M315.428833,49.693806c-2.081085,0.000042-4.152374,0.033989-6.210083,0.099857
	c-39.784332,1.273533-79.288605,14.361855-110.60997,39.176109c-14.387955,11.398804-26.840698,24.593117-38.204041,38.751625"/>
<path class="home-scene-feature-icon fill-none stroke-accent" d="M402.997314,79.102394c-10.051666-9.498451-22.045685-16.300358-34.954956-20.953384"/>
<path class="home-scene-feature-icon fill-none stroke-accent" d="M352.824158,324.629456c0.030426-0.494965,0.05719-0.989777,0.091309-1.484589
	c-0.022003,0.295715-0.044006,0.591431-0.06601,0.887146c1.622864-20.733307,12.233154-39.991669,24.836426-56.089905
	c6.901947-8.815857,14.684662-16.946716,23.118347-24.307434c4.1362-3.60997,8.434998-7.034912,12.891144-10.241974
	c2.029449-1.460587,4.091583-2.875916,6.186615-4.240784c0.915619-0.596497,2.74411-1.294144,3.395081-2.149094
	c0.821625-1.079041,0.95462-3.807343,1.260254-5.141541c2.803162-12.235901,3.773926-24.462463,3.895081-36.992523
	c0.162567-16.811172,0.81073-33.838989-0.401489-50.631287c-0.33728-4.672089-0.940643-9.315132-1.934662-13.895103
	c-2.273071-10.473251-6.546631-20.346085-12.602295-29.04512"/>
<path class="home-scene-feature-icon fill-none stroke-accent" d="M436.856201,342.357086c-12.505981-2.374023-25.109924-4.403687-37.380829-7.750153
	c-17.246277-4.703339-33.650909-16.269867-41.610718-32.567688"/>
<path class="home-scene-feature-icon fill-none stroke-accent" d="M436.855988,342.358215c-12.136261,13.381927-24.271301,26.835938-31.575806,43.603363
	c-5.903748,13.551941-7.680756,27.799927-7.870636,42.468628c-0.201233,15.546356-0.578186,31.216553,0.143341,46.754822
	c0.12326,2.654266,0.379395,5.307892,0.864502,7.921661c0.855804,4.611359,2.407837,9.096252,4.715057,13.185364
	c9.090546,16.111145,28.001434,22.790039,45.675293,22.707214c19.009247-0.089111,38.748871-7.352478,51.893616-21.368622
	c7.310577-7.795197,11.605103-17.487427,14.650391-27.629303c1.467163-4.886078,2.550476-9.902527,3.003479-14.988953
	c0.501953-5.635803,0.402344-11.319733,0.440125-16.970825c0.088257-13.21402,0.523804-26.564178-0.233093-39.765503
	c-0.45282-7.897308-2.620483-15.468353-7.105347-22.042145c-4.209351-6.169952-10.017517-11.06842-16.342743-14.961517
	c-8.320435-5.121094-17.476501-8.744324-26.885956-11.574585"/>
<path class="home-scene-feature-icon fill-none stroke-accent" d="M477.734253,266.362762c0.022003-0.295746,0.044006-0.591461,0.06601-0.887177
	c-1.971344,25.059753-14.565247,46.715668-30.664581,65.366577c-3.351807,3.883057-6.815796,7.696625-10.279694,11.516052"/>
<path class="home-scene-feature-icon fill-none stroke-accent" d="M412.781219,52.548126c0.022003-0.295719,0.044006-0.591434,0.06601-0.887154
	c-1.627289,19.067688-12.530853,33.768898-24.87442,47.59623c-10.256439,11.489288-20.350555,22.934395-29.37796,35.428787
	c-8.327423,11.525604-16.039398,23.569763-22.472076,36.262314c-5.693878,11.234833-10.82193,23.385376-12.194855,36.016464
	c-1.083069,9.964188-0.546539,20.176636-0.550995,30.162842c-0.004425,9.839096-0.725647,20.065872,0.563507,29.872421
	c0.623169,4.740417,2.283081,9.335938,5.250732,13.121155c7.561707,9.644897,21.304443,12.138763,32.851929,12.362335
	c10.095581,0.195465,20.249451-1.895691,30.12149-3.758972c11.714081-2.210907,23.401794-4.669128,35.24295-6.118561
	c13.877869-1.69873,33.539673-2.908173,43.74527,7.765594"/>
<path class="home-scene-feature-icon fill-none stroke-accent" d="M369.079285,58.527927c2.957642-0.696014,5.967804-1.207962,9.017609-1.522312
	c6.876556-0.708786,14.19046-0.153637,20.280518,3.390743c4.176575,2.430759,7.289398,6.059032,9.508545,10.226643"/>
<path class="home-scene-feature-icon fill-none stroke-accent" d="M159.863831,177.391449c11.726288-0.037247,22.622604,2.240601,33.701492,5.876312
	c10.165756,3.33606,20.474258,6.915924,31.283676,7.168259c20.290176,0.473648,36.744629-12.715607,49.098755-27.551285
	c22.002502-26.422134,33.839844-60.526955,58.98172-84.463562c10.119293-9.634178,22.582214-16.700424,36.149811-19.893246"/>
</svg>
