<svg xmlns="http://www.w3.org/2000/svg" viewBox="0 0 526 526">
    <style>
        .fill-none{fill:none}.fill-accent-lighter{fill:#ffe182}.stroke-accent{stroke:#ffc306}.home-scene-feature-icon{stroke-width:14px}
    </style>
    <link xmlns="http://www.w3.org/1999/xhtml" rel="preload" href="/images.css" as="style"/>
    <link xmlns="http://www.w3.org/1999/xhtml" rel="stylesheet" href="/images.css" type="text/css"/>
    <path class="fill-accent-lighter" d="M6.995 216.536c8.308-5.39 17.174-9.913 26.407-13.605 16.618-6.647 34.129-10.771 51.66-14.167 11.722-2.27 23.468-4.429 35.199-6.649 13.057-2.471 26.277-4.681 39.603-4.724 11.726-.037 22.622 2.241 33.701 5.877 10.166 3.336 20.475 6.916 31.284 7.168 20.29.474 36.745-12.716 49.099-27.551 22.002-26.422 33.84-60.527 58.981-84.464 12.326-11.734 28.128-19.659 45.168-21.415 6.876-.71 14.19-.154 20.28 3.39 6.07 3.533 9.893 9.595 11.992 16.165 1.383 4.331 2.067 8.842 2.432 13.364l-.066-.888c1.532 21.616 1.512-56.906.046-36.489l.066-.887c-1.627 19.068-12.53 33.769-24.874 47.596-10.257 11.49-20.35 22.935-29.378 35.429-8.328 11.526-16.04 23.57-22.472 36.262-5.694 11.235-10.822 23.386-12.195 36.017-1.083 9.964-.547 20.176-.551 30.163-.005 9.839-.726 20.065.563 29.872.624 4.74 2.284 9.336 5.251 13.121 7.562 9.645 21.305 12.139 32.852 12.363 10.096.195 20.25-1.896 30.122-3.76 11.714-2.21 23.401-4.669 35.243-6.118 17.08-2.09 42.922-3.44 49.112 17.194.727 2.424 1.117 4.927 1.32 7.446l-.066-.887c1.352 19.589 1.42-60.875-.04-39.996l.066-.887c-1.971 25.06-14.565 46.715-30.664 65.366-15.096 17.488-32.466 33.566-41.856 55.12-5.904 13.552-7.68 27.8-7.87 42.468-.202 15.547-.579 31.217.143 46.755.123 2.654.38 5.308.864 7.922.856 4.611 2.408 9.096 4.715 13.185 9.091 16.111 28.002 22.79 45.676 22.707 19.009-.089 38.749-7.352 51.893-21.368 7.31-7.796 11.605-17.488 14.65-27.63 1.468-4.886 2.551-9.902 3.004-14.989.502-5.635.403-11.32.44-16.97.089-13.214.524-26.565-.233-39.766-.453-7.897-2.62-15.468-7.105-22.042-4.21-6.17-10.018-11.069-16.343-14.962-14.597-8.984-31.766-13.358-48.364-16.928-15.71-3.38-31.758-5.506-47.275-9.737-18.481-5.04-35.996-17.962-43.188-36.141-1.933-4.888-3.037-10.04-3.451-15.273l.066.887a75.926 75.926 0 01-.075-1.166l-.028-.584c-.29-7.876-.297-.776-.018 21.301.007 39.771-.416 28.471.043 20.998.03-.495.057-.99.091-1.484l-.066.887c1.623-20.733 12.234-39.992 24.837-56.09 6.902-8.816 14.685-16.947 23.118-24.307a175.726 175.726 0 0112.891-10.242 161.64 161.64 0 016.187-4.241c.916-.597 2.744-1.294 3.395-2.15.822-1.078.955-3.807 1.26-5.14 2.803-12.237 3.774-24.463 3.895-36.993.163-16.811.811-33.84-.401-50.632-.337-4.672-.94-9.315-1.935-13.895-3.42-15.756-11.367-30.154-23.099-41.24-24.633-23.277-60.931-30.36-93.778-29.308-39.785 1.273-79.289 14.362-110.61 39.176-41.138 32.591-66.456 79.86-95.723 122.377a550.843 550.843 0 01-10.95 15.369c-.608.822-.174 7.198-.175 7.274a1579.86 1579.86 0 00-.073 17.561c.003 5.854.006 11.708.073 17.562l.05 3.883a33.554 33.554 0 00.126 3.391c22.676-30.64 41.417-64.014 64.766-94.175 22.034-28.461 48.611-53.311 82.123-67.458 24.493-10.34 51.32-15.585 77.9-15.381 24.632.189 50.153 5.11 71.393 18.092 20.356 12.442 34.42 32.258 38.625 55.829a99.38 99.38 0 011.22 9.728l-.065-.888c.064.894.122 1.789.166 2.684.025.503.04 1.007.064 1.51l.02.608a436.934 436.934 0 01-.033-20.55c-.003-17.982.538-26.468-.246-15.363l.067-.887c-.62 8.178-1.983 16.276-3.916 24.244-.19.785-.277 2.29-.744 2.952-.394.557-1.686 1.05-2.264 1.42a158.443 158.443 0 00-5.075 3.384 171.003 171.003 0 00-9.719 7.285c-12.822 10.332-24.359 22.422-33.78 35.943-8.62 12.373-15.742 26.295-18.56 41.216-.67 3.547-1.057 7.14-1.214 10.745-.29 6.657-.208 13.344-.225 20.003-.027 10.761-.18 21.555.205 32.313.248 6.93 1.535 13.755 4.322 20.128 5.934 13.574 18.063 24.269 31.284 30.57 7.293 3.477 15.475 5.143 23.335 6.775 21.183 4.4 42.795 7.332 63.294 14.51 18.143 6.354 37.348 17.146 42.372 37.18.605 2.41.978 4.867 1.182 7.343l-.066-.888c.033.459.059.916.087 1.375.468 7.616.04 18.993.034-21.35.274-22.355.27-29.7-.011-22.034-.009.245-.02.49-.032.735-.03.496-.058.993-.094 1.489l.066-.887c-.995 12.393-5.132 25.835-12.04 36.224-6.464 9.721-16.024 17.06-26.61 21.815-19.94 8.954-46.336 10.153-64.808-2.976-10.498-7.462-16.259-19.081-17.255-31.79l.066.888c-1.308-19.354-.672 56.665-.102 41.28.054-1.485.127-2.966.228-4.448l-.066.888c1.199-15.817 6.118-30.804 14.576-44.222 7.648-12.134 17.52-22.607 27.122-33.183 9.829-10.827 19.435-21.988 26.431-34.91 7.622-14.078 11.808-29.718 12.123-45.713.232-11.76.17-23.537.098-35.299-.029-4.717.043-9.477-.242-14.192-.163-2.705-.486-5.402-1.192-8.024-1.106-4.103-3.13-7.937-6.195-10.914-6.351-6.172-15.723-7.814-24.24-8.12-22.391-.801-44.48 5.89-66.423 9.321-18.665 2.918-47.95 3.502-54.852-18.785-.708-2.286-1.1-4.65-1.297-7.032l.066.887c-1.354-19.172-1.438 61.173.033 41.117l-.066.887c1.632-19.805 12.066-38.756 22.332-55.327 11.963-19.312 26.199-36.527 41.317-53.415 9.185-10.26 18.312-21.103 22.679-34.394 3.256-9.91 3.09-20.16 3.157-30.488.09-13.92.508-27.988-.284-41.898-.197-3.47-.536-6.937-1.206-10.35-1.91-9.73-6.725-19.16-16.313-23.13-10.095-4.18-21.905-1.923-31.954 1.196-23.157 7.188-39.097 25.324-51.995 44.997-13.222 20.17-23.88 42.297-39.922 60.495-8.455 9.592-18.901 18.67-31.268 22.623-15.12 4.834-30.284.43-44.783-4.35-7.061-2.328-14.11-4.602-21.5-5.625-9.137-1.264-18.42-1.077-27.582-.184-18.13 1.768-35.988 5.983-53.886 9.249-24.369 4.446-48.995 9.89-71.308 21a136.55 136.55 0 00-14.258 8.21"/>
    <path class="home-scene-feature-icon fill-none stroke-accent" d="M160.405 127.72c-4.66-.006-9.322.265-13.954.716-18.13 1.768-35.988 5.983-53.886 9.249-24.369 4.446-48.995 9.89-71.308 21a136.55 136.55 0 00-14.258 8.21l-.004 49.641c8.308-5.39 17.174-9.913 26.407-13.605 16.618-6.647 34.129-10.771 51.66-14.167 11.722-2.27 23.468-4.429 35.199-6.649.769-.145 1.539-.29 2.309-.433m201.27 75.717l-.067.887c1.632-19.805 12.066-38.756 22.332-55.327 11.963-19.312 26.199-36.527 41.317-53.415 9.185-10.26 18.312-21.103 22.679-34.394 3.256-9.91 3.09-20.16 3.157-30.488.09-13.92.508-27.988-.284-41.898-.197-3.47-.536-6.937-1.206-10.35-1.91-9.73-6.725-19.16-16.313-23.13-10.095-4.18-21.905-1.923-31.954 1.196-23.157 7.188-39.097 25.324-51.995 44.997-13.222 20.17-23.88 42.297-39.922 60.495-8.455 9.592-18.901 18.67-31.268 22.623-13.297 4.251-26.63 1.357-39.513-2.654m161.343 106.722c-11.914-.038-24.189-2.466-31.608-10.529m67.131 237.893c.054-1.484.127-2.965.228-4.447l-.066.887c1.199-15.816 6.118-30.803 14.576-44.221 7.648-12.134 17.52-22.607 27.122-33.183 9.829-10.827 19.435-21.988 26.431-34.91 7.622-14.078 11.808-29.718 12.123-45.713.232-11.76.17-23.537.098-35.299-.029-4.717.043-9.477-.242-14.192-.163-2.705-.486-5.402-1.192-8.024-1.106-4.103-3.13-7.937-6.195-10.914-6.351-6.172-15.723-7.814-24.24-8.12-11.816-.423-23.546 1.24-35.216 3.41"/>
    <path class="home-scene-feature-icon fill-none stroke-accent" d="M518.478 403.25c-.009.245-.02.49-.032.735-.03.496-.058.993-.094 1.489l.066-.887c-.995 12.393-5.132 25.835-12.04 36.224-6.464 9.721-16.024 17.06-26.61 21.815-19.94 8.954-46.336 10.153-64.808-2.976-5.675-4.034-9.966-9.283-12.868-15.261"/>
    <path class="home-scene-feature-icon fill-none stroke-accent" d="M436.852 392.004c12.855 2.497 25.645 5.284 38.028 9.62 14.654 5.132 30 13.16 38.009 26.613M362.146 242.598c-3.773 7.618-6.693 15.644-8.267 23.982-.67 3.547-1.057 7.14-1.214 10.745-.29 6.657-.208 13.344-.225 20.003-.027 10.761-.18 21.555.205 32.313.248 6.93 1.535 13.755 4.322 20.128 5.934 13.574 18.063 24.269 31.284 30.57 5.38 2.565 11.244 4.145 17.106 5.452m22.513-234.768l.067-.887c-.62 8.178-1.983 16.276-3.916 24.244-.19.785-.277 2.29-.744 2.952-.394.557-1.686 1.05-2.264 1.42a158.443 158.443 0 00-5.075 3.384 171.003 171.003 0 00-9.719 7.285c-12.822 10.332-24.359 22.422-33.78 35.943-3.802 5.459-7.314 11.219-10.293 17.234m40.856-113.668c10.742 10.342 18.502 23.32 22.34 37.98M315.429 99.367c.432 0 .864.002 1.296.006 20.5.157 41.615 3.592 60.366 12.223m-175.142 24.695c11.294-8.577 23.536-15.905 36.877-21.537 13.934-5.882 28.622-10.115 43.591-12.635m-122.012 25.602c-21.127 26.324-38.488 55.98-57.519 83.626a550.843 550.843 0 01-10.95 15.369c-.608.822-.174 7.198-.175 7.274a1579.86 1579.86 0 00-.073 17.561c.003 5.854.006 11.708.073 17.562l.05 3.883a33.554 33.554 0 00.126 3.391c22.676-30.64 41.417-64.014 64.766-94.175 13.262-17.13 28.17-32.953 45.246-45.92m113.48-86.598c-2.081 0-4.153.034-6.21.1-39.785 1.273-79.289 14.362-110.61 39.176-14.388 11.399-26.84 24.593-38.204 38.751m242.592-48.619c-10.051-9.498-22.045-16.3-34.955-20.953"/>
    <path class="home-scene-feature-icon fill-none stroke-accent" d="M352.824 324.63c.03-.496.057-.99.091-1.485l-.066.887c1.623-20.733 12.234-39.992 24.837-56.09 6.902-8.816 14.685-16.947 23.118-24.307a175.726 175.726 0 0112.891-10.242 161.64 161.64 0 016.187-4.241c.916-.597 2.744-1.294 3.395-2.15.822-1.078.955-3.807 1.26-5.14 2.803-12.237 3.774-24.463 3.895-36.993.163-16.811.811-33.84-.401-50.632-.337-4.672-.94-9.315-1.935-13.895-2.273-10.473-6.546-20.346-12.602-29.045"/>
    <path class="home-scene-feature-icon fill-none stroke-accent" d="M436.856 342.357c-12.506-2.374-25.11-4.404-37.38-7.75-17.247-4.703-33.652-16.27-41.611-32.568m78.991 40.319c-12.136 13.382-24.271 26.836-31.576 43.604-5.904 13.552-7.68 27.8-7.87 42.468-.202 15.547-.579 31.217.143 46.755.123 2.654.38 5.308.864 7.922.856 4.611 2.408 9.096 4.715 13.185 9.091 16.111 28.002 22.79 45.676 22.707 19.009-.089 38.749-7.352 51.893-21.368 7.31-7.796 11.605-17.488 14.65-27.63 1.468-4.886 2.551-9.902 3.004-14.989.502-5.635.403-11.32.44-16.97.089-13.214.524-26.565-.233-39.766-.453-7.897-2.62-15.468-7.105-22.042-4.21-6.17-10.018-11.069-16.343-14.962-8.32-5.12-17.476-8.744-26.886-11.574m9.506-83.335l.066-.887c-1.971 25.06-14.565 46.715-30.664 65.366-3.352 3.883-6.816 7.697-10.28 11.516"/>
    <path class="home-scene-feature-icon fill-none stroke-accent" d="M412.781 52.548l.066-.887c-1.627 19.068-12.53 33.769-24.874 47.596-10.257 11.49-20.35 22.935-29.378 35.429-8.328 11.526-16.04 23.57-22.472 36.262-5.694 11.235-10.822 23.386-12.195 36.017-1.083 9.964-.547 20.176-.551 30.163-.005 9.839-.726 20.065.563 29.872.624 4.74 2.284 9.336 5.251 13.121 7.562 9.645 21.305 12.139 32.852 12.363 10.096.195 20.25-1.896 30.122-3.76 11.714-2.21 23.401-4.669 35.243-6.118 13.877-1.699 33.54-2.908 43.745 7.766"/>
    <path class="home-scene-feature-icon fill-none stroke-accent" d="M369.08 58.528a71.249 71.249 0 019.017-1.522c6.876-.71 14.19-.154 20.28 3.39 4.177 2.431 7.29 6.06 9.509 10.227M159.864 177.391c11.726-.037 22.622 2.241 33.701 5.877 10.166 3.336 20.475 6.916 31.284 7.168 20.29.474 36.745-12.716 49.099-27.551 22.002-26.422 33.84-60.527 58.981-84.464 10.12-9.634 22.583-16.7 36.15-19.893"/>
</svg>
