<?xml version="1.0" encoding="UTF-8" standalone="no"?>
<svg
   xmlns:dc="http://purl.org/dc/elements/1.1/"
   xmlns:cc="http://creativecommons.org/ns#"
   xmlns:rdf="http://www.w3.org/1999/02/22-rdf-syntax-ns#"
   xmlns:svg="http://www.w3.org/2000/svg"
   xmlns="http://www.w3.org/2000/svg"
   viewBox="0 0 257.556 73.333336"
   height="73.333336"
   width="257.556"
   xml:space="preserve"
   id="svg2"
   version="1.1"><metadata
     id="metadata8"><rdf:RDF><cc:Work
         rdf:about=""><dc:format>image/svg+xml</dc:format><dc:type
           rdf:resource="http://purl.org/dc/dcmitype/StillImage" /></cc:Work></rdf:RDF></metadata><defs
     id="defs6"><clipPath
       id="clipPath22"
       clipPathUnits="userSpaceOnUse"><path
         id="path20"
         d="M 0,55 H 193.167 V 0 H 0 Z" /></clipPath></defs><g
     transform="matrix(1.3333333,0,0,-1.3333333,0,73.333333)"
     id="g10"><text
       id="text14"
       style="font-variant:normal;font-weight:600;font-stretch:normal;font-size:18px;font-family:'Raleway SemiBold';-inkscape-font-specification:Raleway-SemiBold;writing-mode:lr-tb;fill:#5485ff;fill-opacity:1;fill-rule:nonzero;stroke:none"
       transform="matrix(1,0,0,-1,56.856,19.1831)"><tspan
         id="tspan12"
         y="0"
         x="0 18.917999 31.23 35.675999 40.284 44.73 57.492001 67.517998 73.998001 84.024002 94.643997 104.67 111.15 121.86">WC | Datanator</tspan></text>
<g
       id="g16"><g
         clip-path="url(#clipPath22)"
         id="g18"><g
           transform="translate(27.8096,47.3062)"
           id="g24"><path
             id="path26"
             style="fill:#f6bb42;fill-opacity:1;fill-rule:nonzero;stroke:none"
             d="M 0,0 0.419,-2.48 0.58,-2.454 0.667,-2.966 0.568,-2.983 C 0.468,-3 0.443,-3.134 0.468,-3.368 l -0.261,-0.044 -0.568,3.35 z" /></g><g
           transform="translate(30.3496,47.0654)"
           id="g28"><path
             id="path30"
             style="fill:#f6bb42;fill-opacity:1;fill-rule:nonzero;stroke:none"
             d="m 0,0 -0.121,-2.315 0.119,-0.006 -0.024,-0.479 -0.075,0.004 c -0.072,0.004 -0.113,-0.112 -0.136,-0.328 l -0.193,0.01 0.163,3.128 z" /></g><g
           transform="translate(21.5557,47.9155)"
           id="g32"><path
             id="path34"
             style="fill:#f6bb42;fill-opacity:1;fill-rule:nonzero;stroke:none"
             d="m 0,0 0.966,-1.258 0.162,0.124 0.2,-0.26 -0.1,-0.078 C 1.127,-1.549 1.13,-1.648 1.205,-1.777 l -0.264,-0.202 -1.418,1.84 z" /></g><g
           transform="translate(9.3838,39.875)"
           id="g36"><path
             id="path38"
             style="fill:#f6bb42;fill-opacity:1;fill-rule:nonzero;stroke:none"
             d="M 0,0 2.266,-0.1 2.278,0.196 2.747,0.175 2.739,-0.008 C 2.731,-0.191 2.842,-0.28 3.052,-0.318 L 3.031,-0.795 -0.03,-0.661 Z" /></g><g
           transform="translate(28.9561,49.6494)"
           id="g40"><path
             id="path42"
             style="fill:#f6bb42;fill-opacity:1;fill-rule:nonzero;stroke:none"
             d="m 0,0 0.171,-1.578 0.154,0.017 0.036,-0.326 -0.096,-0.01 C 0.169,-1.907 0.134,-1.993 0.135,-2.141 l -0.251,-0.027 -0.23,2.131 z" /></g><g
           transform="translate(33.7749,48.8335)"
           id="g44"><path
             id="path46"
             style="fill:#f6bb42;fill-opacity:1;fill-rule:nonzero;stroke:none"
             d="m 0,0 -0.327,-1.304 0.071,-0.32 -0.069,-0.27 -0.087,0.022 C -0.5,-1.85 -0.557,-1.907 -0.6,-2.025 l -0.229,0.058 0.487,2.049 z" /></g><g
           transform="translate(32.2705,46.4146)"
           id="g48"><path
             id="path50"
             style="fill:#f6bb42;fill-opacity:1;fill-rule:nonzero;stroke:none"
             d="m 0,0 -0.458,-1.93 0.114,-0.027 -0.093,-0.399 -0.072,0.017 c -0.071,0.016 -0.126,-0.074 -0.18,-0.251 l -0.185,0.044 0.618,2.606 z" /></g><g
           transform="translate(43.1484,38.5396)"
           id="g52"><path
             id="path54"
             style="fill:#f6bb42;fill-opacity:1;fill-rule:nonzero;stroke:none"
             d="M 0,0 -1.088,-0.748 -1.022,-0.844 -1.247,-1 -1.289,-0.938 c -0.04,0.059 -0.114,0.048 -0.222,-0.012 l -0.108,0.157 1.47,1.009 z" /></g><g
           transform="translate(18.5586,14.3247)"
           id="g56"><path
             id="path58"
             style="fill:#f6bb42;fill-opacity:1;fill-rule:nonzero;stroke:none"
             d="M 0,0 C 0.1,0.124 0.108,0.261 -0.011,0.358 -0.125,0.452 -0.263,0.419 -0.364,0.295 l -1.834,-2.25 c -0.101,-0.123 -0.109,-0.271 0.005,-0.364 0.12,-0.098 0.258,-0.055 0.358,0.068 z m -2.853,-3.129 c -0.517,0.421 -0.499,1.127 0.02,1.764 l 1.759,2.157 C -0.55,1.435 0.132,1.589 0.649,1.167 1.17,0.743 1.153,0.047 0.629,-0.596 l -1.758,-2.157 c -0.519,-0.638 -1.202,-0.801 -1.724,-0.376" /></g><g
           transform="translate(20.9824,14.4087)"
           id="g60"><path
             id="path62"
             style="fill:#f6bb42;fill-opacity:1;fill-rule:nonzero;stroke:none"
             d="M 0,0 2.959,4.648 2.296,5.082 2.908,6.042 3.318,5.774 C 3.729,5.506 4.069,5.618 4.408,6.01 L 5.482,5.309 1.484,-0.97 Z" /></g><g
           transform="translate(27.5845,19.8511)"
           id="g64"><path
             id="path66"
             style="fill:#f6bb42;fill-opacity:1;fill-rule:nonzero;stroke:none"
             d="M 0,0 2.041,3.629 1.735,3.807 2.157,4.557 2.346,4.448 c 0.19,-0.11 0.381,0.024 0.6,0.345 L 3.441,4.506 0.685,-0.396 Z" /></g><g
           transform="translate(6.5693,26.5342)"
           id="g68"><path
             id="path70"
             style="fill:#f6bb42;fill-opacity:1;fill-rule:nonzero;stroke:none"
             d="M 0,0 3.048,1.211 2.912,1.567 3.543,1.818 3.626,1.598 C 3.711,1.378 3.905,1.338 4.202,1.417 L 4.423,0.842 0.056,-0.901 Z" /></g><g
           transform="translate(21.4443,8.2168)"
           id="g72"><path
             id="path74"
             style="fill:#f6bb42;fill-opacity:1;fill-rule:nonzero;stroke:none"
             d="M 0,0 1.792,3.142 1.524,3.298 1.896,3.948 2.061,3.851 C 2.226,3.754 2.393,3.869 2.585,4.147 L 3.016,3.894 0.596,-0.35 Z" /></g><g
           transform="translate(9.5781,17.8438)"
           id="g76"><path
             id="path78"
             style="fill:#f6bb42;fill-opacity:1;fill-rule:nonzero;stroke:none"
             d="M 0,0 3.184,2.517 2.96,2.807 3.619,3.328 3.757,3.148 C 3.895,2.969 4.121,3.014 4.439,3.221 L 4.801,2.751 0.5,-0.649 Z" /></g><g
           transform="translate(43.1909,19.2632)"
           id="g80"><path
             id="path82"
             style="fill:#f6bb42;fill-opacity:1;fill-rule:nonzero;stroke:none"
             d="m 0,0 -1.697,3.4 -0.322,-0.156 -0.351,0.704 0.2,0.096 c 0.199,0.096 0.204,0.313 0.077,0.645 l 0.52,0.252 2.293,-4.593 z" /></g><g
           transform="translate(46.3408,22.729)"
           id="g84"><path
             id="path86"
             style="fill:#f6bb42;fill-opacity:1;fill-rule:nonzero;stroke:none"
             d="m 0,0 -2.677,2.158 -0.191,-0.231 -0.553,0.446 0.118,0.143 c 0.119,0.143 0.037,0.318 -0.195,0.541 l 0.31,0.374 3.616,-2.914 z" /></g><g
           transform="translate(50.8071,27.7681)"
           id="g88"><path
             id="path90"
             style="fill:#f6bb42;fill-opacity:1;fill-rule:nonzero;stroke:none"
             d="m 0,0 -1.753,0.146 -0.03,-0.297 -0.315,0.026 0.018,0.186 c 0.018,0.184 -0.05,0.276 -0.191,0.317 l 0.049,0.482 2.063,-0.177 z" /></g><g
           transform="translate(47.418,17.7295)"
           id="g92"><path
             id="path94"
             style="fill:#f6bb42;fill-opacity:1;fill-rule:nonzero;stroke:none"
             d="m 0,0 -1.686,2.167 -0.272,-0.207 -0.35,0.448 0.169,0.128 c 0.17,0.129 0.161,0.298 0.031,0.52 l 0.441,0.335 2.278,-2.927 z" /></g><g
           transform="translate(20.4741,26.2871)"
           id="g96"><path
             id="path98"
             style="fill:#f6bb42;fill-opacity:1;fill-rule:nonzero;stroke:none"
             d="M 0,0 3.032,2.29 2.836,2.557 3.462,3.03 3.584,2.865 C 3.706,2.701 3.916,2.741 4.216,2.929 L 4.534,2.498 0.438,-0.597 Z" /></g><g
           transform="translate(16.6689,34.5508)"
           id="g100"><path
             id="path102"
             style="fill:#f6bb42;fill-opacity:1;fill-rule:nonzero;stroke:none"
             d="M 0,0 3.662,1.014 3.578,1.334 4.336,1.544 4.388,1.346 C 4.44,1.148 4.65,1.108 5,1.173 L 5.136,0.654 0.188,-0.715 Z" /></g><g
           transform="translate(18.6831,42.9575)"
           id="g104"><path
             id="path106"
             style="fill:#f6bb42;fill-opacity:1;fill-rule:nonzero;stroke:none"
             d="M 0,0 3.018,-1.622 3.158,-1.37 3.782,-1.705 3.695,-1.861 C 3.609,-2.018 3.722,-2.172 3.99,-2.348 l -0.226,-0.409 -4.077,2.191 z" /></g><g
           transform="translate(21.5034,45.2407)"
           id="g108"><path
             id="path110"
             style="fill:#f6bb42;fill-opacity:1;fill-rule:nonzero;stroke:none"
             d="M 0,0 2.102,-1.996 2.274,-1.819 2.709,-2.232 2.603,-2.341 C 2.496,-2.451 2.553,-2.604 2.732,-2.805 L 2.453,-3.092 -0.386,-0.396 Z" /></g><g
           transform="translate(10.7422,30.6328)"
           id="g112"><path
             id="path114"
             style="fill:#f6bb42;fill-opacity:1;fill-rule:nonzero;stroke:none"
             d="M 0,0 4.255,1.321 4.108,1.815 4.988,2.088 5.08,1.782 C 5.17,1.477 5.428,1.403 5.839,1.479 L 6.077,0.68 0.329,-1.105 Z" /></g><g
           transform="translate(13.8735,42.7373)"
           id="g116"><path
             id="path118"
             style="fill:#f6bb42;fill-opacity:1;fill-rule:nonzero;stroke:none"
             d="m 0,0 3.016,-1 0.1,0.292 L 3.74,-0.915 3.677,-1.096 C 3.616,-1.275 3.741,-1.41 4.012,-1.531 l -0.161,-0.471 -4.372,1.416 z" /></g><g
           transform="translate(26.6328,11.7627)"
           id="g120"><path
             id="path122"
             style="fill:#f6bb42;fill-opacity:1;fill-rule:nonzero;stroke:none"
             d="M 0,0 2.109,4.924 1.404,5.234 1.84,6.253 2.277,6.061 C 2.714,5.87 3.022,6.032 3.286,6.461 L 4.428,5.96 1.579,-0.692 Z" /></g><g
           transform="translate(42.2119,12.5093)"
           id="g124"><path
             id="path126"
             style="fill:#f6bb42;fill-opacity:1;fill-rule:nonzero;stroke:none"
             d="m 0,0 -1.042,3.983 -0.469,-0.121 -0.215,0.824 0.29,0.075 c 0.289,0.074 0.371,0.311 0.318,0.694 l 0.758,0.196 1.407,-5.38 z" /></g><g
           transform="translate(46.9917,33.4209)"
           id="g128"><path
             id="path130"
             style="fill:#f6bb42;fill-opacity:1;fill-rule:nonzero;stroke:none"
             d="m 0,0 -2.41,-0.665 0.054,-0.193 -0.498,-0.138 -0.035,0.121 c -0.033,0.119 -0.171,0.14 -0.4,0.098 l -0.088,0.314 3.255,0.898 z" /></g><g
           transform="translate(44.7856,37.4624)"
           id="g132"><path
             id="path134"
             style="fill:#f6bb42;fill-opacity:1;fill-rule:nonzero;stroke:none"
             d="m 0,0 -1.666,-1.012 0.058,-0.093 -0.344,-0.21 -0.036,0.058 c -0.036,0.058 -0.137,0.033 -0.298,-0.052 l -0.093,0.152 2.25,1.367 z" /></g><g
           transform="translate(48.6631,35.2734)"
           id="g136"><path
             id="path138"
             style="fill:#f6bb42;fill-opacity:1;fill-rule:nonzero;stroke:none"
             d="m 0,0 -1.275,-0.454 0.059,-0.163 -0.221,-0.081 -0.038,0.1 c -0.037,0.1 -0.109,0.126 -0.215,0.105 l -0.098,0.262 1.653,0.594 z" /></g><g
           transform="translate(47.3511,37.437)"
           id="g140"><path
             id="path142"
             style="fill:#f6bb42;fill-opacity:1;fill-rule:nonzero;stroke:none"
             d="m 0,0 -1.13,-0.464 0.067,-0.16 -0.233,-0.096 -0.042,0.099 c -0.041,0.098 -0.117,0.12 -0.229,0.093 l -0.107,0.258 1.525,0.627 z" /></g><g
           transform="translate(45.9297,39.502)"
           id="g144"><path
             id="path146"
             style="fill:#f6bb42;fill-opacity:1;fill-rule:nonzero;stroke:none"
             d="m 0,0 -1.176,-0.674 0.067,-0.116 -0.243,-0.139 -0.043,0.072 c -0.041,0.071 -0.119,0.069 -0.235,0.018 l -0.108,0.187 1.589,0.911 z" /></g><g
           transform="translate(46.1519,35.6641)"
           id="g148"><path
             id="path150"
             style="fill:#f6bb42;fill-opacity:1;fill-rule:nonzero;stroke:none"
             d="m 0,0 -2.133,-0.826 0.051,-0.129 -0.441,-0.171 -0.032,0.08 c -0.031,0.08 -0.154,0.075 -0.357,0.011 l -0.083,0.209 2.881,1.116 z" /></g><g
           transform="translate(35.9346,15.5977)"
           id="g152"><path
             id="path154"
             style="fill:#f6bb42;fill-opacity:1;fill-rule:nonzero;stroke:none"
             d="m 0,0 c 0.018,0.2 -0.096,0.352 -0.341,0.377 -0.236,0.025 -0.386,-0.1 -0.405,-0.298 l -0.34,-3.633 c -0.018,-0.2 0.104,-0.363 0.34,-0.389 0.245,-0.025 0.387,0.111 0.405,0.311 z m -0.869,-5.25 c -1.06,0.111 -1.681,0.881 -1.585,1.91 l 0.327,3.482 c 0.097,1.038 0.849,1.654 1.908,1.543 1.07,-0.112 1.682,-0.871 1.585,-1.91 L 1.04,-3.707 C 0.943,-4.735 0.201,-5.362 -0.869,-5.25" /></g><g
           transform="translate(14.7832,36.0122)"
           id="g156"><path
             id="path158"
             style="fill:#f6bb42;fill-opacity:1;fill-rule:nonzero;stroke:none"
             d="M 0,0 C 0.139,0 0.238,0.086 0.24,0.253 0.243,0.414 0.147,0.508 0.008,0.508 l -2.535,0.009 c -0.14,0.001 -0.246,-0.092 -0.248,-0.252 -0.003,-0.168 0.1,-0.256 0.239,-0.256 z m -3.688,0.268 c 0.011,0.722 0.506,1.189 1.223,1.187 L -0.033,1.446 C 0.69,1.442 1.164,0.973 1.152,0.25 1.142,-0.479 0.653,-0.94 -0.07,-0.937 l -2.431,0.009 c -0.718,0.003 -1.199,0.466 -1.187,1.196" /></g><g
           transform="translate(17.4878,26.3325)"
           id="g160"><path
             id="path162"
             style="fill:#f6bb42;fill-opacity:1;fill-rule:nonzero;stroke:none"
             d="m 0,0 c 0.186,0.112 0.245,0.309 0.11,0.539 -0.13,0.218 -0.334,0.268 -0.52,0.155 l -3.377,-2.045 c -0.186,-0.112 -0.25,-0.324 -0.121,-0.544 0.136,-0.229 0.345,-0.263 0.53,-0.151 z m -5.123,-2.631 c -0.583,0.987 -0.311,2.021 0.645,2.6 l 3.239,1.961 c 0.965,0.584 1.982,0.332 2.565,-0.656 0.588,-0.996 0.32,-2.015 -0.645,-2.6 l -3.239,-1.961 c -0.956,-0.578 -1.977,-0.342 -2.565,0.656" /></g><g
           transform="translate(21.0107,21.8818)"
           id="g164"><path
             id="path166"
             style="fill:#f6bb42;fill-opacity:1;fill-rule:nonzero;stroke:none"
             d="M 0,0 C 0.165,0.17 0.174,0.395 -0.031,0.598 -0.227,0.792 -0.457,0.787 -0.623,0.616 L -3.64,-2.49 c -0.164,-0.171 -0.175,-0.412 0.022,-0.606 0.205,-0.204 0.436,-0.18 0.601,-0.01 z m -4.704,-4.215 c -0.883,0.876 -0.877,2.04 -0.023,2.92 l 2.892,2.978 C -0.973,2.57 0.171,2.591 1.056,1.716 1.947,0.833 1.94,-0.315 1.078,-1.204 L -1.813,-4.182 C -2.667,-5.06 -3.811,-5.099 -4.704,-4.215" /></g><g
           transform="translate(26.8691,25.5859)"
           id="g168"><path
             id="path170"
             style="fill:#f6bb42;fill-opacity:1;fill-rule:nonzero;stroke:none"
             d="M 0,0 C 0.105,0.124 0.116,0.264 -0.005,0.371 -0.12,0.472 -0.262,0.445 -0.368,0.321 l -1.923,-2.242 c -0.105,-0.123 -0.117,-0.276 -10e-4,-0.377 0.122,-0.105 0.264,-0.068 0.369,0.055 z m -2.983,-3.105 c -0.522,0.457 -0.491,1.184 0.053,1.818 l 1.843,2.151 c 0.549,0.641 1.253,0.77 1.774,0.313 0.527,-0.461 0.497,-1.178 -0.053,-1.819 l -1.842,-2.15 c -0.545,-0.635 -1.249,-0.774 -1.775,-0.313" /></g><g
           transform="translate(21.9766,31.4561)"
           id="g172"><path
             id="path174"
             style="fill:#f6bb42;fill-opacity:1;fill-rule:nonzero;stroke:none"
             d="M 0,0 C 0.13,0.07 0.183,0.194 0.107,0.337 0.035,0.475 -0.098,0.505 -0.229,0.435 l -2.379,-1.284 c -0.131,-0.07 -0.186,-0.203 -0.115,-0.341 0.076,-0.143 0.213,-0.164 0.344,-0.094 z m -3.58,-1.652 c -0.325,0.617 -0.078,1.265 0.595,1.629 l 2.282,1.231 C -0.024,1.575 0.638,1.417 0.964,0.799 1.292,0.175 1.049,-0.463 0.369,-0.829 L -1.912,-2.061 C -2.585,-2.424 -3.25,-2.276 -3.58,-1.652" /></g><g
           transform="translate(20.5693,37.9756)"
           id="g176"><path
             id="path178"
             style="fill:#f6bb42;fill-opacity:1;fill-rule:nonzero;stroke:none"
             d="M 0,0 C 0.142,-0.02 0.253,0.039 0.273,0.178 0.293,0.311 0.205,0.402 0.062,0.422 l -2.594,0.362 c -0.142,0.02 -0.26,-0.043 -0.28,-0.177 -0.021,-0.138 0.076,-0.225 0.218,-0.245 z m -3.746,0.738 c 0.089,0.599 0.646,0.919 1.381,0.817 L 0.122,1.208 C 0.863,1.104 1.297,0.647 1.207,0.048 1.116,-0.558 0.567,-0.873 -0.173,-0.77 l -2.489,0.347 c -0.733,0.103 -1.175,0.556 -1.084,1.161" /></g><g
           transform="translate(19.6968,44.2012)"
           id="g180"><path
             id="path182"
             style="fill:#f6bb42;fill-opacity:1;fill-rule:nonzero;stroke:none"
             d="M 0,0 C 0.067,-0.051 0.15,-0.044 0.214,0.041 0.277,0.122 0.266,0.205 0.199,0.257 L -1.038,1.194 C -1.105,1.247 -1.192,1.238 -1.255,1.157 -1.32,1.073 -1.303,0.991 -1.236,0.938 Z m -1.7,1.495 c 0.282,0.364 0.702,0.419 1.052,0.153 l 1.185,-0.9 C 0.89,0.48 0.94,0.067 0.659,-0.297 0.375,-0.664 -0.04,-0.718 -0.393,-0.451 L -1.577,0.45 C -1.927,0.715 -1.984,1.128 -1.7,1.495" /></g><g
           transform="translate(25.6675,44.1484)"
           id="g184"><path
             id="path186"
             style="fill:#f6bb42;fill-opacity:1;fill-rule:nonzero;stroke:none"
             d="m 0,0 c 0.059,-0.092 0.136,-0.133 0.207,-0.09 0.068,0.043 0.066,0.132 0.006,0.224 L -0.865,1.812 C -0.924,1.903 -1.008,1.949 -1.076,1.906 -1.146,1.861 -1.138,1.77 -1.079,1.678 Z M -1.464,2.509 C -1.161,2.7 -0.756,2.501 -0.451,2.027 L 0.583,0.418 c 0.309,-0.479 0.316,-0.92 0.013,-1.111 -0.307,-0.193 -0.706,0.004 -1.014,0.483 l -1.034,1.608 c -0.305,0.475 -0.319,0.919 -0.012,1.111" /></g><g
           transform="translate(25.9941,47.6401)"
           id="g188"><path
             id="path190"
             style="fill:#f6bb42;fill-opacity:1;fill-rule:nonzero;stroke:none"
             d="M 0,0 C 0.022,-0.064 0.072,-0.099 0.134,-0.078 0.197,-0.057 0.216,0 0.193,0.065 l -0.412,1.18 C -0.241,1.31 -0.294,1.346 -0.354,1.326 -0.419,1.304 -0.436,1.244 -0.413,1.18 Z M -0.503,1.75 C -0.228,1.842 0.028,1.676 0.146,1.342 L 0.541,0.211 c 0.117,-0.336 0.017,-0.62 -0.258,-0.713 -0.277,-0.094 -0.531,0.07 -0.648,0.408 l -0.396,1.13 c -0.116,0.334 -0.02,0.62 0.258,0.714" /></g><g
           transform="translate(31.2573,47.6035)"
           id="g192"><path
             id="path194"
             style="fill:#f6bb42;fill-opacity:1;fill-rule:nonzero;stroke:none"
             d="m 0,0 c -0.009,-0.065 0,-0.114 0.032,-0.119 0.03,-0.005 0.053,0.039 0.063,0.105 L 0.26,1.185 C 0.271,1.25 0.259,1.302 0.229,1.307 0.198,1.312 0.175,1.265 0.166,1.199 Z M 0.289,1.738 C 0.424,1.718 0.48,1.475 0.433,1.135 L 0.274,-0.015 C 0.227,-0.357 0.107,-0.572 -0.028,-0.551 -0.165,-0.529 -0.22,-0.289 -0.172,0.054 l 0.159,1.149 C 0.034,1.542 0.152,1.76 0.289,1.738" /></g><g
           transform="translate(31.041,9.853)"
           id="g196"><path
             id="path198"
             style="fill:#f6bb42;fill-opacity:1;fill-rule:nonzero;stroke:none"
             d="M 0,0 C 0.026,0.12 -0.025,0.219 -0.158,0.25 -0.287,0.28 -0.381,0.214 -0.407,0.095 L -0.89,-2.083 c -0.027,-0.12 0.028,-0.227 0.157,-0.257 0.134,-0.031 0.223,0.043 0.25,0.162 z m -0.906,-3.124 c -0.579,0.134 -0.86,0.64 -0.724,1.256 L -1.166,0.22 C -1.028,0.842 -0.562,1.168 0.015,1.034 0.598,0.899 0.876,0.4 0.738,-0.222 L 0.275,-2.31 C 0.138,-2.926 -0.324,-3.259 -0.906,-3.124" /></g><g
           transform="translate(39.4951,11.2642)"
           id="g200"><path
             id="path202"
             style="fill:#f6bb42;fill-opacity:1;fill-rule:nonzero;stroke:none"
             d="m 0,0 c -0.007,0.087 -0.077,0.144 -0.203,0.136 -0.12,-0.007 -0.185,-0.074 -0.179,-0.16 l 0.118,-1.592 c 0.006,-0.087 0.081,-0.149 0.202,-0.141 0.125,0.008 0.186,0.078 0.179,0.165 z m -0.021,-2.33 c -0.541,-0.034 -0.915,0.249 -0.949,0.7 l -0.112,1.526 c -0.034,0.455 0.295,0.778 0.838,0.813 0.547,0.035 0.915,-0.245 0.949,-0.7 L 0.817,-1.516 C 0.851,-1.967 0.527,-2.295 -0.021,-2.33" /></g><g
           transform="translate(34.1226,22.0693)"
           id="g204"><path
             id="path206"
             style="fill:#f6bb42;fill-opacity:1;fill-rule:nonzero;stroke:none"
             d="M 0,0 C 0.037,0.159 -0.019,0.289 -0.174,0.327 -0.325,0.363 -0.437,0.274 -0.474,0.116 L -1.147,-2.76 c -0.037,-0.158 0.023,-0.298 0.172,-0.335 0.157,-0.038 0.266,0.061 0.303,0.219 z m -1.217,-4.13 c -0.674,0.165 -0.981,0.824 -0.79,1.638 l 0.645,2.759 c 0.193,0.821 0.756,1.26 1.429,1.096 C 0.748,1.196 1.051,0.545 0.859,-0.276 L 0.214,-3.035 C 0.023,-3.848 -0.537,-4.296 -1.217,-4.13" /></g><g
           transform="translate(38.5098,21.9644)"
           id="g208"><path
             id="path210"
             style="fill:#f6bb42;fill-opacity:1;fill-rule:nonzero;stroke:none"
             d="M 0,0 C -0.013,0.162 -0.105,0.27 -0.265,0.258 -0.419,0.247 -0.5,0.127 -0.487,-0.034 l 0.239,-2.945 c 0.013,-0.161 0.113,-0.276 0.267,-0.265 0.16,0.011 0.233,0.139 0.221,0.3 z m 0.104,-4.304 c -0.691,-0.049 -1.186,0.485 -1.253,1.319 l -0.229,2.823 c -0.069,0.84 0.335,1.431 1.026,1.479 C 0.347,1.368 0.833,0.84 0.902,0 L 1.131,-2.823 C 1.2,-3.657 0.804,-4.254 0.104,-4.304" /></g><g
           transform="translate(45.1099,27.8052)"
           id="g212"><path
             id="path214"
             style="fill:#f6bb42;fill-opacity:1;fill-rule:nonzero;stroke:none"
             d="m 0,0 c -0.122,0.057 -0.235,0.039 -0.291,-0.074 -0.051,-0.108 0.004,-0.211 0.126,-0.268 l 2.221,-1.042 c 0.123,-0.058 0.245,-0.038 0.297,0.07 0.054,0.113 -0.01,0.214 -0.132,0.272 z M 3.153,-1.689 C 2.919,-2.174 2.339,-2.289 1.711,-1.994 l -2.129,0.999 c -0.637,0.299 -0.906,0.811 -0.672,1.297 0.237,0.49 0.807,0.602 1.442,0.304 l 2.13,-1 C 3.11,-0.688 3.389,-1.199 3.153,-1.689" /></g><g
           transform="translate(45.0732,30.7383)"
           id="g216"><path
             id="path218"
             style="fill:#f6bb42;fill-opacity:1;fill-rule:nonzero;stroke:none"
             d="m 0,0 c -0.129,0.005 -0.222,-0.053 -0.228,-0.171 -0.005,-0.114 0.082,-0.184 0.21,-0.188 l 2.342,-0.092 c 0.129,-0.004 0.229,0.058 0.234,0.172 0.006,0.118 -0.088,0.183 -0.216,0.189 z M 3.401,-0.312 C 3.376,-0.823 2.91,-1.138 2.247,-1.112 l -2.246,0.087 c -0.669,0.026 -1.096,0.375 -1.072,0.886 0.026,0.517 0.486,0.826 1.154,0.8 L 2.329,0.574 C 2.993,0.549 3.427,0.204 3.401,-0.312" /></g><g
           transform="translate(48.6855,24.0078)"
           id="g220"><path
             id="path222"
             style="fill:#f6bb42;fill-opacity:1;fill-rule:nonzero;stroke:none"
             d="M 0,0 C -0.07,0.034 -0.145,0.008 -0.193,-0.088 -0.24,-0.18 -0.219,-0.259 -0.149,-0.293 l 1.28,-0.633 c 0.071,-0.035 0.15,-0.007 0.198,0.086 0.049,0.096 0.021,0.172 -0.049,0.207 z M 1.79,-1.068 C 1.578,-1.485 1.195,-1.633 0.833,-1.454 l -1.227,0.607 c -0.365,0.18 -0.471,0.57 -0.26,0.987 0.213,0.42 0.591,0.566 0.955,0.385 L 1.528,-0.082 C 1.891,-0.26 2.002,-0.648 1.79,-1.068" /></g><g
           transform="translate(9.5684,33.1426)"
           id="g224"><path
             id="path226"
             style="fill:#f6bb42;fill-opacity:1;fill-rule:nonzero;stroke:none"
             d="M 0,0 C 0.113,0.026 0.177,0.114 0.148,0.25 0.12,0.382 0.025,0.44 -0.088,0.416 l -2.061,-0.458 c -0.114,-0.024 -0.183,-0.12 -0.155,-0.251 0.029,-0.136 0.129,-0.188 0.242,-0.164 z m -3.046,-0.457 c -0.124,0.59 0.192,1.059 0.775,1.188 l 1.976,0.437 C 0.294,1.3 0.766,1.004 0.89,0.415 1.015,-0.18 0.704,-0.643 0.115,-0.774 L -1.86,-1.211 c -0.584,-0.13 -1.06,0.159 -1.186,0.754" /></g><g
           transform="translate(48.54,32.5483)"
           id="g228"><path
             id="path230"
             style="fill:#f6bb42;fill-opacity:1;fill-rule:nonzero;stroke:none"
             d="m 0,0 c -0.042,0.001 -0.073,-0.028 -0.076,-0.088 -0.002,-0.058 0.026,-0.093 0.069,-0.094 l 0.769,-0.034 c 0.043,-0.003 0.075,0.029 0.078,0.088 0.002,0.06 -0.028,0.092 -0.07,0.094 z M 1.117,-0.142 C 1.106,-0.4 0.951,-0.562 0.733,-0.552 l -0.738,0.032 c -0.22,0.01 -0.359,0.185 -0.348,0.444 0.011,0.262 0.165,0.421 0.384,0.411 L 0.77,0.303 C 0.987,0.292 1.128,0.121 1.117,-0.142" /></g><g
           transform="translate(38.1733,39.8257)"
           id="g232"><path
             id="path234"
             style="fill:#f6bb42;fill-opacity:1;fill-rule:nonzero;stroke:none"
             d="m 0,0 c 4.847,-4.058 6.455,-10.12 3.591,-13.542 -2.863,-3.422 -9.115,-2.906 -13.962,1.151 -4.847,4.058 -6.456,10.12 -3.591,13.542 C -11.099,4.572 -4.848,4.057 0,0" /></g><g
           transform="translate(40.125,9.4331)"
           id="g236"><path
             id="path238"
             style="fill:#f6bb42;fill-opacity:1;fill-rule:nonzero;stroke:none"
             d="m 0,0 c -10.043,-5.687 -22.224,-1.847 -28.722,5.973 -5.236,6.3 -8.011,20.572 -0.113,25.358 5.773,3.5 6.735,5.625 10.619,7.236 6.765,2.808 14.531,2.224 22.89,-7.236 C 13.278,21.595 13.05,7.391 0,0 M 11.038,20.151 C 9.897,25.705 6.125,30.618 2.28,34.178 c -3.845,3.56 -5.732,4.45 -8.438,5.447 -2.705,0.997 -6.088,0.961 -8.437,0.641 -1.841,-0.251 -5.982,-1.602 -8.403,-3.881 -2.64,-2.484 -6.278,-3.77 -7.547,-4.842 -5.731,-4.841 -4.278,-16.12 -3.845,-17.943 0.997,-4.201 2.813,-8.686 7.832,-12.959 5.793,-4.93 14.96,-5.591 19.653,-4.557 6.621,1.46 12.282,5.162 14.845,9.15 2.564,3.987 4.237,9.362 3.098,14.917" /></g></g></g></g></svg>