<?xml version="1.0" encoding="UTF-8" standalone="no"?>
<svg
   xmlns:dc="http://purl.org/dc/elements/1.1/"
   xmlns:cc="http://creativecommons.org/ns#"
   xmlns:rdf="http://www.w3.org/1999/02/22-rdf-syntax-ns#"
   xmlns:svg="http://www.w3.org/2000/svg"
   xmlns="http://www.w3.org/2000/svg"
   xmlns:sodipodi="http://sodipodi.sourceforge.net/DTD/sodipodi-0.dtd"
   xmlns:inkscape="http://www.inkscape.org/namespaces/inkscape"
   width="2183.6719"
   height="1473.3809"
   viewBox="0 0 223.608 150.91754"
   preserveAspectRatio="xMidYMid"
   version="1.1"
   id="svg13"
   sodipodi:docname="gunicorn.svg"
   inkscape:version="0.92.3 (2405546, 2018-03-11)">
  <metadata
     id="metadata17">
    <rdf:RDF>
      <cc:Work
         rdf:about="">
        <dc:format>image/svg+xml</dc:format>
        <dc:type
           rdf:resource="http://purl.org/dc/dcmitype/StillImage" />
        <dc:title></dc:title>
      </cc:Work>
    </rdf:RDF>
  </metadata>
  <sodipodi:namedview
     pagecolor="#ffffff"
     bordercolor="#666666"
     borderopacity="1"
     objecttolerance="10"
     gridtolerance="10"
     guidetolerance="10"
     inkscape:pageopacity="0"
     inkscape:pageshadow="2"
     inkscape:window-width="776"
     inkscape:window-height="480"
     id="namedview15"
     showgrid="false"
     fit-margin-top="0"
     fit-margin-left="0"
     fit-margin-right="0"
     fit-margin-bottom="0"
     inkscape:zoom="0.1108"
     inkscape:cx="1092.5513"
     inkscape:cy="711.88082"
     inkscape:window-x="0"
     inkscape:window-y="0"
     inkscape:window-maximized="0"
     inkscape:current-layer="svg13" />
  <defs
     id="defs7" />
  <path
     d="m 94.511626,150.146 c -2.477,-0.789 -2.486,-1.137 -0.204,-8.065 2.279,-6.918 1.234,-13.343 -2.99,-18.393 -5.743,-6.867 -8.51,-12.727 -9.391,-19.897 -0.757,-6.156 -0.997,-6.644 -3.503,-7.125 -1.68,-0.322 -4.003,0.317 -9.537,2.625 -8.052,3.359 -9.97,4.834 -11.87,9.128 -0.997,2.256 -1.117,3.607 -0.551,6.217 0.691,3.186 3.524,8.316 4.597,8.322 0.28,0.002 1.826,1.061 3.436,2.354 2.671,2.145 2.855,2.517 2.099,4.266 -1.643,3.799 -5.545,8.405 -7.122,8.405 -0.884,0 -4.495,-2.53 -8.47,-5.934 -7.81,-6.686 -8.137,-7.356 -8.943,-18.316 -0.962,-13.076 2.253,-19.179 16.575,-31.456 l 8.982,-7.7 0.574,-4.672 c 0.591,-4.815 -0.243,-16.28 -1.645,-22.61 -0.828,-3.738 -3.56,-7.3 -6.154,-8.019 -2.826,-0.784 -4.482,0.834 -6.632,6.476 -2.32,6.088 -4.536,8.212 -8.57,8.212 -2.513,0 -4.859,-1.608 -6.478,-4.44 -1.16,-2.03 -1.834,-14.223 -1.14,-20.642 0.334,-3.087 0.353,-6.213 0.043,-6.947 -0.505,-1.193 -4.853,-3.773 -15.103,-8.964 -1.863,-0.944 -4.035,-2.215 -4.827,-2.824 -0.792,-0.61 -2.846,-1.73 -4.565,-2.49 C 9.2286263,5.938 -0.92437368,0 0.02562632,0 1.8246263,0 9.4456263,2.346 13.501626,4.148 c 2.477,1.1 4.847,2 5.268,2 0.421,0 5.196,1.537 10.61,3.415 5.415,1.879 10.364,3.416 10.998,3.416 1.506,0 1.742,-1.303 1.26,-6.95 -0.22,-2.564 -0.21,-4.663 0.02,-4.663 0.232,0 1.23,0.495 2.218,1.1 3.02,1.85 9.516,2.982 17.15,2.99 7.301,0.01 16.83,1.457 20.472,3.112 5.225,2.374 11.285,9.79 18.973004,23.216 5.344,9.334 11.087,13.286 19.317,13.295 3.327,0.004 12.204,-1.368 24.225,-3.743 9.911,-1.958 22.996,-2.398 28.075,-0.944 6.195,1.774 14.388,6.515 21.161,12.247 6.34,5.366 7.317,6.557 11.211,13.677 4.648,8.496 9.777,20.572 14.339,33.756 0.65,1.878 2.023,5.038 3.05,7.022 2.743,5.292 2.607,5.615 -2.377,5.615 -5.41,0 -7.947,-0.853 -11.493,-3.864 -3.401,-2.889 -4.29,-4.656 -9.613,-19.12 -2.727,-7.408 -5.381,-11.853 -7.078,-11.853 -1.162,0 -3.515,7.939 -3.515,11.861 0,2.786 1.746,6.55 6.26,13.494 7.331,11.28 11.189,27.228 9.645,39.88 l -0.667,5.464 -4.887,0.203 c -7.693,0.32 -7.616,0.427 -7.616,-10.574 0,-11.711 -0.798,-14.248 -5.966,-18.971 -2.147,-1.962 -6.963,-7.536 -10.703,-12.387 -3.74,-4.85 -7.322,-8.82 -7.96,-8.82 -1.464,0 -2.195,3.99 -2.273,12.414 -0.05,5.549 -0.27,6.488 -1.906,8.197 -4.438,4.635 -7.553,13.075 -9.473,25.666 -0.425,2.787 -0.79,3.308 -2.596,3.714 -2.657,0.596 -10.017,0.694 -10.652,0.141 -0.547,-0.477 0.412,-8.045 2.586,-20.417 0.826,-4.696 1.727,-10.998 2.002,-14.004 0.491,-5.35 -0.606,-15.374 -1.904,-17.403 -0.54,-0.843 -3.289,-1.026 -16.147,-1.073 -8.522,-0.031 -17.87,-0.311 -20.77,-0.623 l -5.275004,-0.566 v 2.34 c 0,2.507 0.643004,4.717 4.939004,16.984 1.513,4.32 3.706,10.907 4.872,14.637 l 2.122,6.781 -1.79,5.514 c -0.985,3.033 -2.446,6.667 -3.248,8.076 -1.413,2.485 -1.579,2.56 -5.543,2.508 -2.248004,-0.03 -5.088004,-0.373 -6.311004,-0.762 z"
     id="path11"
     inkscape:connector-curvature="0"
     style="fill:#499848" />
</svg>
