<svg xmlns="http://www.w3.org/2000/svg" viewBox="0 0 64 64">
    <style>
        .st0{fill:#1890ff}.st1{fill:#39aaff}
    </style>
    <g id="Letters">
        <path class="st0" d="M58.994 44.603L49.86 30.9v13.702h-6.228v-25.26h5.706l8.433 12.749v-12.75H64v25.26z"/>
        <path class="st0" d="M44.616 20.328h4.192l9.948 15.038V20.328h4.259v23.29h-3.493l-10.648-15.97v15.97h-4.258v-23.29zM21.993 31.34c-.355-.207-.825-.313-1.398-.313-.75 0-1.406.238-2.006.727-.645.524-1.158 1.24-1.526 2.126a7.735 7.735 0 00-.573 2.982c0 .994.179 1.741.516 2.163.301.377.68.545 1.227.545 1.067 0 1.96-.668 2.734-2.043.84-1.494 1.46-3.333 1.845-5.47a3.188 3.188 0 00-.819-.716z"/>
        <path class="st0" d="M20.178 8.7L0 20.35v23.3L20.178 55.3l20.178-11.65v-23.3L20.178 8.7zm8.042 27.417c-.801 2.485-2.073 4.58-3.78 6.229-1.78 1.717-4.013 2.589-6.64 2.589-2.482 0-4.383-.735-5.65-2.183-1.231-1.411-1.856-3.303-1.856-5.623 0-2.017.387-3.91 1.15-5.624.777-1.75 1.903-3.17 3.348-4.222 1.474-1.075 3.191-1.62 5.104-1.62 1.19 0 2.252.23 3.178.687-.124-.62-.34-1.136-.641-1.543-.451-.605-1.194-.9-2.27-.9-1.153 0-2.452.347-3.862 1.032l-1.416.687v-5.798l.617-.249a14.197 14.197 0 015.326-1.036c3.05 0 5.283.955 6.639 2.839 1.282 1.783 1.932 4.249 1.932 7.33a24.13 24.13 0 01-1.18 7.405z"/>
        <path class="st1" d="M22.813 32.058a3.188 3.188 0 00-.82-.717c-.355-.208-.825-.314-1.398-.314-.144 0-.28.017-.417.034v7.57c.276-.298.54-.66.79-1.104.839-1.494 1.459-3.333 1.845-5.47zm-.38-7.251c-.449-.602-1.187-.896-2.255-.899v1.77c1.073.034 2.045.252 2.896.672-.124-.62-.34-1.136-.641-1.543z"/>
        <path class="st1" d="M20.178 8.7v9.874c.217-.01.432-.031.65-.031 3.05 0 5.283.955 6.639 2.839 1.282 1.783 1.932 4.249 1.932 7.33a24.13 24.13 0 01-1.18 7.405c-.8 2.485-2.072 4.58-3.78 6.229a8.964 8.964 0 01-4.261 2.315V55.3l20.178-11.65v-23.3L20.178 8.7z"/>
    </g>
</svg>
