<svg xmlns="http://www.w3.org/2000/svg" width="64" height="64" viewBox="0 0 64 64">
    <path fill="#1890FF" d="M40.355 43.65L20.178 55.3 0 43.65v-23.3L20.178 8.7l20.177 11.65z"/>
    <path fill="#39AAFF" d="M20.178 8.7l20.177 11.65v23.3L20.178 55.3"/>
    <g fill="#1890FF">
        <path d="M58.994 44.603L49.86 30.9v13.702h-6.228v-25.26h5.706l8.434 12.749v-12.75H64v25.26z"/>
        <path d="M44.616 20.328h4.192l9.948 15.038V20.328h4.259v23.29H59.52l-10.646-15.97v15.97h-4.259v-23.29z"/>
    </g>
    <g fill="#FFF">
        <path d="M17.8 44.935c-2.482 0-4.383-.735-5.65-2.183-1.231-1.411-1.856-3.303-1.856-5.623 0-2.017.387-3.91 1.15-5.624.777-1.75 1.903-3.17 3.348-4.222 1.474-1.075 3.191-1.62 5.104-1.62 1.19 0 2.251.23 3.178.687-.124-.62-.34-1.136-.641-1.543-.451-.605-1.194-.9-2.27-.9-1.153 0-2.452.347-3.862 1.032l-1.416.687v-5.798l.617-.249a14.196 14.196 0 015.326-1.036c3.05 0 5.283.955 6.639 2.839 1.282 1.783 1.932 4.249 1.932 7.33a24.11 24.11 0 01-1.18 7.405c-.8 2.485-2.072 4.58-3.78 6.229-1.778 1.717-4.012 2.589-6.639 2.589zm2.795-13.908c-.75 0-1.406.238-2.006.727-.645.524-1.158 1.24-1.526 2.126a7.735 7.735 0 00-.573 2.982c0 .994.178 1.742.516 2.163.301.377.68.545 1.227.545 1.067 0 1.96-.668 2.734-2.043.84-1.494 1.46-3.333 1.846-5.47a3.186 3.186 0 00-.82-.716c-.355-.208-.825-.314-1.398-.314z"/>
        <path d="M26.667 21.957c1.164 1.62 1.747 3.871 1.747 6.755 0 2.394-.378 4.763-1.132 7.102-.754 2.34-1.929 4.28-3.526 5.823s-3.583 2.312-5.956 2.312c-2.196 0-3.832-.615-4.907-1.845-1.077-1.233-1.614-2.89-1.614-4.975 0-1.886.355-3.627 1.065-5.225.71-1.596 1.719-2.87 3.028-3.825 1.308-.953 2.816-1.43 4.524-1.43 1.797 0 3.228.587 4.292 1.762v-.632c0-1.508-.322-2.695-.965-3.56-.643-.865-1.663-1.297-3.06-1.297-1.31 0-2.74.377-4.293 1.131v-3.56a13.154 13.154 0 014.958-.965c2.728 0 4.674.81 5.839 2.429zM21.826 38.01c.953-1.697 1.63-3.765 2.03-6.204-.4-.577-.855-1.015-1.364-1.315-.512-.3-1.143-.449-1.897-.449-.976 0-1.852.315-2.628.948-.777.632-1.382 1.47-1.814 2.512a8.682 8.682 0 00-.648 3.36c0 1.242.243 2.17.731 2.779.488.61 1.154.915 1.997.915 1.441 0 2.64-.849 3.593-2.546z"/>
    </g>
</svg>
