<?xml version="1.0" encoding="utf-8"?>
<!-- Generator: Adobe Illustrator 16.0.0, SVG Export Plug-In . SVG Version: 6.00 Build 0)  -->
<!DOCTYPE svg PUBLIC "-//W3C//DTD SVG 1.1//EN" "http://www.w3.org/Graphics/SVG/1.1/DTD/svg11.dtd">
<svg version="1.1" xmlns="http://www.w3.org/2000/svg" xmlns:xlink="http://www.w3.org/1999/xlink" x="0px" y="0px" width="64px"
	 height="64px" viewBox="0 0 64 64" enable-background="new 0 0 64 64" xml:space="preserve">
<g id="Guides">
</g>
<g id="Background-Hexagon">
	<polygon fill="#1890FF" points="40.355469,43.650391 20.177734,55.298828 0,43.650391 0,20.350586 20.177734,8.700195 
		40.355469,20.350586 	"/>
	<polyline fill="#39AAFF" points="20.177734,8.700195 40.355469,20.350586 40.355469,43.650391 20.177734,55.298828 	"/>
</g>
<g id="Letters">
	<g>
		<polygon fill="#1890FF" points="58.994141,44.602539 49.859375,30.901367 49.859375,44.602539 43.630859,44.602539 
			43.630859,19.342773 49.337402,19.342773 57.770508,32.091797 57.770508,19.342773 64,19.342773 64,44.602539 		"/>
		<path fill="#1890FF" d="M44.616211,20.327637h4.191895l9.947754,15.038574V20.327637h4.258789v23.289551h-3.493164
			L48.874512,27.647461v15.969727h-4.258301V20.327637z"/>
	</g>
	<g>
		<path fill="#FFFFFF" d="M17.800293,44.93457c-2.482422,0-4.383301-0.734375-5.649414-2.182617
			c-1.231934-1.411133-1.856934-3.302734-1.856934-5.623047c0-2.016602,0.386719-3.90918,1.149902-5.624023
			c0.776855-1.749023,1.902832-3.169922,3.347656-4.22168c1.474609-1.075195,3.191895-1.619629,5.10498-1.619629
			c1.188965,0,2.250977,0.22998,3.177246,0.686035c-0.124023-0.619629-0.338867-1.135742-0.641113-1.54248
			c-0.450684-0.605469-1.193359-0.899902-2.270508-0.899902c-1.151855,0-2.451172,0.347168-3.861328,1.031738l-1.415527,0.6875
			v-5.79834l0.617188-0.249023c1.70752-0.6875,3.499023-1.036133,5.325684-1.036133c3.049805,0,5.283203,0.955078,6.638672,2.838867
			c1.282227,1.783203,1.932129,4.249023,1.932129,7.330078c0,2.485352-0.396973,4.976563-1.179199,7.405273
			c-0.800781,2.484375-2.072754,4.580078-3.779785,6.228516C22.660645,44.0625,20.426758,44.93457,17.800293,44.93457z
			 M20.594727,31.027344c-0.75,0-1.405762,0.237305-2.005371,0.726563c-0.64502,0.524414-1.158691,1.240234-1.525879,2.125977
			c-0.380859,0.916992-0.57373,1.920898-0.57373,2.982422c0,0.994141,0.178711,1.741211,0.516113,2.163086
			c0.30127,0.376953,0.680176,0.544922,1.227051,0.544922c1.066895,0,1.960938-0.667969,2.734375-2.042969
			c0.839355-1.494141,1.459473-3.333008,1.845215-5.469727c-0.253418-0.304688-0.52832-0.544922-0.819336-0.716797
			C21.638184,31.132813,21.167969,31.027344,20.594727,31.027344z"/>
		<path fill="#FFFFFF" d="M26.666992,21.957031c1.164063,1.619141,1.746582,3.871094,1.746582,6.754883
			c0,2.394531-0.377441,4.762695-1.131348,7.102539c-0.754395,2.339844-1.929199,4.280273-3.526367,5.822266
			s-3.58252,2.3125-5.955566,2.3125c-2.195801,0-3.832031-0.615234-4.907715-1.845703
			c-1.076172-1.232422-1.613281-2.889648-1.613281-4.974609c0-1.885742,0.354492-3.626953,1.064453-5.224609
			c0.709473-1.59668,1.71875-2.871094,3.027832-3.825195c1.308594-0.953125,2.816406-1.430664,4.524902-1.430664
			c1.796387,0,3.227051,0.587891,4.291504,1.762695v-0.631836c0-1.507813-0.321777-2.694824-0.964844-3.560059
			c-0.643555-0.864746-1.663574-1.297363-3.061035-1.297363c-1.308594,0-2.739258,0.377441-4.291992,1.131348v-3.560059
			c1.597168-0.643066,3.249023-0.964844,4.958008-0.964844C23.556152,19.52832,25.502441,20.338379,26.666992,21.957031z
			 M21.825684,38.009766c0.953613-1.696289,1.630371-3.764648,2.029785-6.204102
			c-0.399414-0.577148-0.854004-1.014648-1.36377-1.314453c-0.51123-0.299805-1.143066-0.449219-1.896973-0.449219
			c-0.976074,0-1.852051,0.31543-2.62793,0.948242c-0.776855,0.631836-1.381348,1.469727-1.813477,2.511719
			c-0.432617,1.042969-0.648438,2.163086-0.648438,3.360352c0,1.242188,0.243164,2.168945,0.731445,2.77832
			c0.487793,0.610352,1.15332,0.915039,1.996582,0.915039C19.674316,40.555664,20.87207,39.707031,21.825684,38.009766z"/>
	</g>
</g>
</svg>
