<?xml version="1.0" encoding="utf-8"?>
<!-- Generator: Adobe Illustrator 24.0.2, SVG Export Plug-In . SVG Version: 6.00 Build 0)  -->
<svg version="1.1" xmlns="http://www.w3.org/2000/svg" xmlns:xlink="http://www.w3.org/1999/xlink" x="0px" y="0px"
	 viewBox="0 0 64 64" style="enable-background:new 0 0 64 64;" xml:space="preserve">
<style type="text/css">
	.st0{fill:#1890FF;}
	.st1{fill:#39AAFF;}
</style>
<g id="Guides">
</g>
<g id="Background-Hexagon">
</g>
<g id="Letters">
	<g>
		<polygon class="st0" points="58.994099,44.602501 49.859402,30.9014 49.859402,44.602501 43.630901,44.602501 43.630901,19.3428
			49.337399,19.3428 57.7705,32.091801 57.7705,19.3428 64,19.3428 64,44.602501 		"/>
		<path class="st0" d="M44.616199,20.3276h4.191902l9.9478,15.038599V20.3276h4.258698v23.289598H59.5215L48.8745,27.647499v15.9697
			h-4.258301V20.3276z"/>
	</g>
	<g>
		<path class="st0" d="M21.993225,31.340759c-0.355042-0.207947-0.825195-0.313477-1.398499-0.313477
			c-0.75,0-1.405701,0.237305-2.00531,0.726624c-0.645142,0.524353-1.158691,1.240173-1.52594,2.125977
			c-0.380859,0.916992-0.573792,1.920898-0.573792,2.982422c0,0.99408,0.178833,1.74115,0.516235,2.163086
			c0.301208,0.376892,0.680054,0.544922,1.22699,0.544922c1.066895,0,1.960876-0.66803,2.734375-2.04303
			c0.839294-1.49408,1.459534-3.333008,1.845215-5.469727C22.559082,31.752869,22.28418,31.512695,21.993225,31.340759z"/>
		<path class="st0" d="M20.177673,8.700195L0,20.350586v23.299805l20.177673,11.648376L40.35553,43.650391V20.350586
			L20.177673,8.700195z M28.219727,36.117188c-0.800842,2.484375-2.072754,4.580078-3.779846,6.228516
			c-1.779297,1.716797-4.013062,2.588867-6.639587,2.588867c-2.482422,0-4.383301-0.734375-5.649414-2.182556
			c-1.231995-1.411255-1.856995-3.302856-1.856995-5.623108c0-2.016602,0.386841-3.909241,1.149902-5.624023
			c0.776917-1.749023,1.902893-3.169922,3.347717-4.22168c1.474609-1.075195,3.191895-1.619629,5.10498-1.619629
			c1.188904,0,2.251038,0.22998,3.177246,0.686035c-0.124023-0.619629-0.338806-1.135742-0.641113-1.542542
			c-0.450745-0.605408-1.193298-0.899902-2.270508-0.899902c-1.151794,0-2.451233,0.347229-3.861328,1.031799l-1.415466,0.6875
			v-5.798401l0.617065-0.248962c1.707642-0.6875,3.499146-1.036133,5.325745-1.036133
			c3.049805,0,5.283203,0.955017,6.638672,2.838806c1.282227,1.783203,1.932129,4.249084,1.932129,7.330139
			C29.398926,31.197266,29.002014,33.688477,28.219727,36.117188z"/>
	</g>
	<g>
		<path class="st1" d="M22.8125,32.057556c-0.253418-0.304688-0.52832-0.544861-0.819275-0.716797
			c-0.355042-0.207947-0.825195-0.313477-1.398499-0.313477c-0.143372,0-0.280334,0.016724-0.417053,0.03418v7.569275
			c0.276428-0.297729,0.540039-0.659851,0.789612-1.103455C21.80658,36.033203,22.426819,34.194275,22.8125,32.057556z"/>
		<path class="st1" d="M22.432617,24.807068c-0.448364-0.602234-1.18689-0.895691-2.254944-0.898743v1.769165
			c1.073669,0.034241,2.044861,0.252991,2.896057,0.672119C22.949707,25.72998,22.734924,25.213867,22.432617,24.807068z"/>
		<path class="st1" d="M20.177673,8.700195v9.873901c0.216919-0.009949,0.432495-0.031128,0.650452-0.031128
			c3.049805,0,5.283203,0.955017,6.638672,2.838806c1.282227,1.783203,1.932129,4.249084,1.932129,7.330139
			c0,2.485352-0.396912,4.976563-1.179199,7.405273c-0.800842,2.484375-2.072754,4.580078-3.779846,6.228516
			c-1.21405,1.171448-2.644531,1.939514-4.262207,2.315674v10.63739L40.35553,43.650391V20.350586L20.177673,8.700195z"/>
	</g>
</g>
</svg>
