<svg version="1" xmlns="http://www.w3.org/2000/svg" width="853.333" height="853.333" viewBox="0 0 640 640">
    <path d="M100.8 145.2L0 203.4v233.3l94.2 54.4c51.9 29.9 97.3 56.1 100.9 58.2l6.6 3.8 99.9-57.7c54.9-31.7 100.5-58.1 101.2-58.6 1.8-1.5 1.8-232.1 0-233.6C401.6 202.3 202.1 87 201.7 87c-.1 0-45.5 26.2-100.9 58.2zm127.7 41.9c44.7 7.2 67.6 45.4 65.1 108.4-2.1 53.4-18.5 96.7-47.5 125.5-15.9 15.7-31.6 23.9-52.1 27.1-9.6 1.5-32.5.6-40.5-1.6-18.2-5-33.4-17.3-41.4-33.5-6.9-14.2-8.4-21.7-8.5-42-.1-24 3.1-38.8 12.3-58.6 13.7-29.2 39.6-49.8 68.3-54.4 14.4-2.3 31.8-.5 45.4 4.7 2.4.9-2.4-11.1-6.1-15.5-4.1-4.7-9.5-7.1-18.1-7.9-12.3-1.1-26.2 2.4-45.6 11.5l-10.8 5.1v-57.7l3.3-1.2c11.8-4.3 21.1-7.2 27.6-8.6 15.1-3.2 33.8-3.7 48.6-1.3z"/>
    <path d="M198.7 311c-11.7 3-22.2 13.4-28.5 28.5-5.4 13.1-6.8 36.3-2.7 46.3 3.6 8.7 11.4 11.8 22.1 8.7 4.7-1.4 6.8-2.7 11.5-7.7 9.6-9.9 19.3-31.8 24.9-56.1l2.3-9.8-2.9-3.1c-5.6-5.9-17.7-9-26.7-6.8zm237.3 8.5V446h63l.2-67.6.3-67.7 45 67.6 45 67.6 25.3.1H640V193h-62v63c0 34.6-.3 63-.7 63-.5 0-19.5-28.4-42.3-63l-41.5-62.9-28.7-.1H436v126.5z"/>
</svg>
