<svg xmlns="http://www.w3.org/2000/svg" width="40.53" height="50" viewBox="0 0 40.53 50">
    <path fill="#13143e" d="M30.858 6.22L24.496 0 0 25l14.294 14.09 9.977-10.204-8.01-7.791"/>
    <path fill="#6a6bb1" d="M9.677 43.785L16.044 50l24.483-25.01-14.299-14.085-9.976 10.21 8.016 7.784"/>
    <path fill="#fff" d="M8.726 28.264V21.69h.89l3.454 5.16v-5.16h.834v6.574h-.89L9.56 23.105v5.159m6.319-6.579h.868v6.579h-.868zm2.923 6.579V21.69h2.463c.502 0 .908.065 1.208.2.303.13.543.335.713.61.174.28.258.57.258.87 0 .28-.076.546-.227.795-.152.245-.384.445-.692.6.397.115.704.315.92.595.21.286.32.615.32 1 0 .305-.065.594-.194.858a1.677 1.677 0 01-.483.612 1.993 1.993 0 01-.72.324c-.288.075-.64.11-1.062.11m-1.639-3.813h1.423c.386 0 .665-.025.831-.075a.92.92 0 00.499-.325.95.95 0 00.17-.576c0-.22-.053-.41-.158-.575s-.255-.28-.45-.34c-.193-.064-.526-.095-1.002-.095h-1.313v1.985zm0 3.038h1.64c.282 0 .478-.01.589-.035.203-.035.37-.094.508-.176.133-.084.242-.207.332-.363.085-.16.13-.346.13-.556 0-.244-.065-.46-.19-.639a1.005 1.005 0 00-.524-.379c-.223-.076-.542-.112-.964-.112h-1.52v2.26zm6-5.804h.866v6.579h-.866zm2.733 6.579V21.69h2.466c.502 0 .907.065 1.212.2.299.13.54.335.714.61.167.28.255.57.255.87 0 .28-.078.546-.228.795-.153.245-.38.445-.689.6.397.115.7.315.917.595.214.286.32.615.32 1 0 .305-.065.594-.195.858a1.64 1.64 0 01-.483.612 1.928 1.928 0 01-.72.324c-.288.075-.64.11-1.062.11m-1.638-3.813h1.422c.386 0 .665-.025.831-.075a.946.946 0 00.503-.325.975.975 0 00.166-.576c0-.22-.053-.41-.158-.575a.771.771 0 00-.446-.34c-.195-.064-.53-.095-1.001-.095h-1.317v1.986zm0 3.038h1.638c.283 0 .48-.01.596-.035.197-.035.368-.094.502-.176a1 1 0 00.33-.363c.089-.16.132-.346.132-.556 0-.244-.065-.46-.19-.639a1.013 1.013 0 00-.524-.379c-.223-.076-.542-.112-.96-.112H29.27v2.26z"/>
</svg>
