<svg xmlns="http://www.w3.org/2000/svg" width="50.001" height="50" viewBox="0 0 50.001 50">
    <g fill-rule="evenodd" clip-rule="evenodd">
        <path d="M26.216 49.995h-2.473l-1.128-.12c-6.98-.74-12.675-3.854-17.131-9.264-.131-.16-.13-.244.014-.396 2.314-2.458 4.957-4.518 7.749-6.389 5.35-3.583 10.866-6.904 16.345-10.28 4.023-2.48 8.066-4.928 11.8-7.843 1.698-1.327 3.23-2.788 4.072-4.834.08-.193.121-.01.149.03 2.333 3.422 3.747 7.188 4.213 11.306.065.57.113 1.14.171 1.71v2.214c-.015.043-.039.086-.042.13a24.71 24.71 0 01-.352 3.1 24.851 24.851 0 01-3.769 9.418c-.055.085-.084.16-.194.035-1.416-1.615-3.266-2.552-5.263-3.172-6.32-1.96-12.655-3.86-18.985-5.786-.12-.037-.2-.013-.297.051-.81.532-1.62 1.06-2.43 1.59-.044.028-.08.071-.12.107.045.024.087.05.13.07 4.358 1.97 8.719 3.929 13.067 5.914 2.193 1 4.45 1.873 6.52 3.13 2.293 1.392 4.271 3.11 5.61 5.483.06.109.182.244.05.349-.152.12-.242-.058-.328-.15-.747-.8-1.57-1.49-2.6-1.907-.186-.075-.302-.053-.456.07-3.743 2.958-7.978 4.724-12.72 5.27-.534.06-1.068.11-1.602.164z" fill="#1b2f5b"/>
        <path d="M44.352 4.292c-.034-.094-.038-.245-.191-.217-.166.029-.124.178-.112.283.124 1.18-.144 2.266-.76 3.275-.112.184-.164.178-.308.03C38.715 3.301 33.555.771 27.479.126c-.407-.043-.813-.082-1.22-.122h-2.647c-.612.069-1.23.12-1.839.209C13.738 1.392 7.613 5.47 3.423 12.41 1.343 15.854.273 19.633.048 23.65c-.002.06-.028.118-.042.177v2.344c.055.534.106 1.07.165 1.603a24.67 24.67 0 002.23 7.887.781.781 0 01.081.372c-.047 1.857.11 3.695.531 5.516 0-.243-.003-.486.001-.728a40.941 40.941 0 01.614-6.209c.474-2.71 1.952-4.72 4.167-6.265 1.546-1.078 3.294-1.738 5.002-2.48 7.188-3.128 14.398-6.213 21.452-9.641 2.3-1.119 4.587-2.269 6.756-3.635a8.758 8.758 0 002.77-2.764c1.105-1.748 1.312-3.596.577-5.536zM14.678 14.625c0 .002-.003.003-.004.005a.116.116 0 00-.007.001c-.025.017-.048.035-.072.05-1.772 1.066-3.532 2.15-5.2 3.37-1.099.805-2.181 1.627-3.079 2.663-1.047 1.212-.98 1.922.292 2.903 1.143.88 2.453 1.463 3.76 2.052.058.027.114.058.173.087-.06.036-.114.077-.176.108l-2.223 1.08c-.079.04-.142.074-.24.02-1.213-.69-2.416-1.398-3.434-2.372-.54-.516-.995-1.09-1.168-1.84-.133-.58.012-1.103.324-1.59.527-.828 1.266-1.445 2.048-2.007 2.298-1.642 4.843-2.818 7.426-3.917.485-.207.98-.393 1.467-.59l.102-.017.004-.004c.002 0 .004 0 .007-.002.009-.01.017-.022.027-.032.003-.001.017.011.024.017l-.05.015z" fill="#4d65af"/>
        <path d="M25.875 11.295a5.036 5.036 0 00-5.03-5.048 5.032 5.032 0 00-5.05 5.044 5.038 5.038 0 005.037 5.041 5.043 5.043 0 005.043-5.037z" fill="#c1d833"/>
        <path d="M.006 26.172c.055.534.106 1.07.165 1.603a24.67 24.67 0 002.23 7.887.781.781 0 01.081.372c-.047 1.857.11 3.695.531 5.516 0-.243-.003-.486.001-.728a40.941 40.941 0 01.614-6.209c.474-2.71 1.952-4.72 4.167-6.265 1.546-1.078 3.294-1.738 5.002-2.48 7.188-3.128 14.398-6.213 21.452-9.641 2.3-1.119 4.587-2.269 6.756-3.635a8.758 8.758 0 002.77-2.764c1.105-1.748 1.312-3.596.577-5.536-.034-.094-.038-.245-.191-.217-.166.029-.124.178-.112.283.124 1.18-.144 2.266-.76 3.275-.112.184-.164.178-.308.03C38.715 3.301 33.555.771 27.479.126c-.407-.043-.813-.082-1.22-.122 7.845 0 15.688 0 23.532-.004.176-.001.21.035.21.21-.005 7.902-.004 15.803-.004 23.705-.058-.57-.106-1.14-.17-1.71-.467-4.118-1.881-7.884-4.214-11.307-.028-.04-.069-.222-.149-.029-.842 2.046-2.374 3.507-4.072 4.834-3.734 2.915-7.777 5.363-11.8 7.843-5.48 3.376-10.995 6.697-16.345 10.28-2.792 1.871-5.435 3.93-7.75 6.389-.143.152-.144.236-.013.396 4.456 5.41 10.15 8.525 17.131 9.264l1.128.12c-7.848 0-15.695 0-23.543.004-.163 0-.2-.035-.2-.198.006-7.877.006-15.753.006-23.63z" fill="none"/>
        <path d="M26.216 49.995c.534-.055 1.068-.103 1.601-.165 4.743-.545 8.978-2.311 12.72-5.268.155-.124.271-.146.457-.07 1.03.415 1.853 1.107 2.6 1.906.086.092.176.27.329.15.13-.105.01-.24-.052-.349-1.338-2.373-3.316-4.09-5.61-5.483-2.07-1.257-4.326-2.13-6.52-3.13-4.347-1.985-8.708-3.943-13.065-5.914-.044-.02-.086-.046-.13-.07.04-.036.075-.079.119-.108.81-.53 1.62-1.057 2.43-1.589.096-.064.176-.088.297-.05 6.33 1.925 12.666 3.825 18.985 5.785 1.997.62 3.847 1.557 5.263 3.172.11.125.139.05.194-.035a24.851 24.851 0 003.769-9.418 24.71 24.71 0 00.352-3.1c.003-.044.027-.087.042-.13 0 7.887 0 15.772.004 23.661 0 .175-.035.21-.21.21-7.859-.006-15.717-.005-23.575-.005zM23.612.004c-.612.069-1.23.12-1.839.209C13.738 1.392 7.613 5.47 3.423 12.41 1.343 15.854.273 19.633.048 23.65c-.002.06-.028.118-.042.177C.006 15.956.006 8.083 0 .21 0 .035.034-.001.21 0c7.802.005 15.602.004 23.402.004zM14.674 14.63c.01-.012.02-.026.031-.037.003-.001.017.011.024.017l-.058.017.003.003z" fill="none"/>
        <path d="M14.671 14.627l-.076.055-.03-.034.11-.018-.004-.003z" fill="none"/>
    </g>
</svg>
