<svg xmlns="http://www.w3.org/2000/svg" width="79.7" height="50" viewBox="0 0 79.7 50">
    <path d="M69.332 24.98L55.458 49.985H4.604A4.603 4.603 0 010 45.383V4.603A4.603 4.603 0 014.604 0h50.908l13.82 24.98zM25.867 36.227V13.882h-3.721v16.456h-.069L11.883 13.882H7.755v22.346h3.728V19.792h.096l10.174 16.436h4.114zm7.766 0V13.882h-3.906v22.346h3.906zm21.912-22.346h-3.908v8.89H41.463v-8.89h-3.907v22.346h3.907V26.156h10.174v10.077h3.908v-22.35z" fill="#66676b"/>
    <path d="M58.932 50l13.847-25.02L58.98 0h3.46c1.893 0 4.196 1.355 5.112 3.013l12.142 21.96-12.19 22.007c-.917 1.65-3.22 3.006-5.112 3.006l-3.46.014z" fill="#395d96"/>
</svg>
