<?xml version="1.0" encoding="UTF-8" standalone="no"?>
<!-- Generator: Adobe Illustrator 16.0.0, SVG Export Plug-In . SVG Version: 6.00 Build 0)  -->

<svg
   xmlns="http://www.w3.org/2000/svg"
   version="1.1"
   viewBox="0 0 40.355469 46.598633"
   xml:space="preserve"
   >
   <style type="text/css">
   .fill-accent { fill: #ffc306; }
   .fill-accent-light { fill: #ffd144; }
   .fill-white { fill: #fff; }
   </style>
   <link xmlns="http://www.w3.org/1999/xhtml" rel="stylesheet" href="/images.css" type="text/css"/>
<g
   id="Background-Hexagon">
	<polygon
      points="0,34.950195 0,11.650391 20.177734,0 40.355469,11.650391 40.355469,34.950195 20.177734,46.598633"
      class="fill-accent" />
	<polyline
      points="20.177734,0 40.355469,11.650391 40.355469,34.950195 20.177734,46.598633"
      class="fill-accent-light" />
</g>
<g
   id="Letters">
	<path
      d="m 17.800293,36.234375 c -2.482422,0 -4.383301,-0.734375 -5.649414,-2.182617 -1.231934,-1.411133 -1.856934,-3.302734 -1.856934,-5.623047 0,-2.016602 0.386719,-3.90918 1.149902,-5.624023 0.776855,-1.749023 1.902832,-3.169922 3.347656,-4.22168 1.474609,-1.075195 3.191895,-1.619629 5.10498,-1.619629 1.188965,0 2.250977,0.22998 3.177246,0.686035 -0.124023,-0.619629 -0.338867,-1.135742 -0.641113,-1.54248 -0.450684,-0.605469 -1.193359,-0.899902 -2.270508,-0.899902 -1.151855,0 -2.451172,0.347168 -3.861328,1.031738 l -1.415527,0.6875 v -5.79834 l 0.617188,-0.249023 c 1.70752,-0.6875 3.499023,-1.036133 5.325684,-1.036133 3.049805,0 5.283203,0.955078 6.638672,2.838867 1.282227,1.783203 1.932129,4.249023 1.932129,7.330078 0,2.485352 -0.396973,4.976563 -1.179199,7.405273 -0.800781,2.484375 -2.072754,4.580078 -3.779785,6.228516 -1.779297,1.716797 -4.013184,2.588867 -6.639649,2.588867 z m 2.794434,-13.907227 c -0.75,0 -1.405762,0.237305 -2.005371,0.726563 -0.64502,0.524414 -1.158691,1.240234 -1.525879,2.125977 -0.380859,0.916992 -0.57373,1.920898 -0.57373,2.982422 0,0.994141 0.178711,1.741211 0.516113,2.163086 0.30127,0.376953 0.680176,0.544922 1.227051,0.544922 1.066895,0 1.960938,-0.667969 2.734375,-2.042969 0.839355,-1.494141 1.459473,-3.333008 1.845215,-5.469727 -0.253418,-0.304688 -0.52832,-0.544922 -0.819336,-0.716797 -0.354981,-0.208008 -0.825196,-0.313477 -1.398438,-0.313477 z"
      class="fill-white" />
	<path
      d="m 26.666992,13.256836 c 1.164063,1.619141 1.746582,3.871094 1.746582,6.754883 0,2.394531 -0.377441,4.762695 -1.131348,7.102539 -0.754395,2.339844 -1.929199,4.280273 -3.526367,5.822266 -1.597168,1.541993 -3.58252,2.3125 -5.955566,2.3125 -2.195801,0 -3.832031,-0.615234 -4.907715,-1.845703 -1.076172,-1.232422 -1.613281,-2.889648 -1.613281,-4.974609 0,-1.885742 0.354492,-3.626953 1.064453,-5.224609 0.709473,-1.59668 1.71875,-2.871094 3.027832,-3.825195 1.308594,-0.953125 2.816406,-1.430664 4.524902,-1.430664 1.796387,0 3.227051,0.587891 4.291504,1.762695 v -0.631836 c 0,-1.507813 -0.321777,-2.694824 -0.964844,-3.560059 -0.643555,-0.864746 -1.663574,-1.297363 -3.061035,-1.297363 -1.308594,0 -2.739258,0.377441 -4.291992,1.131348 V 11.79297 c 1.597168,-0.643066 3.249023,-0.964844 4.958008,-0.964844 2.728027,-10e-7 4.674316,0.810058 5.838867,2.42871 z M 21.825684,29.30957 c 0.953613,-1.696289 1.630371,-3.764648 2.029785,-6.204102 -0.399414,-0.577148 -0.854004,-1.014648 -1.36377,-1.314453 -0.51123,-0.299805 -1.143066,-0.449219 -1.896973,-0.449219 -0.976074,0 -1.852051,0.31543 -2.62793,0.948242 -0.776855,0.631836 -1.381348,1.469727 -1.813477,2.511719 -0.432617,1.042969 -0.648438,2.163086 -0.648438,3.360352 0,1.242188 0.243164,2.168945 0.731445,2.77832 0.487793,0.610352 1.15332,0.915039 1.996582,0.915039 1.441408,1e-6 2.639162,-0.848632 3.592776,-2.545898 z"
      class="fill-white" />
</g>
</svg>